if (_typeface_js && _typeface_js.loadFace) _typeface_js.loadFace({"glyphs":{"ợ":{"x_min":26,"x_max":745,"ha":684,"o":"m 433 326 q 424 418 433 377 q 400 485 415 458 q 366 526 386 512 q 325 541 346 541 q 259 517 285 541 q 215 456 232 493 q 192 374 199 419 q 185 285 185 329 q 194 199 185 239 q 220 129 204 159 q 256 81 236 99 q 298 64 277 64 q 343 75 323 64 q 378 107 363 87 q 403 153 393 127 q 420 208 414 179 q 429 268 426 237 q 433 326 433 298 m 745 714 q 698 599 745 652 q 567 506 652 546 q 591 379 591 449 q 579 287 591 333 q 546 197 567 240 q 494 113 524 153 q 425 42 463 73 q 386 15 407 28 q 341 -7 364 2 q 295 -22 318 -17 q 252 -28 272 -28 q 157 -7 199 -28 q 86 46 115 12 q 41 129 57 81 q 26 233 26 177 q 35 327 26 282 q 65 415 45 373 q 117 496 85 457 q 194 569 149 535 q 234 595 212 583 q 278 616 255 607 q 325 629 301 624 q 372 635 349 635 q 467 615 426 635 q 536 561 507 596 q 577 598 563 578 q 592 643 592 618 q 590 657 592 649 q 584 674 588 666 q 573 691 580 683 q 556 704 566 698 l 711 779 q 725 765 719 773 q 736 749 732 757 q 742 731 740 740 q 745 714 745 721 m 322 -172 q 314 -216 322 -193 q 293 -256 307 -238 q 259 -287 279 -275 q 214 -299 239 -299 q 166 -278 182 -299 q 151 -231 151 -258 q 158 -188 151 -211 q 179 -147 166 -166 q 213 -116 193 -129 q 258 -104 233 -104 q 286 -109 274 -104 q 306 -125 298 -115 q 318 -147 314 -134 q 322 -172 322 -159 "},"Ẩ":{"x_min":-33.90625,"x_max":768.421875,"ha":810,"o":"m 251 291 l 165 95 q 176 65 156 74 q 246 49 196 56 l 240 0 l -33 0 l -27 49 q 40 66 16 57 q 73 95 64 75 l 390 817 q 426 842 407 830 q 466 863 446 854 q 506 880 486 873 q 543 893 526 887 l 697 95 q 702 78 699 86 q 714 65 706 71 q 735 56 722 60 q 768 49 748 52 l 762 0 l 449 0 l 456 49 q 524 63 505 52 q 539 95 543 73 l 503 291 l 251 291 m 487 373 l 426 693 l 287 373 l 487 373 m 704 948 q 684 924 694 935 q 663 908 674 913 l 504 1026 l 316 908 q 300 923 310 912 q 284 948 290 935 l 480 1158 l 563 1158 l 704 948 m 678 1403 q 669 1372 678 1386 q 646 1345 660 1358 q 616 1320 632 1332 q 586 1298 600 1309 q 563 1276 572 1287 q 554 1253 554 1265 q 560 1239 554 1246 q 583 1221 567 1232 q 568 1215 577 1218 q 548 1209 558 1212 q 528 1204 538 1206 q 513 1201 518 1202 q 476 1230 487 1217 q 465 1254 465 1242 q 474 1275 465 1265 q 497 1294 483 1285 q 527 1313 511 1304 q 557 1335 543 1323 q 581 1359 571 1346 q 590 1389 590 1372 q 582 1417 590 1407 q 552 1428 574 1428 q 530 1423 540 1428 q 515 1409 521 1417 q 508 1391 510 1401 q 509 1374 506 1382 q 492 1368 504 1372 q 465 1360 479 1364 q 437 1353 450 1356 q 417 1349 423 1349 l 412 1356 q 425 1403 411 1381 q 461 1443 438 1425 q 514 1470 485 1460 q 575 1480 544 1480 q 624 1474 604 1480 q 656 1456 643 1467 q 673 1431 668 1445 q 678 1403 678 1418 "},"ǻ":{"x_min":26,"x_max":688.390625,"ha":669,"o":"m 396 256 q 405 317 400 284 q 415 381 410 349 q 425 442 420 413 q 433 492 429 470 q 392 524 414 510 q 349 539 370 539 q 297 524 321 538 q 255 488 273 511 q 222 437 236 466 q 198 377 207 408 q 184 314 189 345 q 180 256 180 283 q 185 190 180 218 q 200 142 190 161 q 221 114 209 124 q 245 105 232 105 q 307 143 267 105 q 396 256 346 182 m 665 71 q 608 33 636 51 q 556 1 580 15 q 512 -20 531 -12 q 480 -28 492 -28 q 454 -20 469 -28 q 426 5 439 -13 q 402 55 413 24 q 389 134 392 86 q 342 75 367 104 q 291 22 317 45 q 236 -14 264 0 q 181 -28 208 -28 q 129 -15 156 -28 q 79 25 102 -2 q 41 98 56 54 q 26 206 26 143 q 39 311 26 260 q 78 409 53 362 q 142 497 104 456 q 227 571 179 538 q 268 594 245 583 q 315 615 290 606 q 368 629 340 624 q 424 635 395 635 q 480 622 453 635 q 531 594 507 609 q 577 615 554 605 q 619 635 600 625 l 640 590 q 621 573 628 581 q 608 556 613 566 q 598 532 602 546 q 589 495 594 518 q 571 400 579 446 q 557 316 562 354 q 548 248 551 277 q 546 204 546 219 q 556 127 546 157 q 581 97 566 97 q 611 100 595 97 q 654 115 627 104 l 665 71 m 461 856 q 452 890 461 877 q 427 903 442 903 q 404 896 414 903 q 385 878 393 890 q 373 853 377 867 q 368 822 368 838 q 378 788 368 801 q 404 775 389 774 q 426 781 416 775 q 445 799 437 788 q 457 825 452 810 q 461 856 461 840 m 551 882 q 538 819 551 852 q 502 759 525 786 q 447 713 479 731 q 380 695 416 695 q 338 703 356 695 q 308 725 320 711 q 289 757 296 739 q 283 793 283 774 q 296 859 283 825 q 332 921 309 893 q 385 967 354 949 q 451 985 415 985 q 493 976 474 985 q 525 954 512 968 q 545 921 538 940 q 551 882 551 903 m 688 1242 l 432 1006 q 408 1018 421 1009 q 386 1040 396 1028 l 545 1310 l 571 1305 q 610 1298 590 1302 q 648 1289 630 1294 q 672 1283 666 1285 l 688 1242 "},"ʉ":{"x_min":-13.171875,"x_max":734.390625,"ha":759,"o":"m 275 104 q 304 113 287 104 q 344 144 322 123 q 392 198 366 164 q 447 278 418 231 l 250 278 q 242 223 245 248 q 240 182 240 199 q 251 123 240 143 q 275 104 262 104 m 724 71 q 670 35 697 53 q 617 3 642 17 q 569 -19 591 -10 q 531 -28 547 -28 q 500 -17 515 -28 q 472 14 485 -6 q 450 68 459 36 q 441 146 442 101 q 384 77 415 109 q 322 22 354 45 q 257 -14 290 0 q 194 -28 225 -28 q 154 -17 175 -28 q 115 14 133 -6 q 86 66 98 35 q 75 139 75 97 q 79 200 75 164 q 91 278 84 237 l 4 278 l -13 297 q -7 311 -11 302 q 1 328 -3 319 q 9 345 5 337 q 17 359 13 353 l 105 359 q 115 425 111 394 q 120 474 120 455 q 117 499 120 490 q 112 513 115 508 q 103 519 108 517 q 92 520 98 520 q 75 518 86 520 q 54 512 65 515 q 27 504 42 508 l 16 549 q 82 577 45 562 q 155 605 120 592 q 219 626 191 618 q 260 635 248 635 q 287 622 280 635 q 294 578 294 609 q 291 537 294 561 q 284 484 288 512 q 273 423 279 455 q 262 359 268 390 l 465 359 q 475 423 471 393 q 480 474 480 453 q 478 499 480 490 q 473 513 476 508 q 465 519 469 517 q 454 520 461 520 q 438 518 448 520 q 419 512 429 515 q 395 504 408 508 l 383 549 q 448 577 412 562 q 519 605 484 592 q 581 626 553 618 q 621 635 609 635 q 646 622 640 635 q 653 578 653 609 q 650 535 653 560 q 642 482 647 510 q 632 421 638 453 q 621 359 627 390 l 716 359 l 734 336 l 703 278 l 609 278 q 605 240 606 258 q 604 208 604 222 q 613 121 604 146 q 639 97 622 97 q 672 101 657 97 q 712 115 688 105 l 724 71 "},"Ổ":{"x_min":51,"x_max":784,"ha":795,"o":"m 622 512 q 611 619 622 569 q 579 706 600 669 q 526 763 558 742 q 454 785 495 785 q 379 765 413 785 q 318 712 345 745 q 272 636 292 679 q 240 546 252 593 q 221 451 227 499 q 215 360 215 403 q 225 244 215 297 q 258 153 236 191 q 309 94 279 115 q 380 73 340 73 q 458 93 423 73 q 519 148 493 114 q 566 227 546 182 q 597 321 585 273 q 616 420 610 370 q 622 512 622 469 m 784 525 q 774 427 784 476 q 748 329 765 377 q 707 236 731 281 q 651 152 682 191 q 587 84 623 116 q 512 29 552 52 q 428 -7 472 6 q 339 -21 385 -21 q 217 6 270 -21 q 126 82 163 34 q 70 194 89 130 q 51 328 51 257 q 59 428 51 379 q 83 522 67 476 q 121 611 99 569 q 170 690 143 653 q 233 762 198 728 q 309 820 267 795 q 397 860 350 845 q 498 875 444 875 q 624 847 571 875 q 713 771 678 819 q 766 659 749 723 q 784 525 784 596 m 710 948 q 691 924 701 935 q 670 908 680 913 l 511 1026 l 323 908 q 307 923 317 912 q 290 948 297 935 l 487 1158 l 570 1158 l 710 948 m 685 1403 q 675 1372 685 1386 q 653 1345 666 1358 q 623 1320 639 1332 q 593 1298 606 1309 q 570 1276 579 1287 q 561 1253 561 1265 q 567 1239 561 1246 q 590 1221 574 1232 q 575 1215 584 1218 q 555 1209 565 1212 q 535 1204 545 1206 q 520 1201 525 1202 q 483 1230 494 1217 q 472 1254 472 1242 q 481 1275 472 1265 q 504 1294 490 1285 q 534 1313 518 1304 q 564 1335 550 1323 q 587 1359 578 1346 q 597 1389 597 1372 q 589 1417 597 1407 q 559 1428 580 1428 q 537 1423 546 1428 q 522 1409 528 1417 q 515 1391 517 1401 q 516 1374 513 1382 q 499 1368 511 1372 q 471 1360 486 1364 q 443 1353 457 1356 q 424 1349 430 1349 l 419 1356 q 432 1403 418 1381 q 468 1443 445 1425 q 521 1470 491 1460 q 582 1480 550 1480 q 630 1474 611 1480 q 662 1456 650 1467 q 680 1431 675 1445 q 685 1403 685 1418 "},"Ừ":{"x_min":110,"x_max":1044.390625,"ha":983,"o":"m 1044 961 q 1028 892 1044 925 q 981 830 1011 859 q 906 774 950 800 q 807 727 862 748 l 753 347 q 708 189 741 258 q 628 73 676 120 q 522 3 581 27 q 395 -21 462 -21 q 289 -4 339 -21 q 201 45 239 12 q 141 125 163 78 q 119 236 119 173 q 125 314 119 272 l 188 763 q 171 783 190 771 q 110 805 153 795 l 116 855 l 442 855 l 435 805 q 368 784 392 795 q 343 763 345 772 l 284 346 q 279 306 281 326 q 278 269 278 287 q 319 126 278 174 q 445 79 360 79 q 522 97 489 79 q 579 147 556 115 q 618 223 603 180 q 639 318 632 267 l 701 763 q 698 772 702 767 q 686 783 695 778 q 662 794 677 789 q 625 805 647 800 l 632 855 l 882 855 q 891 890 891 872 q 889 905 891 896 q 882 922 887 913 q 872 938 878 930 q 855 951 865 946 l 1009 1026 q 1035 996 1026 1015 q 1044 961 1044 976 m 634 954 q 614 927 625 941 q 592 908 603 914 l 305 1068 l 316 1110 q 345 1127 327 1117 q 381 1145 362 1136 q 416 1162 400 1155 q 442 1174 433 1169 l 634 954 "},"̂":{"x_min":-451.015625,"x_max":-21.03125,"ha":0,"o":"m -21 731 q -43 707 -30 718 q -67 691 -56 696 l -219 844 l -413 691 q -432 706 -419 695 q -451 731 -444 718 l -248 988 l -155 988 l -21 731 "},"Á":{"x_min":-33.90625,"x_max":768.421875,"ha":810,"o":"m 251 291 l 165 95 q 176 65 156 74 q 246 49 196 56 l 240 0 l -33 0 l -27 49 q 40 66 16 57 q 73 95 64 75 l 390 817 q 426 842 407 830 q 466 863 446 854 q 506 880 486 873 q 543 893 526 887 l 697 95 q 702 78 699 86 q 714 65 706 71 q 735 56 722 60 q 768 49 748 52 l 762 0 l 449 0 l 456 49 q 524 63 505 52 q 539 95 543 73 l 503 291 l 251 291 m 487 373 l 426 693 l 287 373 l 487 373 m 727 1068 l 407 908 q 389 927 398 914 q 375 954 381 941 l 615 1174 q 643 1158 628 1167 q 675 1141 659 1150 q 704 1124 691 1132 q 727 1110 718 1116 l 727 1068 "},"ṑ":{"x_min":26,"x_max":660.59375,"ha":617,"o":"m 433 326 q 424 418 433 377 q 400 485 415 458 q 366 526 386 512 q 325 541 346 541 q 259 517 285 541 q 215 456 232 493 q 192 374 199 419 q 185 285 185 329 q 194 199 185 239 q 220 129 204 159 q 256 81 236 99 q 298 64 277 64 q 343 75 323 64 q 378 107 363 87 q 403 153 393 127 q 420 208 414 179 q 429 268 426 237 q 433 326 433 298 m 591 379 q 579 287 591 333 q 546 196 568 240 q 494 113 524 153 q 426 42 463 73 q 386 15 408 28 q 341 -7 364 2 q 295 -22 318 -17 q 252 -28 273 -28 q 157 -7 199 -28 q 86 46 115 12 q 41 129 57 81 q 26 233 26 177 q 35 327 26 282 q 65 415 44 373 q 117 496 85 457 q 194 569 149 535 q 233 595 212 583 q 278 616 255 607 q 325 629 301 624 q 371 635 349 635 q 465 616 424 635 q 534 563 506 597 q 576 482 562 529 q 591 379 591 435 m 660 869 q 652 849 658 861 q 639 825 646 838 q 626 801 632 812 q 616 785 619 790 l 137 785 l 121 806 q 129 825 124 813 q 141 848 134 836 q 154 872 148 861 q 164 891 160 884 l 642 891 l 660 869 m 465 966 q 436 951 452 958 q 408 941 421 943 l 213 1188 l 240 1222 q 268 1227 248 1224 q 310 1235 288 1231 q 353 1242 333 1239 q 381 1245 373 1245 l 465 966 "},"Ȯ":{"x_min":51,"x_max":784,"ha":795,"o":"m 622 512 q 611 619 622 569 q 579 706 600 669 q 526 763 558 742 q 454 785 495 785 q 379 765 413 785 q 318 712 345 745 q 272 636 292 679 q 240 546 252 593 q 221 451 227 499 q 215 360 215 403 q 225 244 215 297 q 258 153 236 191 q 309 94 279 115 q 380 73 340 73 q 458 93 423 73 q 519 148 493 114 q 566 227 546 182 q 597 321 585 273 q 616 420 610 370 q 622 512 622 469 m 784 525 q 774 427 784 476 q 748 329 765 377 q 707 236 731 281 q 651 152 682 191 q 587 84 623 116 q 512 29 552 52 q 428 -7 472 6 q 339 -21 385 -21 q 217 6 270 -21 q 126 82 163 34 q 70 194 89 130 q 51 328 51 257 q 59 428 51 379 q 83 522 67 476 q 121 611 99 569 q 170 690 143 653 q 233 762 198 728 q 309 820 267 795 q 397 860 350 845 q 498 875 444 875 q 624 847 571 875 q 713 771 678 819 q 766 659 749 723 q 784 525 784 596 m 593 1052 q 585 1009 593 1032 q 564 968 578 987 q 530 937 550 949 q 485 926 510 926 q 437 946 452 926 q 422 993 422 967 q 429 1036 422 1014 q 450 1077 437 1058 q 484 1108 464 1096 q 529 1121 504 1121 q 557 1115 545 1121 q 577 1099 569 1109 q 589 1078 584 1090 q 593 1052 593 1066 "},"ĥ":{"x_min":48.5,"x_max":710.65625,"ha":730,"o":"m 710 74 q 645 37 679 56 q 579 4 611 19 q 519 -18 547 -9 q 472 -28 492 -28 q 437 -6 453 -28 q 422 51 422 14 q 426 92 422 63 q 436 158 430 121 q 449 237 442 195 q 462 318 456 280 q 472 387 468 356 q 477 434 477 419 q 474 469 477 455 q 468 491 472 483 q 458 502 464 499 q 443 506 451 506 q 418 500 434 506 q 381 482 401 495 q 339 448 361 470 q 298 394 317 427 q 266 313 279 362 q 244 204 253 265 q 234 140 238 166 q 230 96 231 115 q 228 65 228 78 q 228 42 228 53 q 198 27 220 37 q 152 7 176 18 q 106 -13 127 -3 q 76 -28 84 -23 l 48 -2 q 63 86 54 34 q 82 200 72 138 q 103 329 92 261 q 124 464 114 397 q 144 596 135 532 q 160 714 153 659 q 171 809 167 768 q 176 872 176 850 q 173 897 176 887 q 167 910 171 906 q 158 916 163 914 q 148 917 153 917 q 129 914 141 917 q 105 908 117 911 q 74 899 91 904 l 64 946 q 129 973 92 959 q 200 1001 165 988 q 264 1022 235 1014 q 306 1031 293 1031 q 338 1018 325 1031 q 351 975 351 1006 q 347 923 351 959 q 337 842 343 888 q 323 745 330 796 q 307 645 315 693 q 293 555 300 596 q 283 490 287 514 q 432 602 362 569 q 563 635 503 635 q 601 630 584 635 q 628 613 617 625 q 645 579 639 601 q 651 525 651 558 q 646 469 651 502 q 636 399 642 436 q 622 324 629 362 q 608 250 615 286 q 598 186 602 215 q 594 137 594 156 q 600 106 594 114 q 618 97 606 97 q 652 103 637 97 q 693 119 667 109 l 710 74 m 688 1125 q 668 1100 678 1111 q 647 1084 658 1089 l 489 1203 l 301 1084 q 285 1100 295 1088 q 268 1125 275 1111 l 465 1334 l 548 1334 l 688 1125 "},"»":{"x_min":31.203125,"x_max":611.078125,"ha":657,"o":"m 611 336 l 610 328 q 608 312 609 321 q 605 295 607 302 q 603 287 604 287 l 316 -1 l 284 29 q 366 170 330 108 q 396 222 381 197 q 423 267 411 247 q 441 299 434 287 l 448 311 l 444 323 q 434 355 440 335 q 420 400 428 375 q 404 452 413 426 q 361 594 385 515 l 402 625 l 611 336 m 356 336 q 353 312 354 323 q 350 295 352 302 q 349 287 349 287 l 62 -1 l 31 29 l 37 41 q 56 73 44 53 q 82 118 67 93 q 112 170 97 144 q 142 222 128 197 q 168 267 157 247 q 187 299 180 287 l 193 311 l 187 332 q 171 384 181 353 q 150 452 162 416 q 130 520 139 489 q 113 573 120 552 l 107 594 l 147 625 l 356 336 "},"Ḻ":{"x_min":-5.421875,"x_max":636.171875,"ha":673,"o":"m 636 205 q 621 144 630 176 q 606 83 613 112 q 592 32 598 54 q 581 0 585 10 l -5 0 l 1 49 q 68 70 45 59 q 93 90 92 81 l 185 763 q 168 783 187 771 q 105 805 149 795 l 111 855 l 442 855 l 435 805 q 367 784 391 795 q 342 763 343 772 l 255 129 q 258 108 254 117 q 275 93 262 99 q 309 84 287 87 q 366 81 331 81 l 436 81 q 486 88 465 81 q 524 112 507 95 q 557 156 541 129 q 592 223 573 183 l 636 205 m 548 -144 q 540 -163 546 -151 q 527 -187 534 -175 q 514 -211 520 -200 q 504 -228 507 -222 l 25 -228 l 9 -206 q 17 -188 12 -200 q 29 -164 23 -177 q 42 -140 36 -151 q 52 -122 48 -128 l 531 -122 l 548 -144 "},"∆":{"x_min":10.171875,"x_max":706.03125,"ha":772,"o":"m 529 132 q 486 333 507 233 q 466 422 476 376 q 446 514 457 468 q 427 604 436 560 q 410 686 418 648 q 367 597 389 644 q 324 503 345 550 q 280 411 302 457 q 240 324 259 365 q 150 132 194 227 q 142 112 144 120 q 145 102 140 105 q 166 97 151 98 q 211 97 182 97 l 456 97 q 502 97 486 97 q 525 102 518 98 q 532 112 532 105 q 529 132 531 120 m 683 0 l 18 0 l 10 40 q 152 341 84 195 q 212 468 181 402 q 273 597 244 534 q 329 717 303 660 q 377 818 356 774 q 447 859 411 841 q 522 893 484 877 q 545 778 532 842 q 573 645 558 715 q 604 504 588 576 q 634 365 619 432 q 706 40 669 207 l 683 0 "},"ṟ":{"x_min":-136.3125,"x_max":605.328125,"ha":567,"o":"m 605 576 q 591 555 599 569 q 574 526 583 542 q 554 494 564 510 q 535 464 544 478 q 519 442 526 450 q 507 434 511 434 q 483 442 494 434 q 461 460 471 450 q 440 477 450 469 q 420 486 430 486 q 380 469 402 486 q 337 421 359 452 q 296 349 315 391 q 262 259 276 308 q 238 152 247 208 q 231 42 229 96 q 198 27 220 37 q 151 7 175 18 q 107 -13 128 -3 q 77 -28 86 -23 l 50 -2 q 78 142 65 70 q 101 278 91 214 q 116 393 111 341 q 122 474 122 444 q 119 499 122 490 q 113 513 117 508 q 104 518 109 517 q 94 520 99 520 q 76 517 87 520 q 55 512 66 515 q 29 504 43 508 l 17 549 q 82 577 46 562 q 154 605 119 592 q 217 626 189 618 q 258 635 245 635 q 273 631 267 635 q 283 621 279 628 q 288 600 287 613 q 290 567 290 587 q 288 547 290 559 q 285 519 287 534 q 281 488 283 503 q 277 459 279 472 q 338 547 310 513 q 392 601 367 582 q 440 627 417 620 q 484 635 462 635 q 511 628 496 635 q 541 611 525 621 q 574 592 557 602 q 605 576 590 582 m 402 -144 q 394 -163 400 -151 q 381 -187 388 -175 q 368 -211 375 -200 q 358 -228 362 -222 l -120 -228 l -136 -206 q -128 -188 -133 -200 q -115 -164 -122 -177 q -103 -140 -109 -151 q -92 -122 -96 -128 l 385 -122 l 402 -144 "},"ỹ":{"x_min":-133.140625,"x_max":676.1875,"ha":664,"o":"m 651 583 q 633 512 651 560 q 583 396 615 464 q 506 241 551 327 q 409 55 462 155 q 316 -104 362 -31 q 223 -229 271 -176 q 123 -310 175 -281 q 11 -339 71 -339 q -40 -332 -15 -339 q -87 -316 -66 -326 q -120 -296 -107 -307 q -133 -279 -133 -286 q -121 -249 -133 -269 q -95 -208 -110 -229 q -64 -170 -80 -187 q -38 -148 -48 -153 q 26 -193 -6 -178 q 83 -208 58 -208 q 163 -167 122 -208 q 250 -53 203 -127 q 232 35 242 -13 q 210 134 222 83 q 184 234 197 184 q 158 329 171 285 q 133 408 145 373 q 111 464 121 443 q 85 509 96 499 q 62 520 74 520 q 45 518 56 520 q 23 512 34 515 q -3 504 10 508 l -17 549 q 45 579 13 564 q 107 607 78 594 q 159 627 136 619 q 194 635 182 635 q 227 615 213 635 q 258 548 241 595 q 283 470 270 514 q 311 374 297 426 q 338 268 325 323 q 364 156 352 212 q 417 265 392 211 q 460 365 442 319 q 490 445 479 411 q 501 495 501 479 q 465 531 501 529 q 440 529 453 533 q 408 516 428 525 l 391 561 q 443 589 415 575 q 498 612 471 602 q 549 628 525 622 q 590 635 573 635 q 612 633 601 635 q 632 626 623 631 q 645 610 640 620 q 651 583 651 600 m 676 910 q 654 871 666 892 q 627 829 641 850 q 596 788 612 808 q 561 754 579 769 q 524 730 543 739 q 486 722 505 722 q 436 732 459 722 q 392 756 413 743 q 349 780 370 769 q 304 792 328 792 q 278 786 290 792 q 254 772 266 781 q 230 748 242 762 q 203 715 217 733 l 160 733 q 194 794 174 761 q 240 856 215 827 q 292 904 265 885 q 349 924 320 924 q 402 912 378 924 q 448 888 427 901 q 489 864 470 875 q 529 853 509 853 q 580 872 557 853 q 631 931 604 891 l 676 910 "},"«":{"x_min":34.59375,"x_max":614.46875,"ha":657,"o":"m 288 288 q 291 312 289 301 q 294 329 293 321 q 296 338 295 336 l 583 625 l 614 594 l 607 582 q 589 550 600 570 q 562 505 577 530 q 532 453 548 479 q 502 401 517 426 q 476 357 488 376 q 458 325 465 337 q 452 313 451 313 l 538 29 l 497 -1 l 288 288 m 34 288 q 37 312 35 301 q 40 329 39 321 q 42 338 41 336 l 328 625 l 360 594 l 353 582 q 335 550 346 570 q 308 505 323 530 q 278 453 294 479 q 248 401 263 426 q 222 357 233 376 q 203 325 210 337 q 197 313 196 313 l 284 29 l 243 -1 l 34 288 "},"ử":{"x_min":16.90625,"x_max":889,"ha":828,"o":"m 889 714 q 872 644 889 677 q 823 580 855 610 q 745 524 791 550 q 642 477 699 498 q 630 404 636 442 q 617 331 623 367 q 608 263 612 295 q 604 208 604 231 q 613 122 604 146 q 639 98 622 98 q 672 102 657 98 q 712 116 688 106 l 724 72 q 670 35 697 53 q 617 3 642 17 q 569 -19 591 -10 q 531 -28 547 -28 q 501 -17 516 -28 q 472 13 485 -7 q 451 66 460 34 q 441 140 443 98 q 385 73 415 104 q 322 20 355 42 q 258 -15 290 -2 q 194 -28 225 -28 q 154 -17 175 -28 q 115 14 133 -6 q 86 66 98 35 q 75 138 75 97 q 78 187 75 159 q 86 247 81 215 q 97 311 91 278 q 108 376 103 345 q 116 432 113 406 q 120 474 120 457 q 117 499 120 490 q 112 513 115 508 q 103 518 108 517 q 92 520 98 520 q 75 517 86 520 q 54 512 65 515 q 27 504 42 508 l 16 549 q 82 577 45 562 q 155 605 120 592 q 219 626 191 618 q 260 635 248 635 q 287 622 280 635 q 294 578 294 609 q 289 526 294 558 q 279 457 285 495 q 267 380 273 420 q 254 303 260 340 q 244 234 248 265 q 240 183 240 202 q 251 124 240 144 q 275 105 262 105 q 304 114 287 105 q 345 144 322 124 q 394 196 367 164 q 451 274 421 229 q 460 330 455 302 q 469 385 465 359 q 476 435 473 412 q 480 474 480 458 q 478 499 480 490 q 473 513 476 508 q 465 518 469 517 q 454 520 461 520 q 438 517 448 520 q 419 512 429 515 q 395 504 408 508 l 383 549 q 448 577 412 562 q 519 605 484 592 q 581 626 553 618 q 621 635 609 635 q 646 622 640 635 q 653 578 653 609 q 651 546 653 563 q 713 588 691 564 q 736 643 736 611 q 733 657 736 649 q 727 674 731 666 q 716 691 723 683 q 699 704 710 698 l 854 779 q 880 749 871 768 q 889 714 889 729 m 576 904 q 567 874 576 888 q 544 846 558 859 q 514 822 531 834 q 484 799 498 810 q 461 777 471 788 q 452 755 452 766 q 459 740 452 747 q 481 723 465 733 q 466 716 476 719 q 446 710 457 713 q 426 705 436 707 q 412 703 416 703 q 374 731 385 718 q 363 756 363 744 q 372 776 363 766 q 396 796 382 786 q 426 815 410 805 q 456 836 442 825 q 479 861 470 847 q 488 890 488 874 q 480 919 488 908 q 450 930 472 930 q 429 924 438 930 q 414 911 420 919 q 406 893 408 902 q 407 876 405 883 q 390 870 403 874 q 363 862 377 866 q 335 854 348 858 q 316 850 322 851 l 310 858 q 323 904 309 882 q 360 944 337 927 q 412 971 383 961 q 474 982 442 982 q 522 975 502 982 q 554 958 542 969 q 571 933 566 947 q 576 904 576 919 "},"í":{"x_min":37.578125,"x_max":518.15625,"ha":385,"o":"m 364 74 q 299 36 333 55 q 235 4 266 18 q 177 -19 204 -10 q 132 -28 151 -28 q 92 -6 108 -28 q 77 51 77 14 q 81 106 77 71 q 93 182 86 140 q 108 268 100 223 q 123 353 116 313 q 135 425 130 394 q 140 474 140 457 q 137 499 140 490 q 132 513 135 508 q 123 518 129 517 q 112 520 118 520 q 96 517 106 520 q 75 512 85 515 q 49 504 63 508 l 37 549 q 102 577 66 562 q 172 605 137 592 q 234 626 206 618 q 274 635 262 635 q 304 622 293 635 q 315 577 315 609 q 310 523 315 558 q 297 445 305 488 q 282 357 290 403 q 266 269 273 311 q 253 191 258 226 q 249 137 249 156 q 253 106 249 116 q 269 97 257 97 q 288 98 279 97 q 307 102 297 99 q 327 109 316 105 q 352 119 337 113 l 364 74 m 518 927 l 261 691 q 238 703 250 693 q 216 724 225 713 l 375 995 l 401 990 q 440 982 419 986 q 478 974 460 978 q 502 967 496 969 l 518 927 "},"ʠ":{"x_min":26,"x_max":976.875,"ha":650,"o":"m 441 489 q 398 523 421 508 q 353 539 375 539 q 300 525 324 539 q 256 489 276 511 q 221 438 236 467 q 196 378 206 409 q 180 315 185 346 q 175 257 175 283 q 182 186 175 215 q 201 139 189 157 q 225 114 212 122 q 252 106 239 106 q 310 143 272 106 q 403 259 349 181 l 441 489 m 976 946 q 953 929 967 939 q 924 906 940 918 q 894 882 909 894 q 864 861 878 871 q 839 846 850 852 q 823 840 829 840 q 805 852 814 840 q 784 880 795 864 q 761 907 774 895 q 734 920 749 920 q 707 913 721 920 q 681 888 694 906 q 657 837 668 869 q 637 756 646 806 q 618 648 629 713 q 593 506 606 583 q 566 344 580 429 q 539 176 552 259 q 517 16 527 93 q 500 -121 506 -60 q 493 -224 494 -183 q 500 -277 493 -265 q 467 -289 490 -281 q 419 -307 445 -297 q 370 -326 393 -317 q 340 -339 348 -334 l 310 -314 q 322 -236 315 -282 q 339 -135 329 -190 q 358 -16 348 -80 q 379 113 368 46 q 273 6 320 41 q 182 -28 227 -28 q 130 -15 158 -28 q 79 25 103 -2 q 41 98 56 54 q 26 206 26 143 q 39 312 26 260 q 80 411 53 364 q 144 499 106 458 q 230 571 182 540 q 273 594 249 583 q 325 615 298 606 q 377 629 351 624 q 425 635 403 635 q 444 633 434 635 q 464 628 454 631 l 479 722 q 502 806 487 769 q 538 874 518 844 q 583 926 559 904 q 631 967 607 949 q 707 1012 667 994 q 793 1031 746 1031 q 850 1018 822 1031 q 900 990 877 1005 q 943 961 923 975 q 976 946 962 948 "},"ǜ":{"x_min":16.90625,"x_max":724.71875,"ha":747,"o":"m 724 71 q 670 35 697 53 q 617 3 642 17 q 569 -19 591 -10 q 531 -28 547 -28 q 501 -17 516 -28 q 472 13 485 -7 q 451 66 460 34 q 441 140 443 98 q 385 73 415 104 q 322 20 355 42 q 258 -15 290 -2 q 194 -28 225 -28 q 154 -17 175 -28 q 115 14 133 -6 q 86 66 98 35 q 75 138 75 97 q 78 187 75 159 q 86 247 81 215 q 97 311 91 278 q 108 376 103 345 q 116 432 113 406 q 120 474 120 457 q 117 499 120 490 q 112 513 115 508 q 103 518 108 517 q 92 520 98 520 q 75 517 86 520 q 54 512 65 515 q 27 504 42 508 l 16 549 q 82 577 45 562 q 155 605 120 592 q 219 626 191 618 q 260 635 248 635 q 287 622 280 635 q 294 577 294 609 q 289 526 294 558 q 279 457 285 494 q 267 380 273 420 q 254 302 260 339 q 244 233 248 265 q 240 182 240 201 q 251 123 240 143 q 275 104 262 104 q 304 113 287 104 q 345 143 322 123 q 394 196 367 163 q 451 273 421 228 q 460 330 455 301 q 469 385 465 358 q 476 435 473 412 q 480 474 480 458 q 478 499 480 490 q 473 512 476 508 q 465 518 469 517 q 454 520 461 520 q 438 517 448 520 q 419 511 429 515 q 395 503 408 508 l 383 549 q 448 577 412 562 q 519 605 484 592 q 581 626 553 618 q 621 635 609 635 q 646 622 640 635 q 653 577 653 609 q 649 529 653 558 q 640 466 645 499 q 628 396 634 432 q 616 325 622 359 q 607 260 611 291 q 604 207 604 230 q 613 121 604 145 q 639 97 622 97 q 672 101 657 97 q 712 115 688 105 l 724 71 m 400 861 q 393 817 400 840 q 371 777 385 795 q 337 746 358 758 q 292 735 317 735 q 244 755 260 735 q 228 802 228 775 q 236 845 228 822 q 257 886 243 867 q 291 917 271 904 q 336 930 311 930 q 365 924 353 930 q 384 908 377 918 q 396 886 392 899 q 400 861 400 874 m 662 861 q 655 817 662 840 q 633 777 647 795 q 599 746 620 758 q 554 735 579 735 q 506 755 522 735 q 490 802 490 775 q 498 845 490 822 q 519 886 505 867 q 553 917 533 904 q 598 930 573 930 q 626 924 614 930 q 646 908 639 918 q 658 886 654 899 q 662 861 662 874 m 532 981 q 503 966 518 973 q 475 957 487 959 l 280 1203 l 307 1238 q 335 1243 315 1239 q 377 1251 354 1247 q 419 1258 399 1255 q 448 1261 439 1261 l 532 981 "},"ṥ":{"x_min":-13.359375,"x_max":576.484375,"ha":533,"o":"m 534 572 q 507 538 522 556 q 478 504 493 519 q 452 477 464 488 q 433 467 439 467 q 408 481 422 467 q 379 512 395 495 q 342 542 362 528 q 298 557 322 557 q 240 537 260 557 q 221 485 221 518 q 248 430 221 453 q 331 378 276 406 q 385 347 358 364 q 433 308 412 330 q 468 259 455 287 q 481 195 481 231 q 467 135 481 164 q 432 82 454 106 q 380 37 409 57 q 318 2 350 16 q 253 -20 286 -12 q 190 -28 219 -28 q 110 -17 147 -28 q 45 9 72 -6 q 2 43 17 25 q -13 76 -13 62 q -3 106 -13 85 q 19 148 6 127 q 45 186 32 170 q 66 202 58 202 q 78 191 72 202 q 94 164 85 180 q 116 129 103 148 q 145 94 129 110 q 184 67 162 78 q 234 57 206 57 q 305 81 279 57 q 331 145 331 106 q 319 188 331 169 q 288 225 307 208 q 245 257 269 243 q 195 285 220 272 q 135 322 159 303 q 98 360 112 340 q 78 400 84 379 q 73 442 73 421 q 98 520 73 485 q 161 581 123 556 q 245 621 199 607 q 334 635 291 635 q 398 626 370 635 q 449 607 426 617 q 493 586 473 596 q 534 572 513 576 m 576 927 l 320 691 q 296 703 309 693 q 274 724 284 713 l 433 995 l 459 990 q 498 982 478 986 q 536 974 518 978 q 560 967 554 969 l 576 927 m 432 1102 q 424 1058 432 1081 q 403 1017 417 1036 q 369 987 389 999 q 324 975 349 975 q 276 996 292 975 q 261 1043 261 1016 q 268 1085 261 1063 q 290 1126 276 1108 q 323 1158 304 1145 q 368 1170 343 1170 q 396 1164 384 1170 q 416 1149 408 1159 q 428 1127 424 1140 q 432 1102 432 1115 "},"µ":{"x_min":-5.4375,"x_max":744.265625,"ha":754,"o":"m 744 145 q 684 60 713 94 q 628 7 655 27 q 579 -20 602 -12 q 536 -28 555 -28 q 503 -14 518 -28 q 477 21 488 -1 q 459 74 465 44 q 451 138 452 104 q 356 15 404 58 q 258 -28 308 -28 q 191 -4 222 -28 q 138 60 160 19 q 137 -62 130 -7 q 157 -160 145 -118 q 183 -228 170 -202 q 199 -264 195 -255 q 178 -272 192 -267 q 146 -285 164 -278 q 109 -301 128 -292 q 72 -316 89 -309 q 41 -330 54 -324 q 22 -339 27 -336 l -5 -314 q 7 -227 0 -276 q 24 -124 14 -178 q 43 -11 33 -69 q 63 103 53 46 q 82 214 73 160 q 99 312 91 267 q 111 397 104 356 q 118 474 118 438 q 115 499 118 490 q 110 513 113 508 q 101 519 106 517 q 91 520 96 520 q 74 518 84 520 q 52 512 63 515 q 27 504 40 508 l 17 549 q 60 567 36 558 q 109 586 84 577 q 160 605 134 596 q 206 620 185 613 q 241 630 226 626 q 262 635 256 635 q 287 622 281 635 q 294 577 294 609 q 290 530 294 558 q 282 470 287 501 q 272 404 277 438 q 261 338 266 370 q 253 280 256 307 q 250 235 250 253 q 266 149 250 178 q 306 121 282 121 q 335 129 319 121 q 370 156 351 137 q 414 208 390 176 q 465 292 437 241 q 475 351 470 321 q 485 408 480 381 q 492 457 489 435 q 495 495 495 480 q 492 539 495 516 q 483 574 490 561 q 519 587 495 579 q 571 605 544 596 q 623 623 598 615 q 662 635 648 631 q 674 618 668 627 q 681 603 679 609 q 671 551 677 584 q 656 481 664 519 q 640 401 648 443 q 626 320 633 359 q 616 248 620 281 q 612 192 612 214 q 619 132 612 149 q 637 116 626 116 q 670 130 650 116 q 720 185 690 144 l 744 145 "},"ỳ":{"x_min":-133.140625,"x_max":651,"ha":664,"o":"m 651 583 q 633 512 651 560 q 583 396 615 464 q 506 241 551 327 q 409 55 462 155 q 316 -104 362 -31 q 223 -229 271 -176 q 123 -310 175 -281 q 11 -339 71 -339 q -40 -332 -15 -339 q -87 -316 -66 -326 q -120 -296 -107 -307 q -133 -279 -133 -286 q -121 -249 -133 -269 q -95 -208 -110 -229 q -64 -170 -80 -187 q -38 -148 -48 -153 q 26 -193 -6 -178 q 83 -208 58 -208 q 163 -167 122 -208 q 250 -53 203 -127 q 232 35 242 -13 q 210 134 222 83 q 184 234 197 184 q 158 329 171 285 q 133 408 145 373 q 111 464 121 443 q 85 509 96 499 q 62 520 74 520 q 45 518 56 520 q 23 512 34 515 q -3 504 10 508 l -17 549 q 45 579 13 564 q 107 607 78 594 q 159 627 136 619 q 194 635 182 635 q 227 615 213 635 q 258 548 241 595 q 283 470 270 514 q 311 374 297 426 q 338 268 325 323 q 364 156 352 212 q 417 265 392 211 q 460 365 442 319 q 490 445 479 411 q 501 495 501 479 q 465 531 501 529 q 440 529 453 533 q 408 516 428 525 l 391 561 q 443 589 415 575 q 498 612 471 602 q 549 628 525 622 q 590 635 573 635 q 612 633 601 635 q 632 626 623 631 q 645 610 640 620 q 651 583 651 600 m 473 715 q 444 700 459 707 q 416 691 428 693 l 221 937 l 248 971 q 276 977 256 973 q 318 984 295 980 q 360 991 340 988 q 389 995 380 995 l 473 715 "},"Ḟ":{"x_min":-5.421875,"x_max":692.46875,"ha":646,"o":"m 552 475 q 536 450 545 463 q 517 424 526 436 q 498 402 507 412 q 482 386 489 392 q 462 403 473 396 q 438 415 452 411 q 404 421 423 419 q 360 424 385 424 l 295 424 l 250 90 q 254 82 249 86 q 269 72 258 77 q 301 61 281 67 q 350 49 320 55 l 343 0 l -5 0 l 1 49 q 68 70 45 59 q 93 90 92 81 l 185 763 q 168 783 187 771 q 105 805 149 795 l 111 855 l 672 855 l 692 833 q 683 789 689 815 q 670 735 677 763 q 655 682 663 707 q 642 645 648 658 l 594 645 q 592 741 600 708 q 560 774 583 774 l 343 774 l 305 499 l 533 499 l 552 475 m 506 1052 q 498 1009 506 1032 q 477 968 491 987 q 443 937 463 949 q 398 926 423 926 q 350 946 365 926 q 335 993 335 967 q 342 1036 335 1014 q 364 1077 350 1058 q 397 1108 378 1096 q 442 1121 417 1121 q 470 1115 458 1121 q 490 1099 482 1109 q 502 1078 498 1090 q 506 1052 506 1066 "},"M":{"x_min":4.0625,"x_max":1112.96875,"ha":1089,"o":"m 1106 805 q 1069 800 1091 805 q 1023 786 1047 795 l 937 90 q 957 70 935 82 q 1023 49 978 59 l 1016 0 l 690 0 l 697 49 q 767 70 740 59 q 794 90 793 81 l 863 648 l 508 0 l 449 0 l 273 647 l 191 90 q 209 70 190 82 q 272 49 228 59 l 266 0 l 4 0 l 10 49 q 78 70 54 59 q 102 90 101 81 l 203 782 q 161 800 183 795 q 120 805 139 805 l 127 855 l 345 855 q 356 852 351 855 q 364 844 360 850 q 373 827 368 838 q 382 798 377 816 l 537 233 l 847 798 q 865 828 857 817 q 878 845 872 840 q 889 853 884 851 q 900 855 894 855 l 1112 855 l 1106 805 "},"Ḏ":{"x_min":-5.078125,"x_max":802,"ha":819,"o":"m 388 804 q 367 802 378 804 q 347 801 357 801 l 253 110 q 269 81 251 90 q 339 73 287 73 q 425 90 386 73 q 498 139 465 108 q 555 211 530 170 q 597 299 580 252 q 622 396 614 346 q 631 493 631 446 q 617 623 631 566 q 574 721 603 681 q 498 782 544 761 q 388 804 452 804 m 802 510 q 787 390 802 451 q 746 272 773 328 q 679 165 719 215 q 590 79 640 115 q 478 21 539 42 q 346 0 417 0 l -5 0 l 1 49 q 67 70 44 59 q 91 90 90 81 l 188 786 l 92 772 l 92 835 q 173 852 131 845 q 259 864 216 859 q 342 872 302 869 q 418 875 383 875 q 589 849 516 875 q 708 776 661 824 q 778 662 755 729 q 802 510 802 594 m 602 -144 q 594 -163 600 -151 q 581 -187 588 -175 q 568 -211 574 -200 q 558 -228 561 -222 l 79 -228 l 63 -206 q 71 -188 65 -200 q 83 -164 76 -177 q 96 -140 90 -151 q 106 -122 102 -128 l 584 -122 l 602 -144 "},"ũ":{"x_min":16.90625,"x_max":724.71875,"ha":747,"o":"m 724 71 q 670 35 697 53 q 617 3 642 17 q 569 -19 591 -10 q 531 -28 547 -28 q 501 -17 516 -28 q 472 13 485 -7 q 451 66 460 34 q 441 140 443 98 q 385 73 415 104 q 322 20 355 42 q 258 -15 290 -2 q 194 -28 225 -28 q 154 -17 175 -28 q 115 14 133 -6 q 86 66 98 35 q 75 138 75 97 q 78 187 75 159 q 86 247 81 215 q 97 311 91 278 q 108 376 103 345 q 116 432 113 406 q 120 474 120 457 q 117 499 120 490 q 112 513 115 508 q 103 518 108 517 q 92 520 98 520 q 75 517 86 520 q 54 512 65 515 q 27 504 42 508 l 16 549 q 82 577 45 562 q 155 605 120 592 q 219 626 191 618 q 260 635 248 635 q 287 622 280 635 q 294 577 294 609 q 289 526 294 558 q 279 457 285 494 q 267 380 273 420 q 254 302 260 339 q 244 233 248 265 q 240 182 240 201 q 251 123 240 143 q 275 104 262 104 q 304 113 287 104 q 345 143 322 123 q 394 196 367 163 q 451 273 421 228 q 460 330 455 301 q 469 385 465 358 q 476 435 473 412 q 480 474 480 458 q 478 499 480 490 q 473 512 476 508 q 465 518 469 517 q 454 520 461 520 q 438 517 448 520 q 419 511 429 515 q 395 503 408 508 l 383 549 q 448 577 412 562 q 519 605 484 592 q 581 626 553 618 q 621 635 609 635 q 646 622 640 635 q 653 577 653 609 q 649 529 653 558 q 640 466 645 499 q 628 396 634 432 q 616 325 622 359 q 607 260 611 291 q 604 207 604 230 q 613 121 604 145 q 639 97 622 97 q 672 101 657 97 q 712 115 688 105 l 724 71 m 695 910 q 673 871 686 892 q 646 829 661 850 q 615 788 632 808 q 581 754 599 769 q 544 730 563 739 q 505 722 525 722 q 456 732 478 722 q 412 756 433 743 q 369 780 390 769 q 324 792 347 792 q 298 786 309 792 q 274 772 286 781 q 249 748 262 762 q 223 715 237 733 l 179 733 q 214 794 193 761 q 260 856 235 827 q 312 904 284 885 q 369 924 340 924 q 422 912 398 924 q 468 888 446 901 q 509 864 489 875 q 549 853 529 853 q 600 872 577 853 q 651 931 623 891 l 695 910 "},"ŭ":{"x_min":16.90625,"x_max":724.71875,"ha":747,"o":"m 724 71 q 670 35 697 53 q 617 3 642 17 q 569 -19 591 -10 q 531 -28 547 -28 q 501 -17 516 -28 q 472 13 485 -7 q 451 66 460 34 q 441 140 443 98 q 385 73 415 104 q 322 20 355 42 q 258 -15 290 -2 q 194 -28 225 -28 q 154 -17 175 -28 q 115 14 133 -6 q 86 66 98 35 q 75 138 75 97 q 78 187 75 159 q 86 247 81 215 q 97 311 91 278 q 108 376 103 345 q 116 432 113 406 q 120 474 120 457 q 117 499 120 490 q 112 513 115 508 q 103 518 108 517 q 92 520 98 520 q 75 517 86 520 q 54 512 65 515 q 27 504 42 508 l 16 549 q 82 577 45 562 q 155 605 120 592 q 219 626 191 618 q 260 635 248 635 q 287 622 280 635 q 294 577 294 609 q 289 526 294 558 q 279 457 285 494 q 267 380 273 420 q 254 302 260 339 q 244 233 248 265 q 240 182 240 201 q 251 123 240 143 q 275 104 262 104 q 304 113 287 104 q 345 143 322 123 q 394 196 367 163 q 451 273 421 228 q 460 330 455 301 q 469 385 465 358 q 476 435 473 412 q 480 474 480 458 q 478 499 480 490 q 473 512 476 508 q 465 518 469 517 q 454 520 461 520 q 438 517 448 520 q 419 511 429 515 q 395 503 408 508 l 383 549 q 448 577 412 562 q 519 605 484 592 q 581 626 553 618 q 621 635 609 635 q 646 622 640 635 q 653 577 653 609 q 649 529 653 558 q 640 466 645 499 q 628 396 634 432 q 616 325 622 359 q 607 260 611 291 q 604 207 604 230 q 613 121 604 145 q 639 97 622 97 q 672 101 657 97 q 712 115 688 105 l 724 71 m 677 905 q 620 812 652 850 q 556 751 589 774 q 490 717 522 728 q 430 707 457 707 q 370 717 400 707 q 314 751 340 728 q 266 813 287 775 q 234 905 246 851 q 246 918 239 911 q 260 932 252 925 q 274 945 267 940 q 286 955 281 951 q 314 898 297 920 q 353 861 332 875 q 396 841 374 847 q 438 835 419 835 q 485 841 459 835 q 538 861 512 847 q 589 898 564 875 q 632 955 613 920 q 643 946 637 951 q 656 933 649 940 q 668 918 662 926 q 677 905 674 911 "},"{":{"x_min":69.171875,"x_max":534.4375,"ha":467,"o":"m 534 1032 q 484 996 507 1016 q 443 955 461 977 q 414 908 425 933 q 398 859 402 884 q 394 795 394 823 q 395 742 394 768 q 397 688 396 716 q 392 625 397 661 q 375 569 388 597 q 343 518 362 542 q 298 474 323 494 q 244 442 272 454 q 329 383 305 430 q 341 260 352 336 q 328 193 337 224 q 311 132 320 161 q 295 76 303 104 q 283 18 287 48 q 280 -31 279 -9 q 289 -74 280 -54 q 315 -113 297 -95 q 364 -152 333 -132 l 332 -214 q 235 -167 277 -190 q 166 -113 193 -143 q 128 -47 139 -84 q 124 38 118 -10 q 137 103 129 74 q 153 159 145 131 q 170 217 162 187 q 184 285 179 247 q 172 363 191 340 q 113 387 153 387 l 101 387 q 93 386 96 387 q 85 385 90 386 q 72 382 81 384 l 69 439 q 180 497 143 460 q 225 585 218 534 q 230 649 230 622 q 229 702 230 676 q 227 754 227 727 q 232 820 227 782 q 262 904 238 865 q 324 975 286 943 q 411 1035 362 1008 q 516 1085 459 1061 l 534 1032 "},"¼":{"x_min":48.15625,"x_max":811.828125,"ha":803,"o":"m 619 318 l 487 156 l 594 156 l 619 318 m 733 145 q 713 124 725 135 q 692 109 701 114 l 671 109 l 661 44 q 669 35 660 40 q 706 25 678 31 l 703 0 l 496 0 l 500 25 q 539 31 524 28 q 562 37 554 34 q 574 42 571 40 q 577 48 577 45 l 587 109 l 418 109 l 405 121 l 617 379 q 637 385 626 382 q 659 392 648 389 q 682 399 671 396 q 701 405 693 402 l 715 391 l 678 156 l 726 156 l 733 145 m 86 432 l 90 460 q 138 467 119 463 q 168 474 157 471 q 184 482 179 478 q 189 490 189 486 l 227 727 q 229 747 229 740 q 225 759 229 754 q 203 763 222 763 q 135 754 183 763 l 130 782 q 171 792 145 785 q 225 807 198 799 q 278 824 252 816 q 316 838 303 832 l 330 823 l 278 490 q 280 482 277 486 q 292 475 283 479 q 318 467 301 471 q 360 460 334 463 l 356 432 l 86 432 m 145 2 q 126 -5 137 -2 q 104 -10 115 -8 q 80 -15 92 -13 q 60 -20 69 -18 l 48 0 l 716 816 q 733 822 722 819 q 756 828 744 825 q 780 833 769 831 q 798 838 791 836 l 811 819 l 145 2 "},"Ḿ":{"x_min":4.0625,"x_max":1112.96875,"ha":1089,"o":"m 1106 805 q 1069 800 1091 805 q 1023 786 1047 795 l 937 90 q 957 70 935 82 q 1023 49 978 59 l 1016 0 l 690 0 l 697 49 q 767 70 740 59 q 794 90 793 81 l 863 648 l 508 0 l 449 0 l 273 647 l 191 90 q 209 70 190 82 q 272 49 228 59 l 266 0 l 4 0 l 10 49 q 78 70 54 59 q 102 90 101 81 l 203 782 q 161 800 183 795 q 120 805 139 805 l 127 855 l 345 855 q 356 852 351 855 q 364 844 360 850 q 373 827 368 838 q 382 798 377 816 l 537 233 l 847 798 q 865 828 857 817 q 878 845 872 840 q 889 853 884 851 q 900 855 894 855 l 1112 855 l 1106 805 m 874 1068 l 554 908 q 536 927 545 914 q 522 954 528 941 l 762 1174 q 791 1158 775 1167 q 822 1141 807 1150 q 851 1124 838 1132 q 874 1110 865 1116 l 874 1068 "},"Ĳ":{"x_min":8.8125,"x_max":901.359375,"ha":861,"o":"m 448 805 q 381 784 404 795 q 356 763 357 772 l 263 90 q 281 70 262 82 q 344 49 299 59 l 337 0 l 8 0 l 15 49 q 82 70 58 59 q 107 90 105 81 l 198 763 q 181 783 200 771 q 118 805 162 795 l 125 855 l 455 855 l 448 805 m 893 805 q 826 784 850 795 q 800 763 802 772 l 716 138 q 685 9 706 62 q 636 -82 663 -44 q 579 -147 609 -121 q 522 -196 550 -174 q 480 -223 503 -210 q 430 -247 456 -237 q 379 -263 404 -257 q 333 -269 354 -269 q 284 -261 308 -269 q 241 -244 260 -254 q 210 -223 222 -234 q 198 -204 198 -212 q 205 -189 198 -199 q 224 -167 212 -180 q 248 -143 235 -155 q 275 -120 262 -130 q 299 -102 288 -109 q 316 -95 310 -95 q 333 -105 322 -95 q 357 -125 343 -114 q 388 -145 370 -136 q 426 -155 405 -155 q 460 -146 442 -155 q 494 -112 478 -138 q 526 -37 511 -86 q 552 90 541 10 l 644 763 q 640 772 645 767 q 624 782 636 776 q 590 793 612 787 q 531 805 568 799 l 538 855 l 901 855 l 893 805 "},"Ê":{"x_min":-5.421875,"x_max":687.71875,"ha":684,"o":"m 642 205 q 627 144 635 176 q 612 83 619 112 q 598 32 604 54 q 588 0 592 10 l -5 0 l 1 49 q 68 70 45 59 q 93 90 92 81 l 185 763 q 168 783 187 771 q 105 805 149 795 l 111 855 l 666 855 l 687 833 q 678 789 684 815 q 664 735 672 763 q 649 682 657 707 q 636 645 642 658 l 589 645 q 586 741 594 708 q 554 774 578 774 l 343 774 l 305 499 l 556 499 l 574 475 q 559 452 568 465 q 540 427 550 439 q 521 403 531 414 q 504 386 512 392 q 485 403 495 396 q 460 415 474 411 q 424 421 445 419 q 374 424 403 424 l 295 424 l 255 124 q 257 106 253 114 q 273 92 260 98 q 311 84 286 87 q 377 81 336 81 l 440 81 q 490 88 468 81 q 529 112 511 95 q 562 156 546 129 q 598 223 579 183 l 642 205 m 640 948 q 621 924 631 935 q 600 908 611 913 l 441 1026 l 253 908 q 237 923 247 912 q 221 948 227 935 l 417 1158 l 500 1158 l 640 948 "},")":{"x_min":-65.109375,"x_max":379.203125,"ha":429,"o":"m 368 430 q 317 219 353 319 q 227 35 280 119 q 107 -111 174 -47 q -39 -214 39 -175 l -65 -163 q 21 -72 -19 -125 q 96 51 62 -19 q 157 211 131 122 q 199 410 183 300 q 215 599 213 508 q 206 771 217 691 q 169 918 195 851 q 103 1037 144 986 l 143 1088 q 260 979 210 1047 q 339 826 309 912 q 376 639 368 740 q 368 430 384 538 "},"Ṽ":{"x_min":84.09375,"x_max":916.953125,"ha":845,"o":"m 910 805 q 840 788 865 796 q 806 760 815 779 l 474 55 q 451 28 467 41 q 416 6 435 16 q 376 -9 396 -3 q 340 -20 356 -15 l 162 760 q 140 789 158 778 q 84 805 123 800 l 90 855 l 411 855 l 404 805 q 336 791 354 801 q 323 762 318 781 l 448 192 l 713 760 q 706 789 722 780 q 639 805 689 798 l 646 855 l 916 855 l 910 805 m 777 1106 q 755 1067 767 1088 q 728 1025 742 1046 q 697 984 713 1004 q 662 950 680 965 q 625 926 644 935 q 587 918 607 918 q 537 928 560 918 q 493 952 514 939 q 450 976 472 965 q 405 988 429 988 q 379 982 391 988 q 355 968 367 977 q 331 944 343 958 q 304 911 318 929 l 260 930 q 296 990 275 957 q 341 1052 316 1023 q 393 1100 365 1081 q 450 1120 421 1120 q 503 1108 479 1120 q 549 1084 527 1097 q 590 1060 570 1071 q 630 1049 609 1049 q 681 1068 658 1049 q 731 1127 705 1087 l 777 1106 "},"a":{"x_min":26,"x_max":665.359375,"ha":669,"o":"m 396 256 q 405 317 400 284 q 415 381 410 349 q 425 442 420 413 q 433 492 429 470 q 392 524 414 510 q 349 539 370 539 q 297 524 321 538 q 255 488 273 511 q 222 437 236 466 q 198 377 207 408 q 184 314 189 345 q 180 256 180 283 q 185 190 180 218 q 200 142 190 161 q 221 114 209 124 q 245 105 232 105 q 307 143 267 105 q 396 256 346 182 m 665 71 q 608 33 636 51 q 556 1 580 15 q 512 -20 531 -12 q 480 -28 492 -28 q 454 -20 469 -28 q 426 5 439 -13 q 402 55 413 24 q 389 134 392 86 q 342 75 367 104 q 291 22 317 45 q 236 -14 264 0 q 181 -28 208 -28 q 129 -15 156 -28 q 79 25 102 -2 q 41 98 56 54 q 26 206 26 143 q 39 311 26 260 q 78 409 53 362 q 142 497 104 456 q 227 571 179 538 q 268 594 245 583 q 315 615 290 606 q 368 629 340 624 q 424 635 395 635 q 480 622 453 635 q 531 594 507 609 q 577 615 554 605 q 619 635 600 625 l 640 590 q 621 573 628 581 q 608 556 613 566 q 598 532 602 546 q 589 495 594 518 q 571 400 579 446 q 557 316 562 354 q 548 248 551 277 q 546 204 546 219 q 556 127 546 157 q 581 97 566 97 q 611 100 595 97 q 654 115 627 104 l 665 71 "},"Ɲ":{"x_min":-238.0625,"x_max":915.59375,"ha":850,"o":"m 909 805 q 841 786 862 798 q 817 763 819 773 l 710 -20 q 616 4 651 -15 q 567 54 582 23 q 496 185 534 113 q 418 331 458 256 q 339 480 379 405 q 262 622 299 555 l 200 167 q 172 15 188 76 q 136 -88 155 -46 q 92 -157 116 -129 q 42 -205 69 -184 q -41 -253 2 -237 q -124 -269 -85 -269 q -165 -262 -145 -269 q -202 -246 -185 -256 q -228 -225 -218 -236 q -238 -203 -238 -213 q -231 -189 -238 -198 q -213 -167 -224 -179 q -190 -142 -203 -155 q -165 -119 -177 -130 q -141 -102 -152 -109 q -122 -95 -129 -95 q -107 -107 -115 -98 q -87 -127 -99 -117 q -60 -145 -75 -137 q -25 -154 -45 -154 q 7 -145 -10 -154 q 41 -107 24 -136 q 73 -24 57 -78 q 101 118 88 29 l 188 756 q 151 790 172 780 q 107 805 130 801 l 113 855 l 286 855 q 304 853 297 855 q 316 846 310 852 q 327 830 322 841 q 343 802 333 820 l 650 223 l 724 763 q 721 773 725 767 q 709 784 718 779 q 684 795 700 790 q 644 805 668 801 l 650 855 l 915 855 l 909 805 "},"Z":{"x_min":10.859375,"x_max":733.15625,"ha":722,"o":"m 216 88 l 503 88 q 529 98 517 88 q 554 129 541 108 q 581 181 567 150 q 613 255 595 213 l 665 241 q 655 186 661 218 q 643 118 649 153 q 632 51 638 83 q 624 0 627 19 l 28 0 l 10 35 l 531 768 l 285 768 q 261 756 275 768 q 231 723 246 744 q 200 673 215 702 q 173 607 185 643 l 120 620 l 177 867 q 208 860 194 862 q 235 856 221 857 q 262 855 248 855 q 295 855 277 855 l 717 855 l 733 820 l 216 88 "},"":{"x_min":26,"x_max":771.703125,"ha":656,"o":"m 252 106 q 276 114 262 106 q 309 141 290 122 q 351 189 328 160 q 404 261 375 219 l 441 491 q 396 525 418 511 q 353 539 375 539 q 300 525 324 539 q 256 489 276 511 q 221 438 236 467 q 196 378 206 409 q 180 315 185 346 q 175 257 175 283 q 181 195 175 223 q 197 147 187 167 q 222 116 208 127 q 252 106 236 106 m 644 590 q 624 573 633 581 q 610 556 616 566 q 598 532 603 546 q 589 495 594 518 q 579 432 586 476 q 563 330 572 388 q 545 208 555 273 q 528 80 536 142 q 516 -34 521 18 q 512 -121 512 -88 q 525 -207 512 -178 q 566 -237 538 -237 q 599 -221 585 -237 q 613 -180 613 -205 q 608 -153 613 -167 q 598 -129 604 -140 q 630 -111 610 -121 q 672 -93 650 -102 q 716 -77 694 -84 q 754 -66 737 -70 l 771 -105 q 765 -136 771 -119 q 748 -172 759 -154 q 721 -209 737 -190 q 686 -246 705 -228 q 650 -273 674 -257 q 596 -303 626 -289 q 532 -328 566 -318 q 464 -339 498 -339 q 416 -322 436 -339 q 382 -279 395 -305 q 363 -219 369 -252 q 357 -152 357 -185 q 358 -82 357 -115 q 363 -14 359 -49 q 371 57 366 20 q 383 137 375 94 q 279 14 330 56 q 182 -28 229 -28 q 133 -15 160 -28 q 81 25 106 -2 q 41 98 57 54 q 26 206 26 143 q 39 312 26 260 q 80 411 53 364 q 144 499 106 458 q 230 571 181 540 q 272 594 249 583 q 321 615 295 606 q 373 629 346 624 q 425 635 400 635 q 454 630 440 635 q 483 620 469 626 q 509 607 497 614 q 533 592 522 599 q 580 616 556 604 q 621 635 603 627 l 644 590 "},"k":{"x_min":47.5,"x_max":690.625,"ha":681,"o":"m 349 961 q 344 895 349 934 q 334 807 340 855 q 319 704 327 759 q 300 591 310 649 q 281 473 291 533 q 262 358 271 414 l 377 444 q 452 502 424 479 q 487 539 481 525 q 479 558 494 553 q 424 562 463 563 l 418 608 q 527 623 473 616 q 624 631 581 631 q 677 619 664 631 q 690 584 690 607 q 676 556 690 574 q 633 515 661 538 q 565 463 605 491 q 474 404 525 435 l 389 352 q 422 307 406 333 q 454 252 439 281 q 485 196 470 224 q 514 147 500 169 q 542 111 528 125 q 569 98 556 98 q 608 102 585 98 q 657 120 631 106 l 679 77 q 630 39 656 58 q 580 6 605 21 q 532 -16 554 -7 q 495 -26 510 -26 q 450 -5 472 -26 q 408 46 429 14 q 368 117 388 78 q 329 196 348 157 q 292 269 310 235 q 257 324 274 303 q 243 228 249 273 q 233 146 237 182 q 229 83 230 109 q 233 43 229 56 q 201 28 223 39 q 153 7 179 18 q 106 -13 128 -3 q 76 -28 84 -23 l 47 -2 q 56 59 50 17 q 73 159 63 102 q 93 284 82 216 q 116 422 105 351 q 138 561 127 493 q 156 690 148 630 q 169 797 164 750 q 175 870 175 844 q 172 896 175 887 q 166 910 170 906 q 156 916 162 915 q 142 917 150 917 q 125 914 137 917 q 102 908 113 911 q 73 899 88 904 l 61 946 q 127 973 90 959 q 201 1001 165 988 q 267 1022 237 1014 q 308 1031 296 1031 q 325 1028 318 1031 q 338 1019 333 1026 q 346 998 343 1012 q 349 961 349 984 "},"Ù":{"x_min":110,"x_max":905.34375,"ha":860,"o":"m 898 805 q 834 784 855 795 q 812 763 813 772 l 753 347 q 708 189 741 258 q 628 73 676 120 q 522 3 581 27 q 395 -21 462 -21 q 289 -4 339 -21 q 201 45 239 12 q 141 125 163 78 q 119 236 119 173 q 125 314 119 272 l 188 763 q 171 783 190 771 q 110 805 153 795 l 116 855 l 442 855 l 435 805 q 368 784 392 795 q 343 763 345 772 l 284 346 q 279 306 281 326 q 278 269 278 287 q 319 126 278 174 q 445 79 360 79 q 522 97 489 79 q 579 147 556 115 q 618 223 603 180 q 639 318 632 267 l 701 763 q 698 772 702 767 q 686 783 695 778 q 662 794 677 789 q 625 805 647 800 l 632 855 l 905 855 l 898 805 m 634 954 q 614 927 625 941 q 592 908 603 914 l 305 1068 l 316 1110 q 345 1127 327 1117 q 381 1145 362 1136 q 416 1162 400 1155 q 442 1174 433 1169 l 634 954 "},"Ů":{"x_min":110,"x_max":905.34375,"ha":860,"o":"m 898 805 q 834 784 855 795 q 812 763 813 772 l 753 347 q 708 189 741 258 q 628 73 676 120 q 522 3 581 27 q 395 -21 462 -21 q 289 -4 339 -21 q 201 45 239 12 q 141 125 163 78 q 119 236 119 173 q 125 314 119 272 l 188 763 q 171 783 190 771 q 110 805 153 795 l 116 855 l 442 855 l 435 805 q 368 784 392 795 q 343 763 345 772 l 284 346 q 279 306 281 326 q 278 269 278 287 q 319 126 278 174 q 445 79 360 79 q 522 97 489 79 q 579 147 556 115 q 618 223 603 180 q 639 318 632 267 l 701 763 q 698 772 702 767 q 686 783 695 778 q 662 794 677 789 q 625 805 647 800 l 632 855 l 905 855 l 898 805 m 589 1073 q 579 1107 589 1094 q 555 1120 570 1120 q 531 1113 542 1120 q 512 1095 520 1107 q 500 1070 505 1084 q 496 1039 496 1055 q 506 1005 496 1018 q 532 992 516 991 q 554 998 543 992 q 572 1016 564 1005 q 584 1042 580 1027 q 589 1073 589 1057 m 679 1099 q 666 1036 679 1069 q 629 976 652 1003 q 575 930 606 948 q 507 912 543 912 q 465 920 483 912 q 435 942 447 928 q 417 974 423 956 q 411 1010 411 991 q 424 1076 411 1042 q 459 1138 437 1110 q 512 1184 482 1166 q 579 1202 543 1202 q 621 1193 602 1202 q 652 1171 639 1185 q 672 1138 665 1157 q 679 1099 679 1120 "},"¢":{"x_min":61,"x_max":647.671875,"ha":632,"o":"m 216 346 q 235 245 216 283 q 283 191 255 207 l 341 615 q 288 573 312 601 q 249 506 265 544 q 224 427 232 469 q 216 346 216 385 m 431 715 q 443 715 437 715 q 455 716 449 716 q 516 704 487 716 q 568 679 544 693 q 613 651 593 665 q 647 635 633 638 q 628 616 639 628 q 603 591 616 604 q 576 563 590 577 q 550 538 562 549 q 527 520 537 527 q 509 513 516 513 q 493 525 502 513 q 474 555 484 538 q 449 589 463 572 q 418 616 436 607 l 358 180 q 395 192 376 183 q 435 216 414 201 q 482 250 457 230 q 538 296 507 270 q 546 285 541 292 q 556 270 551 278 q 566 256 562 263 q 572 246 571 249 q 502 184 533 211 q 443 138 470 158 q 392 105 417 118 q 345 85 368 93 l 333 3 q 302 -17 321 -7 q 267 -33 283 -27 l 254 -18 l 267 75 q 225 80 248 75 q 179 97 202 85 q 135 126 156 108 q 97 172 113 145 q 70 235 80 199 q 61 319 61 271 q 73 411 61 364 q 111 501 86 457 q 174 586 136 545 q 262 659 212 626 q 304 683 282 672 q 354 700 327 693 l 366 789 q 398 810 383 801 q 431 825 412 819 l 444 809 l 431 715 "},"Ɂ":{"x_min":77.546875,"x_max":651.265625,"ha":640,"o":"m 109 0 l 116 49 q 193 69 170 59 q 217 90 216 79 l 242 274 q 268 358 249 323 q 313 419 288 392 q 367 467 339 445 q 420 511 395 488 q 463 559 444 533 q 486 623 481 586 q 467 749 497 707 q 376 790 438 791 q 328 778 350 789 q 290 749 307 767 q 263 707 274 731 q 249 657 252 684 q 247 626 247 642 q 252 599 247 611 q 220 588 241 593 q 175 577 199 582 q 128 568 151 572 q 92 563 105 564 l 78 583 q 77 602 77 589 q 79 625 78 615 q 113 717 85 672 q 187 798 141 762 q 295 854 233 833 q 430 875 356 875 q 539 859 495 875 q 610 814 583 843 q 646 745 636 785 q 648 657 655 705 q 622 574 641 607 q 577 516 602 540 q 523 472 552 491 q 469 432 494 453 q 425 385 444 411 q 402 318 407 358 l 370 90 q 390 69 368 80 q 461 49 412 59 l 455 0 l 109 0 "},"ē":{"x_min":33,"x_max":668.734375,"ha":587,"o":"m 270 499 q 215 410 237 460 q 191 295 194 360 q 297 349 258 324 q 357 395 337 373 q 383 437 377 417 q 390 480 390 457 q 376 527 390 511 q 343 543 362 543 q 329 540 337 543 q 310 531 320 537 q 289 518 299 526 q 270 499 279 510 m 560 515 q 555 475 560 496 q 537 431 551 454 q 500 382 524 408 q 434 330 475 357 q 334 275 393 303 q 194 217 276 246 q 208 158 198 184 q 230 114 217 132 q 259 86 244 96 q 292 77 275 77 q 376 103 321 77 q 513 195 431 129 q 522 186 517 193 q 531 172 527 180 q 539 157 536 164 q 544 147 543 150 q 443 65 489 99 q 360 11 398 32 q 290 -18 322 -9 q 227 -28 258 -28 q 166 -15 200 -28 q 102 24 132 -2 q 53 96 73 52 q 33 205 33 140 q 45 306 33 258 q 82 399 58 355 q 140 483 106 443 q 217 559 174 523 q 254 585 232 571 q 302 609 277 598 q 356 627 328 620 q 410 635 384 635 q 477 624 449 635 q 524 596 505 613 q 551 558 542 580 q 560 515 560 537 m 668 869 q 660 849 666 861 q 647 825 654 838 q 634 801 640 812 q 624 785 628 790 l 145 785 l 129 806 q 137 825 132 813 q 149 848 143 836 q 162 872 156 861 q 172 891 168 884 l 651 891 l 668 869 "},"Ẹ":{"x_min":-5.421875,"x_max":687.71875,"ha":684,"o":"m 642 205 q 627 144 635 176 q 612 83 619 112 q 598 32 604 54 q 588 0 592 10 l -5 0 l 1 49 q 68 70 45 59 q 93 90 92 81 l 185 763 q 168 783 187 771 q 105 805 149 795 l 111 855 l 666 855 l 687 833 q 678 789 684 815 q 664 735 672 763 q 649 682 657 707 q 636 645 642 658 l 589 645 q 586 741 594 708 q 554 774 578 774 l 343 774 l 305 499 l 556 499 l 574 475 q 559 452 568 465 q 540 427 550 439 q 521 403 531 414 q 504 386 512 392 q 485 403 495 396 q 460 415 474 411 q 424 421 445 419 q 374 424 403 424 l 295 424 l 255 124 q 257 106 253 114 q 273 92 260 98 q 311 84 286 87 q 377 81 336 81 l 440 81 q 490 88 468 81 q 529 112 511 95 q 562 156 546 129 q 598 223 579 183 l 642 205 m 359 -172 q 351 -216 359 -193 q 330 -256 344 -238 q 296 -287 316 -275 q 251 -299 276 -299 q 204 -278 219 -299 q 188 -231 188 -258 q 195 -188 188 -211 q 217 -147 203 -166 q 250 -116 231 -129 q 295 -104 270 -104 q 323 -109 311 -104 q 343 -125 335 -115 q 355 -147 351 -134 q 359 -172 359 -159 "},"≠":{"x_min":29.15625,"x_max":569.03125,"ha":600,"o":"m 541 308 q 533 289 538 300 q 522 267 528 278 q 511 246 516 256 q 502 231 505 236 l 248 231 l 158 103 q 138 93 151 98 q 109 84 125 88 q 80 75 94 79 q 57 69 65 71 l 42 97 l 136 231 l 45 231 l 29 252 q 36 269 31 259 q 47 291 41 280 q 58 312 52 301 q 67 329 63 322 l 205 329 l 280 434 l 73 434 l 56 455 q 64 472 59 462 q 74 494 69 483 q 86 515 80 504 q 95 532 91 525 l 349 532 l 438 657 q 460 668 446 663 q 487 677 473 673 q 514 684 501 681 q 537 691 527 688 l 555 663 l 462 532 l 552 532 l 569 511 q 561 492 566 503 q 550 470 556 481 q 538 449 544 459 q 530 434 533 439 l 392 434 l 318 329 l 524 329 l 541 308 "},"¥":{"x_min":12.203125,"x_max":734.515625,"ha":632,"o":"m 727 770 q 664 751 685 761 q 632 725 642 742 l 402 348 l 401 342 l 562 342 l 575 326 l 543 261 l 390 261 l 368 97 q 372 87 368 93 q 385 75 375 82 q 413 62 396 69 q 458 49 430 55 l 452 0 l 107 0 l 113 49 q 161 62 142 55 q 192 75 180 69 q 209 87 204 81 q 215 97 214 92 l 236 261 l 61 261 l 50 277 q 56 290 52 281 q 64 309 60 299 q 73 328 69 319 q 80 342 78 337 l 247 342 l 248 351 q 217 456 235 402 q 180 558 200 509 q 141 650 161 607 q 103 726 122 694 q 93 739 99 734 q 78 749 88 745 q 52 754 68 753 q 12 755 37 755 l 14 804 q 57 811 33 807 q 106 818 82 815 q 153 824 131 822 q 187 827 175 827 q 219 818 203 827 q 242 795 234 810 q 280 722 261 761 q 315 640 298 683 q 348 553 333 597 q 377 463 364 508 l 535 725 q 533 753 547 743 q 473 770 519 763 l 480 819 l 734 819 l 727 770 "},"Ƚ":{"x_min":-5.421875,"x_max":636.171875,"ha":673,"o":"m 636 205 q 621 144 630 176 q 606 83 613 112 q 592 32 598 54 q 581 0 585 10 l -5 0 l 1 49 q 68 70 45 58 q 93 90 92 81 l 130 358 l 28 358 l 11 378 q 17 391 13 383 q 25 408 21 399 q 34 425 30 417 q 42 439 38 433 l 141 439 l 185 763 q 168 783 187 771 q 105 805 149 795 l 111 855 l 442 855 l 435 805 q 367 784 391 795 q 342 763 343 772 l 297 439 l 463 439 l 482 417 l 450 358 l 286 358 l 255 129 q 258 108 254 117 q 275 93 262 99 q 309 84 287 87 q 366 81 331 81 l 436 81 q 486 88 465 81 q 524 112 507 95 q 557 156 541 129 q 592 223 573 183 l 636 205 "},"Ĥ":{"x_min":-5.421875,"x_max":925.09375,"ha":886,"o":"m 435 805 q 367 784 391 795 q 342 763 343 772 l 305 488 l 630 488 l 668 763 q 651 783 670 771 q 588 805 632 795 l 594 855 l 925 855 l 918 805 q 850 784 874 795 q 826 763 827 772 l 733 90 q 751 70 732 82 q 814 49 770 59 l 808 0 l 478 0 l 484 49 q 552 70 529 59 q 576 90 575 81 l 619 407 l 293 407 l 250 90 q 268 70 249 82 q 331 49 286 59 l 324 0 l -5 0 l 1 49 q 68 70 45 59 q 93 90 92 81 l 185 763 q 168 783 187 771 q 105 805 149 795 l 111 855 l 442 855 l 435 805 m 748 948 q 728 924 738 935 q 707 908 718 913 l 548 1026 l 360 908 q 344 923 354 912 q 328 948 335 935 l 524 1158 l 607 1158 l 748 948 "},"U":{"x_min":110,"x_max":905.34375,"ha":860,"o":"m 898 805 q 834 784 855 795 q 812 763 813 772 l 753 347 q 708 189 741 258 q 628 73 676 120 q 522 3 581 27 q 395 -21 462 -21 q 289 -4 339 -21 q 201 45 239 12 q 141 125 163 78 q 119 236 119 173 q 125 314 119 272 l 188 763 q 171 783 190 771 q 110 805 153 795 l 116 855 l 442 855 l 435 805 q 368 784 392 795 q 343 763 345 772 l 284 346 q 279 306 281 326 q 278 269 278 287 q 319 126 278 174 q 445 79 360 79 q 522 97 489 79 q 579 147 556 115 q 618 223 603 180 q 639 318 632 267 l 701 763 q 698 772 702 767 q 686 783 695 778 q 662 794 677 789 q 625 805 647 800 l 632 855 l 905 855 l 898 805 "},"Ñ":{"x_min":-1.359375,"x_max":915.59375,"ha":858,"o":"m 909 805 q 841 786 862 798 q 817 763 819 773 l 710 -20 q 616 4 651 -14 q 567 54 582 24 l 263 625 l 190 90 q 193 81 189 86 q 206 69 196 75 q 231 58 215 63 q 270 49 246 52 l 263 0 l -1 0 l 5 49 q 73 68 52 55 q 96 90 94 81 l 187 756 q 107 805 153 797 l 113 855 l 286 855 q 304 853 297 855 q 316 846 310 852 q 327 830 322 841 q 343 802 333 820 l 650 223 l 724 763 q 721 773 725 767 q 709 784 718 779 q 684 795 700 790 q 644 805 668 801 l 650 855 l 915 855 l 909 805 m 788 1106 q 766 1067 778 1088 q 738 1025 753 1046 q 708 984 724 1004 q 673 950 691 965 q 636 926 655 935 q 598 918 617 918 q 548 928 571 918 q 504 952 525 939 q 461 976 482 965 q 416 988 440 988 q 390 982 402 988 q 366 968 378 977 q 342 944 354 958 q 315 911 329 929 l 271 930 q 306 990 286 957 q 352 1052 327 1023 q 404 1100 376 1081 q 461 1120 432 1120 q 514 1108 490 1120 q 559 1084 538 1097 q 600 1060 581 1071 q 640 1049 620 1049 q 692 1068 669 1049 q 742 1127 716 1087 l 788 1106 "},"F":{"x_min":-5.421875,"x_max":692.46875,"ha":646,"o":"m 552 475 q 536 450 545 463 q 517 424 526 436 q 498 402 507 412 q 482 386 489 392 q 462 403 473 396 q 438 415 452 411 q 404 421 423 419 q 360 424 385 424 l 295 424 l 250 90 q 254 82 249 86 q 269 72 258 77 q 301 61 281 67 q 350 49 320 55 l 343 0 l -5 0 l 1 49 q 68 70 45 59 q 93 90 92 81 l 185 763 q 168 783 187 771 q 105 805 149 795 l 111 855 l 672 855 l 692 833 q 683 789 689 815 q 670 735 677 763 q 655 682 663 707 q 642 645 648 658 l 594 645 q 592 741 600 708 q 560 774 583 774 l 343 774 l 305 499 l 533 499 l 552 475 "},"ả":{"x_min":26,"x_max":665.359375,"ha":669,"o":"m 396 256 q 405 317 400 284 q 415 381 410 349 q 425 442 420 413 q 433 492 429 470 q 392 524 414 510 q 349 539 370 539 q 297 524 321 538 q 255 488 273 511 q 222 437 236 466 q 198 377 207 408 q 184 314 189 345 q 180 256 180 283 q 185 190 180 218 q 200 142 190 161 q 221 114 209 124 q 245 105 232 105 q 307 143 267 105 q 396 256 346 182 m 665 71 q 608 33 636 51 q 556 1 580 15 q 512 -20 531 -12 q 480 -28 492 -28 q 454 -20 469 -28 q 426 5 439 -13 q 402 55 413 24 q 389 134 392 86 q 342 75 367 104 q 291 22 317 45 q 236 -14 264 0 q 181 -28 208 -28 q 129 -15 156 -28 q 79 25 102 -2 q 41 98 56 54 q 26 206 26 143 q 39 311 26 260 q 78 409 53 362 q 142 497 104 456 q 227 571 179 538 q 268 594 245 583 q 315 615 290 606 q 368 629 340 624 q 424 635 395 635 q 480 622 453 635 q 531 594 507 609 q 577 615 554 605 q 619 635 600 625 l 640 590 q 621 573 628 581 q 608 556 613 566 q 598 532 602 546 q 589 495 594 518 q 571 400 579 446 q 557 316 562 354 q 548 248 551 277 q 546 204 546 219 q 556 127 546 157 q 581 97 566 97 q 611 100 595 97 q 654 115 627 104 l 665 71 m 550 904 q 541 874 550 888 q 518 846 532 859 q 488 822 505 834 q 458 799 472 810 q 436 777 445 788 q 426 755 426 766 q 433 740 426 747 q 455 723 440 733 q 440 716 450 719 q 421 710 431 713 q 400 705 410 707 q 386 703 391 703 q 348 731 359 718 q 337 756 337 744 q 347 776 337 766 q 370 796 356 786 q 400 815 384 805 q 430 836 416 825 q 453 861 444 847 q 462 890 462 874 q 454 919 462 908 q 424 930 446 930 q 403 924 412 930 q 388 911 394 919 q 381 893 382 902 q 382 876 379 883 q 364 870 377 874 q 337 862 352 866 q 309 854 322 858 q 290 850 296 851 l 284 858 q 297 904 284 882 q 334 944 311 927 q 387 971 357 961 q 448 982 416 982 q 496 975 476 982 q 528 958 516 969 q 545 933 540 947 q 550 904 550 919 "},"ʔ":{"x_min":56.296875,"x_max":612.671875,"ha":571,"o":"m 56 -5 l 63 43 q 140 63 115 53 q 165 84 164 73 l 199 334 q 226 425 206 386 q 273 498 246 465 q 329 561 299 532 q 384 621 358 590 q 429 685 411 651 q 455 760 448 718 q 454 834 460 801 q 434 891 448 868 q 396 928 419 915 q 347 941 374 941 q 307 929 326 941 q 272 899 288 918 q 247 857 257 881 q 233 806 236 833 q 232 785 231 797 q 234 763 233 772 q 201 749 220 755 q 162 737 183 742 q 121 728 142 732 q 81 721 100 723 l 68 742 q 68 755 67 747 q 69 769 69 763 q 106 866 76 820 q 180 947 135 912 q 283 1004 225 983 q 405 1025 341 1025 q 506 1008 464 1025 q 573 960 548 991 q 607 888 598 930 q 609 795 616 846 q 582 709 602 745 q 536 643 562 673 q 480 586 510 613 q 423 530 450 560 q 377 463 397 500 q 351 377 358 427 l 311 84 q 332 64 309 74 q 403 43 354 53 l 396 -5 l 56 -5 "},"ờ":{"x_min":26,"x_max":745,"ha":684,"o":"m 433 326 q 424 418 433 377 q 400 485 415 458 q 366 526 386 512 q 325 541 346 541 q 259 517 285 541 q 215 456 232 493 q 192 374 199 419 q 185 285 185 329 q 194 199 185 239 q 220 129 204 159 q 256 81 236 99 q 298 64 277 64 q 343 75 323 64 q 378 107 363 87 q 403 153 393 127 q 420 208 414 179 q 429 268 426 237 q 433 326 433 298 m 745 714 q 698 599 745 652 q 567 506 652 546 q 591 379 591 449 q 579 287 591 333 q 546 197 567 240 q 494 113 524 153 q 425 42 463 73 q 386 15 407 28 q 341 -7 364 2 q 295 -22 318 -17 q 252 -28 272 -28 q 157 -7 199 -28 q 86 46 115 12 q 41 129 57 81 q 26 233 26 177 q 35 327 26 282 q 65 415 45 373 q 117 496 85 457 q 194 569 149 535 q 234 595 212 583 q 278 616 255 607 q 325 629 301 624 q 372 635 349 635 q 467 615 426 635 q 536 561 507 596 q 577 598 563 578 q 592 643 592 618 q 590 657 592 649 q 584 674 588 666 q 573 691 580 683 q 556 704 566 698 l 711 779 q 725 765 719 773 q 736 749 732 757 q 742 731 740 740 q 745 714 745 721 m 430 715 q 401 700 417 707 q 373 691 385 693 l 178 937 l 205 971 q 233 977 213 973 q 275 984 252 980 q 317 991 297 988 q 346 995 337 995 l 430 715 "},"̿":{"x_min":-559.53125,"x_max":149.890625,"ha":0,"o":"m 149 1030 q 141 1011 147 1023 q 128 989 135 1000 q 115 967 122 977 q 105 952 109 957 l -519 952 l -535 973 q -526 991 -532 980 q -514 1013 -521 1002 q -501 1035 -507 1024 q -491 1053 -495 1046 l 132 1053 l 149 1030 m 125 861 q 117 842 123 854 q 104 820 111 831 q 91 798 97 808 q 81 783 84 788 l -543 783 l -559 804 q -551 822 -556 811 q -539 844 -545 833 q -526 866 -532 855 q -516 884 -520 877 l 107 884 l 125 861 "},"å":{"x_min":26,"x_max":665.359375,"ha":669,"o":"m 396 256 q 405 317 400 284 q 415 381 410 349 q 425 442 420 413 q 433 492 429 470 q 392 524 414 510 q 349 539 370 539 q 297 524 321 538 q 255 488 273 511 q 222 437 236 466 q 198 377 207 408 q 184 314 189 345 q 180 256 180 283 q 185 190 180 218 q 200 142 190 161 q 221 114 209 124 q 245 105 232 105 q 307 143 267 105 q 396 256 346 182 m 665 71 q 608 33 636 51 q 556 1 580 15 q 512 -20 531 -12 q 480 -28 492 -28 q 454 -20 469 -28 q 426 5 439 -13 q 402 55 413 24 q 389 134 392 86 q 342 75 367 104 q 291 22 317 45 q 236 -14 264 0 q 181 -28 208 -28 q 129 -15 156 -28 q 79 25 102 -2 q 41 98 56 54 q 26 206 26 143 q 39 311 26 260 q 78 409 53 362 q 142 497 104 456 q 227 571 179 538 q 268 594 245 583 q 315 615 290 606 q 368 629 340 624 q 424 635 395 635 q 480 622 453 635 q 531 594 507 609 q 577 615 554 605 q 619 635 600 625 l 640 590 q 621 573 628 581 q 608 556 613 566 q 598 532 602 546 q 589 495 594 518 q 571 400 579 446 q 557 316 562 354 q 548 248 551 277 q 546 204 546 219 q 556 127 546 157 q 581 97 566 97 q 611 100 595 97 q 654 115 627 104 l 665 71 m 461 856 q 452 890 461 877 q 427 903 442 903 q 404 896 414 903 q 385 878 393 890 q 373 853 377 867 q 368 822 368 838 q 378 788 368 801 q 404 775 389 774 q 426 781 416 775 q 445 799 437 788 q 457 825 452 810 q 461 856 461 840 m 551 882 q 538 819 551 852 q 502 759 525 786 q 447 713 479 731 q 380 695 416 695 q 338 703 356 695 q 308 725 320 711 q 289 757 296 739 q 283 793 283 774 q 296 859 283 825 q 332 921 309 893 q 385 967 354 949 q 451 985 415 985 q 493 976 474 985 q 525 954 512 968 q 545 921 538 940 q 551 882 551 903 "},"0":{"x_min":22,"x_max":608,"ha":632,"o":"m 445 549 q 437 641 445 602 q 417 703 430 679 q 388 738 405 727 q 350 750 371 750 q 288 723 315 750 q 244 653 262 696 q 213 556 225 610 q 195 449 201 503 q 185 348 188 395 q 183 268 183 300 q 206 116 183 164 q 280 69 230 69 q 336 92 311 69 q 379 154 361 115 q 410 243 397 193 q 430 346 422 293 q 441 452 438 400 q 445 549 445 505 m 608 531 q 587 339 608 430 q 515 160 567 247 q 465 89 493 122 q 403 31 437 56 q 329 -6 368 7 q 244 -21 289 -21 q 152 3 193 -21 q 81 70 110 28 q 37 168 53 113 q 22 286 22 224 q 26 386 22 339 q 41 477 31 433 q 69 564 52 521 q 110 652 86 607 q 159 724 131 690 q 223 783 188 758 q 299 823 258 808 q 385 838 339 838 q 473 816 433 838 q 544 754 514 794 q 591 658 574 715 q 608 531 608 601 "},"ɋ":{"x_min":26,"x_max":771.703125,"ha":656,"o":"m 252 106 q 276 114 262 106 q 309 141 290 122 q 351 189 328 160 q 404 261 375 219 l 441 491 q 396 525 418 511 q 353 539 375 539 q 300 525 324 539 q 256 489 276 511 q 221 438 236 467 q 196 378 206 409 q 180 315 185 346 q 175 257 175 283 q 181 195 175 223 q 197 147 187 167 q 222 116 208 127 q 252 106 236 106 m 644 590 q 624 573 633 581 q 610 556 616 566 q 598 532 603 546 q 589 495 594 518 q 579 432 586 476 q 563 330 572 388 q 545 208 555 273 q 528 80 536 142 q 516 -34 521 18 q 512 -121 512 -88 q 525 -207 512 -178 q 566 -237 538 -237 q 599 -221 585 -237 q 613 -180 613 -205 q 608 -153 613 -167 q 598 -129 604 -140 q 630 -111 610 -121 q 672 -93 650 -102 q 716 -77 694 -84 q 754 -66 737 -70 l 771 -105 q 765 -136 771 -119 q 748 -172 759 -154 q 721 -209 737 -190 q 686 -246 705 -228 q 650 -273 674 -257 q 596 -303 626 -289 q 532 -328 566 -318 q 464 -339 498 -339 q 416 -322 436 -339 q 382 -279 395 -305 q 363 -219 369 -252 q 357 -152 357 -185 q 358 -82 357 -115 q 363 -14 359 -49 q 371 57 366 20 q 383 137 375 94 q 279 14 330 56 q 182 -28 229 -28 q 133 -15 160 -28 q 81 25 106 -2 q 41 98 57 54 q 26 206 26 143 q 39 312 26 260 q 80 411 53 364 q 144 499 106 458 q 230 571 181 540 q 272 594 249 583 q 321 615 295 606 q 373 629 346 624 q 425 635 400 635 q 454 630 440 635 q 483 620 469 626 q 509 607 497 614 q 533 592 522 599 q 580 616 556 604 q 621 635 603 627 l 644 590 "},"ō":{"x_min":26,"x_max":660.59375,"ha":617,"o":"m 433 326 q 424 418 433 377 q 400 485 415 458 q 366 526 386 512 q 325 541 346 541 q 259 517 285 541 q 215 456 232 493 q 192 374 199 419 q 185 285 185 329 q 194 199 185 239 q 220 129 204 159 q 256 81 236 99 q 298 64 277 64 q 343 75 323 64 q 378 107 363 87 q 403 153 393 127 q 420 208 414 179 q 429 268 426 237 q 433 326 433 298 m 591 379 q 579 287 591 333 q 546 196 568 240 q 494 113 524 153 q 426 42 463 73 q 386 15 408 28 q 341 -7 364 2 q 295 -22 318 -17 q 252 -28 273 -28 q 157 -7 199 -28 q 86 46 115 12 q 41 129 57 81 q 26 233 26 177 q 35 327 26 282 q 65 415 44 373 q 117 496 85 457 q 194 569 149 535 q 233 595 212 583 q 278 616 255 607 q 325 629 301 624 q 371 635 349 635 q 465 616 424 635 q 534 563 506 597 q 576 482 562 529 q 591 379 591 435 m 660 869 q 652 849 658 861 q 639 825 646 838 q 626 801 632 812 q 616 785 619 790 l 137 785 l 121 806 q 129 825 124 813 q 141 848 134 836 q 154 872 148 861 q 164 891 160 884 l 642 891 l 660 869 "},"”":{"x_min":90.1875,"x_max":628,"ha":630,"o":"m 327 876 q 309 790 327 833 q 262 708 291 747 q 199 635 234 668 q 130 578 164 601 l 91 611 q 122 650 106 628 q 149 696 137 672 q 169 743 162 719 q 177 789 177 767 q 153 840 177 824 q 96 856 130 857 l 90 907 q 108 919 94 912 q 141 935 122 927 q 180 951 159 943 q 220 965 201 959 q 255 975 239 972 q 278 978 270 978 q 311 941 296 966 q 327 876 327 916 m 628 876 q 610 790 628 833 q 563 708 592 747 q 500 635 535 668 q 431 578 465 601 l 392 611 q 423 650 407 628 q 450 696 438 672 q 470 743 463 719 q 478 789 478 767 q 454 840 477 824 q 397 856 431 857 l 391 907 q 410 919 396 912 q 442 935 424 927 q 482 951 461 943 q 522 965 503 959 q 557 975 541 972 q 580 978 572 978 q 612 941 597 966 q 628 876 628 916 "},"ḕ":{"x_min":33,"x_max":668.734375,"ha":587,"o":"m 270 499 q 215 410 237 460 q 191 295 194 360 q 297 349 258 324 q 357 395 337 373 q 383 437 377 417 q 390 480 390 457 q 376 527 390 511 q 343 543 362 543 q 329 540 337 543 q 310 531 320 537 q 289 518 299 526 q 270 499 279 510 m 560 515 q 555 475 560 496 q 537 431 551 454 q 500 382 524 408 q 434 330 475 357 q 334 275 393 303 q 194 217 276 246 q 208 158 198 184 q 230 114 217 132 q 259 86 244 96 q 292 77 275 77 q 376 103 321 77 q 513 195 431 129 q 522 186 517 193 q 531 172 527 180 q 539 157 536 164 q 544 147 543 150 q 443 65 489 99 q 360 11 398 32 q 290 -18 322 -9 q 227 -28 258 -28 q 166 -15 200 -28 q 102 24 132 -2 q 53 96 73 52 q 33 205 33 140 q 45 306 33 258 q 82 399 58 355 q 140 483 106 443 q 217 559 174 523 q 254 585 232 571 q 302 609 277 598 q 356 627 328 620 q 410 635 384 635 q 477 624 449 635 q 524 596 505 613 q 551 558 542 580 q 560 515 560 537 m 668 869 q 660 849 666 861 q 647 825 654 838 q 634 801 640 812 q 624 785 628 790 l 145 785 l 129 806 q 137 825 132 813 q 149 848 143 836 q 162 872 156 861 q 172 891 168 884 l 651 891 l 668 869 m 474 966 q 444 951 460 958 q 417 941 429 943 l 221 1188 l 248 1222 q 276 1227 257 1224 q 318 1235 296 1231 q 361 1242 341 1239 q 389 1245 381 1245 l 474 966 "},"ö":{"x_min":26,"x_max":600.46875,"ha":617,"o":"m 433 326 q 424 418 433 377 q 400 485 415 458 q 366 526 386 512 q 325 541 346 541 q 259 517 285 541 q 215 456 232 493 q 192 374 199 419 q 185 285 185 329 q 194 199 185 239 q 220 129 204 159 q 256 81 236 99 q 298 64 277 64 q 343 75 323 64 q 378 107 363 87 q 403 153 393 127 q 420 208 414 179 q 429 268 426 237 q 433 326 433 298 m 591 379 q 579 287 591 333 q 546 196 568 240 q 494 113 524 153 q 426 42 463 73 q 386 15 408 28 q 341 -7 364 2 q 295 -22 318 -17 q 252 -28 273 -28 q 157 -7 199 -28 q 86 46 115 12 q 41 129 57 81 q 26 233 26 177 q 35 327 26 282 q 65 415 44 373 q 117 496 85 457 q 194 569 149 535 q 233 595 212 583 q 278 616 255 607 q 325 629 301 624 q 371 635 349 635 q 465 616 424 635 q 534 563 506 597 q 576 482 562 529 q 591 379 591 435 m 338 861 q 330 817 338 840 q 309 777 323 795 q 275 746 295 758 q 230 735 255 735 q 182 755 197 735 q 166 802 166 775 q 173 845 166 822 q 195 886 181 867 q 229 917 209 904 q 274 930 249 930 q 302 924 290 930 q 322 908 314 918 q 334 886 330 899 q 338 861 338 874 m 600 861 q 592 817 600 840 q 571 777 585 795 q 537 746 557 758 q 491 735 516 735 q 444 755 459 735 q 428 802 428 775 q 435 845 428 822 q 457 886 443 867 q 491 917 471 904 q 535 930 510 930 q 564 924 552 930 q 584 908 576 918 q 596 886 592 899 q 600 861 600 874 "},"ẉ":{"x_min":-7.921875,"x_max":943,"ha":941,"o":"m 943 583 q 938 543 943 565 q 922 491 933 521 q 892 420 911 461 q 844 324 873 379 q 776 196 816 269 q 685 29 737 124 q 664 18 679 26 q 630 0 648 10 q 597 -16 613 -8 q 574 -28 581 -25 l 546 -2 q 531 111 539 55 q 515 218 523 167 q 499 312 507 269 q 481 386 490 355 q 462 325 475 362 q 429 243 449 288 q 383 145 409 197 q 326 37 357 92 q 303 24 320 33 q 265 4 285 15 q 227 -15 245 -6 q 203 -28 209 -25 l 176 -2 q 167 81 172 36 q 157 173 162 127 q 148 265 152 220 q 138 349 143 311 q 129 416 133 387 q 122 459 125 445 q 112 489 118 478 q 100 506 106 499 q 87 513 93 512 q 74 515 80 515 q 57 513 68 515 q 34 507 46 510 q 6 499 21 504 l -7 544 q 54 575 21 559 q 117 605 87 592 q 171 626 147 618 q 205 635 194 635 q 234 612 224 635 q 255 542 244 590 q 263 499 258 527 q 271 436 267 471 q 280 362 276 400 q 289 287 285 323 q 296 221 293 251 q 300 174 299 191 q 351 282 327 227 q 393 387 375 337 q 423 481 411 438 q 435 555 434 525 q 468 582 449 568 q 506 607 487 596 q 542 627 525 619 q 569 635 559 635 q 577 623 572 635 q 586 594 581 612 q 598 551 592 575 q 609 502 603 527 q 619 452 614 477 q 628 406 624 427 q 638 342 632 375 q 649 279 644 309 q 658 219 654 248 q 665 166 662 190 q 773 377 736 293 q 810 501 810 460 q 800 523 810 515 q 772 531 790 531 q 746 529 763 531 q 715 521 730 526 l 698 567 q 751 595 723 582 q 803 616 778 607 q 850 630 828 625 q 886 635 871 635 q 907 633 897 635 q 925 626 917 631 q 938 610 933 620 q 943 583 943 600 m 507 -172 q 500 -216 507 -193 q 479 -256 493 -238 q 445 -287 465 -275 q 400 -299 425 -299 q 352 -278 368 -299 q 336 -231 336 -258 q 344 -188 336 -211 q 365 -147 351 -166 q 399 -116 379 -129 q 444 -104 419 -104 q 472 -109 460 -104 q 492 -125 484 -115 q 503 -147 499 -134 q 507 -172 507 -159 "},"Ȧ":{"x_min":-33.90625,"x_max":768.421875,"ha":810,"o":"m 251 291 l 165 95 q 176 65 156 74 q 246 49 196 56 l 240 0 l -33 0 l -27 49 q 40 66 16 57 q 73 95 64 75 l 390 817 q 426 842 407 830 q 466 863 446 854 q 506 880 486 873 q 543 893 526 887 l 697 95 q 702 78 699 86 q 714 65 706 71 q 735 56 722 60 q 768 49 748 52 l 762 0 l 449 0 l 456 49 q 524 63 505 52 q 539 95 543 73 l 503 291 l 251 291 m 487 373 l 426 693 l 287 373 l 487 373 m 586 1052 q 578 1009 586 1032 q 557 968 571 987 q 523 937 543 949 q 478 926 503 926 q 430 946 445 926 q 415 993 415 967 q 422 1036 415 1014 q 444 1077 430 1058 q 477 1108 458 1096 q 522 1121 497 1121 q 550 1115 538 1121 q 570 1099 562 1109 q 582 1078 578 1090 q 586 1052 586 1066 "},"ć":{"x_min":48,"x_max":651.765625,"ha":592,"o":"m 614 558 q 580 526 600 544 q 540 492 560 508 q 501 464 519 475 q 472 454 483 454 q 450 467 461 454 q 426 496 439 480 q 396 525 412 512 q 361 539 380 539 q 295 513 324 539 q 247 448 267 488 q 218 359 228 409 q 208 263 208 310 q 215 184 208 219 q 235 126 222 150 q 266 89 248 102 q 305 77 283 77 q 393 103 342 77 q 517 190 444 130 q 525 179 520 186 q 535 165 530 172 q 545 151 541 157 q 551 142 549 144 q 454 61 498 93 q 372 8 410 28 q 302 -19 334 -11 q 239 -28 269 -28 q 177 -16 210 -28 q 114 23 143 -4 q 66 99 85 52 q 48 218 48 147 q 57 310 48 263 q 88 401 66 357 q 143 487 109 446 q 228 561 178 527 q 272 586 247 573 q 326 610 297 599 q 384 628 354 621 q 442 635 414 635 q 496 625 472 635 q 539 602 519 615 q 577 577 560 589 q 614 558 595 564 m 651 927 l 395 691 q 372 703 384 693 q 349 724 359 713 l 508 995 l 535 990 q 573 982 553 986 q 612 974 594 978 q 636 967 630 969 l 651 927 "},"þ":{"x_min":-12.15625,"x_max":654,"ha":698,"o":"m 426 516 q 396 506 415 516 q 355 476 378 496 q 308 426 333 456 q 261 355 284 396 l 234 191 q 262 160 245 176 q 299 132 279 144 q 338 111 318 119 q 375 104 359 104 q 424 119 399 104 q 462 168 448 134 q 479 215 472 191 q 488 264 485 239 q 492 312 491 288 q 494 356 494 335 q 487 427 494 397 q 470 477 480 458 q 448 506 460 497 q 426 516 437 516 m 347 967 q 342 916 347 954 q 331 819 338 879 q 311 680 323 759 q 284 502 299 600 q 352 573 321 547 q 410 613 384 599 q 461 630 437 626 q 505 635 484 635 q 562 621 535 635 q 609 581 589 607 q 642 515 630 554 q 654 425 654 476 q 648 352 654 391 q 631 273 643 314 q 603 192 620 233 q 563 112 586 151 q 526 60 546 86 q 482 15 506 35 q 432 -16 458 -4 q 377 -28 405 -28 q 341 -19 361 -28 q 299 4 320 -11 q 256 42 278 20 q 217 92 235 64 l 201 3 q 182 -115 189 -66 q 172 -197 175 -164 q 169 -249 169 -230 q 174 -278 170 -268 q 140 -288 163 -280 q 93 -306 118 -297 q 46 -325 68 -316 q 14 -339 23 -334 l -12 -314 q 12 -175 -1 -253 q 41 -10 26 -97 q 72 170 57 77 q 102 352 88 262 q 129 526 117 442 q 152 679 142 609 q 167 798 162 748 q 173 872 173 848 q 170 897 173 887 q 162 910 167 906 q 150 916 157 915 q 137 917 144 917 q 120 914 130 917 q 99 908 109 911 q 73 899 86 904 l 62 946 q 128 973 90 959 q 201 1001 165 988 q 266 1022 236 1014 q 308 1031 295 1031 q 340 1016 334 1031 q 347 967 347 1001 "},"]":{"x_min":-58.328125,"x_max":466.625,"ha":458,"o":"m 283 -228 l -33 -228 l -58 -203 q -51 -184 -55 -195 q -41 -163 -46 -173 q -31 -143 -36 -152 q -24 -130 -27 -134 l 153 -130 l 310 988 l 138 988 l 113 1010 q 119 1028 115 1018 q 128 1049 123 1038 q 138 1069 133 1059 q 145 1084 142 1078 l 466 1084 l 283 -228 "},"Ǒ":{"x_min":51,"x_max":784,"ha":795,"o":"m 622 512 q 611 619 622 569 q 579 706 600 669 q 526 763 558 742 q 454 785 495 785 q 379 765 413 785 q 318 712 345 745 q 272 636 292 679 q 240 546 252 593 q 221 451 227 499 q 215 360 215 403 q 225 244 215 297 q 258 153 236 191 q 309 94 279 115 q 380 73 340 73 q 458 93 423 73 q 519 148 493 114 q 566 227 546 182 q 597 321 585 273 q 616 420 610 370 q 622 512 622 469 m 784 525 q 774 427 784 476 q 748 329 765 377 q 707 236 731 281 q 651 152 682 191 q 587 84 623 116 q 512 29 552 52 q 428 -7 472 6 q 339 -21 385 -21 q 217 6 270 -21 q 126 82 163 34 q 70 194 89 130 q 51 328 51 257 q 59 428 51 379 q 83 522 67 476 q 121 611 99 569 q 170 690 143 653 q 233 762 198 728 q 309 820 267 795 q 397 860 350 845 q 498 875 444 875 q 624 847 571 875 q 713 771 678 819 q 766 659 749 723 q 784 525 784 596 m 547 924 l 454 924 l 317 1177 q 340 1200 328 1189 q 363 1218 352 1210 l 515 1068 l 710 1218 q 729 1200 718 1210 q 748 1177 740 1189 l 547 924 "},"ẁ":{"x_min":-7.921875,"x_max":943,"ha":941,"o":"m 943 583 q 938 543 943 565 q 922 491 933 521 q 892 420 911 461 q 844 324 873 379 q 776 196 816 269 q 685 29 737 124 q 664 18 679 26 q 630 0 648 10 q 597 -16 613 -8 q 574 -28 581 -25 l 546 -2 q 531 111 539 55 q 515 218 523 167 q 499 312 507 269 q 481 386 490 355 q 462 325 475 362 q 429 243 449 288 q 383 145 409 197 q 326 37 357 92 q 303 24 320 33 q 265 4 285 15 q 227 -15 245 -6 q 203 -28 209 -25 l 176 -2 q 167 81 172 36 q 157 173 162 127 q 148 265 152 220 q 138 349 143 311 q 129 416 133 387 q 122 459 125 445 q 112 489 118 478 q 100 506 106 499 q 87 513 93 512 q 74 515 80 515 q 57 513 68 515 q 34 507 46 510 q 6 499 21 504 l -7 544 q 54 575 21 559 q 117 605 87 592 q 171 626 147 618 q 205 635 194 635 q 234 612 224 635 q 255 542 244 590 q 263 499 258 527 q 271 436 267 471 q 280 362 276 400 q 289 287 285 323 q 296 221 293 251 q 300 174 299 191 q 351 282 327 227 q 393 387 375 337 q 423 481 411 438 q 435 555 434 525 q 468 582 449 568 q 506 607 487 596 q 542 627 525 619 q 569 635 559 635 q 577 623 572 635 q 586 594 581 612 q 598 551 592 575 q 609 502 603 527 q 619 452 614 477 q 628 406 624 427 q 638 342 632 375 q 649 279 644 309 q 658 219 654 248 q 665 166 662 190 q 773 377 736 293 q 810 501 810 460 q 800 523 810 515 q 772 531 790 531 q 746 529 763 531 q 715 521 730 526 l 698 567 q 751 595 723 582 q 803 616 778 607 q 850 630 828 625 q 886 635 871 635 q 907 633 897 635 q 925 626 917 631 q 938 610 933 620 q 943 583 943 600 m 616 715 q 587 700 602 707 q 559 691 571 693 l 364 937 l 391 971 q 419 977 399 973 q 461 984 438 980 q 503 991 483 988 q 532 995 523 995 l 616 715 "},"Ȟ":{"x_min":-5.421875,"x_max":925.09375,"ha":886,"o":"m 435 805 q 367 784 391 795 q 342 763 343 772 l 305 488 l 630 488 l 668 763 q 651 783 670 771 q 588 805 632 795 l 594 855 l 925 855 l 918 805 q 850 784 874 795 q 826 763 827 772 l 733 90 q 751 70 732 82 q 814 49 770 59 l 808 0 l 478 0 l 484 49 q 552 70 529 59 q 576 90 575 81 l 619 407 l 293 407 l 250 90 q 268 70 249 82 q 331 49 286 59 l 324 0 l -5 0 l 1 49 q 68 70 45 59 q 93 90 92 81 l 185 763 q 168 783 187 771 q 105 805 149 795 l 111 855 l 442 855 l 435 805 m 583 924 l 490 924 l 349 1138 q 372 1163 358 1151 q 395 1184 385 1175 l 554 1055 l 742 1184 q 761 1164 750 1176 q 779 1138 773 1151 l 583 924 "},"ệ":{"x_min":33,"x_max":594.109375,"ha":587,"o":"m 270 499 q 215 410 237 460 q 191 295 194 360 q 297 349 258 324 q 357 395 337 373 q 383 437 377 417 q 390 480 390 457 q 376 527 390 511 q 343 543 362 543 q 329 540 337 543 q 310 531 320 537 q 289 518 299 526 q 270 499 279 510 m 560 515 q 555 475 560 496 q 537 431 551 454 q 500 382 524 408 q 434 330 475 357 q 334 275 393 303 q 194 217 276 246 q 208 158 198 184 q 230 114 217 132 q 259 86 244 96 q 292 77 275 77 q 376 103 321 77 q 513 195 431 129 q 522 186 517 193 q 531 172 527 180 q 539 157 536 164 q 544 147 543 150 q 443 65 489 99 q 360 11 398 32 q 290 -18 322 -9 q 227 -28 258 -28 q 166 -15 200 -28 q 102 24 132 -2 q 53 96 73 52 q 33 205 33 140 q 45 306 33 258 q 82 399 58 355 q 140 483 106 443 q 217 559 174 523 q 254 585 232 571 q 302 609 277 598 q 356 627 328 620 q 410 635 384 635 q 477 624 449 635 q 524 596 505 613 q 551 558 542 580 q 560 515 560 537 m 320 -172 q 312 -216 320 -193 q 291 -256 305 -238 q 257 -287 277 -275 q 212 -299 237 -299 q 164 -278 180 -299 q 149 -231 149 -258 q 156 -188 149 -211 q 177 -147 164 -166 q 211 -116 191 -129 q 256 -104 231 -104 q 284 -109 272 -104 q 304 -125 296 -115 q 316 -147 311 -134 q 320 -172 320 -159 m 594 731 q 571 707 584 718 q 548 691 558 696 l 396 844 l 201 691 q 183 706 195 695 q 164 731 170 718 l 366 988 l 459 988 l 594 731 "},"ĭ":{"x_min":37.578125,"x_max":520.875,"ha":385,"o":"m 364 74 q 299 36 333 55 q 235 4 266 18 q 177 -19 204 -10 q 132 -28 151 -28 q 92 -6 108 -28 q 77 51 77 14 q 81 106 77 71 q 93 182 86 140 q 108 268 100 223 q 123 353 116 313 q 135 425 130 394 q 140 474 140 457 q 137 499 140 490 q 132 513 135 508 q 123 518 129 517 q 112 520 118 520 q 96 517 106 520 q 75 512 85 515 q 49 504 63 508 l 37 549 q 102 577 66 562 q 172 605 137 592 q 234 626 206 618 q 274 635 262 635 q 304 622 293 635 q 315 577 315 609 q 310 523 315 558 q 297 445 305 488 q 282 357 290 403 q 266 269 273 311 q 253 191 258 226 q 249 137 249 156 q 253 106 249 116 q 269 97 257 97 q 288 98 279 97 q 307 102 297 99 q 327 109 316 105 q 352 119 337 113 l 364 74 m 520 905 q 464 812 495 850 q 399 751 432 774 q 333 717 366 728 q 274 707 301 707 q 213 717 244 707 q 157 751 183 728 q 110 813 130 775 q 77 905 89 851 q 89 918 82 911 q 103 932 96 925 q 118 945 111 940 q 130 955 124 951 q 158 898 140 920 q 196 861 175 875 q 240 841 217 847 q 282 835 262 835 q 329 841 303 835 q 381 861 355 847 q 432 898 408 875 q 476 955 457 920 q 486 946 480 951 q 499 933 493 940 q 511 918 505 926 q 520 905 517 911 "},"8":{"x_min":22,"x_max":606,"ha":632,"o":"m 261 637 q 270 594 261 613 q 295 561 279 576 q 332 533 311 546 q 377 509 353 521 q 429 573 407 537 q 451 661 451 610 q 427 733 451 708 q 362 759 403 759 q 322 748 340 759 q 290 720 304 737 q 268 681 276 703 q 261 637 261 659 m 417 231 q 406 290 417 265 q 380 334 396 315 q 341 368 363 353 q 294 395 318 382 q 250 351 270 374 q 216 303 231 328 q 194 248 202 277 q 187 185 187 218 q 195 133 187 156 q 216 95 203 111 q 249 71 230 79 q 288 63 267 63 q 341 77 317 63 q 382 116 365 92 q 408 170 399 140 q 417 231 417 201 m 606 678 q 591 613 606 643 q 554 559 577 584 q 502 513 531 534 q 445 474 473 492 q 496 441 471 459 q 540 398 521 422 q 569 342 558 374 q 581 269 581 311 q 554 158 581 211 q 482 66 527 106 q 380 2 438 26 q 261 -21 323 -21 q 153 -5 199 -21 q 79 36 108 10 q 36 97 50 63 q 22 169 22 131 q 39 251 22 213 q 86 322 57 290 q 152 381 115 355 q 229 429 189 408 q 185 457 206 441 q 148 493 164 473 q 123 540 132 513 q 114 602 114 566 q 137 695 114 651 q 200 769 160 738 q 292 819 240 801 q 402 837 344 837 q 494 825 455 837 q 557 792 532 813 q 594 742 582 771 q 606 678 606 712 "},"Ữ":{"x_min":110,"x_max":1044.390625,"ha":983,"o":"m 1044 961 q 1028 892 1044 925 q 981 830 1011 859 q 906 774 950 800 q 807 727 862 748 l 753 347 q 708 189 741 258 q 628 73 676 120 q 522 3 581 27 q 395 -21 462 -21 q 289 -4 339 -21 q 201 45 239 12 q 141 125 163 78 q 119 236 119 173 q 125 314 119 272 l 188 763 q 171 783 190 771 q 110 805 153 795 l 116 855 l 442 855 l 435 805 q 368 784 392 795 q 343 763 345 772 l 284 346 q 279 306 281 326 q 278 269 278 287 q 319 126 278 174 q 445 79 360 79 q 522 97 489 79 q 579 147 556 115 q 618 223 603 180 q 639 318 632 267 l 701 763 q 698 772 702 767 q 686 783 695 778 q 662 794 677 789 q 625 805 647 800 l 632 855 l 882 855 q 891 890 891 872 q 889 905 891 896 q 882 922 887 913 q 872 938 878 930 q 855 951 865 946 l 1009 1026 q 1035 996 1026 1015 q 1044 961 1044 976 m 796 1106 q 774 1067 787 1088 q 747 1025 762 1046 q 716 984 733 1004 q 682 950 700 965 q 645 926 664 935 q 607 918 626 918 q 557 928 579 918 q 513 952 534 939 q 470 976 491 965 q 425 988 448 988 q 399 982 411 988 q 375 968 387 977 q 350 944 363 958 q 324 911 338 929 l 280 930 q 315 990 295 957 q 360 1052 336 1023 q 413 1100 385 1081 q 470 1120 440 1120 q 523 1108 499 1120 q 568 1084 547 1097 q 609 1060 590 1071 q 649 1049 629 1049 q 701 1068 678 1049 q 751 1127 725 1087 l 796 1106 "},"R":{"x_min":-5.59375,"x_max":786.5625,"ha":776,"o":"m 380 804 q 364 803 372 804 q 348 803 356 803 l 304 478 q 336 471 320 472 q 369 469 351 469 q 437 481 404 469 q 495 514 470 492 q 536 567 521 535 q 551 639 551 598 q 535 721 551 689 q 494 771 519 753 q 439 797 468 790 q 380 804 409 804 m 786 78 q 728 44 760 61 q 668 16 697 28 q 617 -2 640 4 q 585 -10 594 -10 q 563 -6 574 -10 q 540 6 551 -3 q 518 33 529 15 q 496 79 507 50 l 374 394 q 333 396 355 394 q 294 402 312 398 l 252 90 q 271 70 250 82 q 335 49 292 59 l 328 0 l -5 0 l 1 49 q 67 70 43 59 q 92 90 90 81 l 186 787 q 136 779 160 784 q 90 770 111 775 l 90 832 q 158 848 121 841 q 237 862 195 856 q 323 871 278 868 q 414 875 368 875 q 541 861 486 875 q 635 819 597 847 q 693 751 673 792 q 714 658 714 711 q 699 588 714 625 q 657 516 684 551 q 588 453 629 482 q 494 409 547 425 l 644 144 q 665 118 654 127 q 689 108 675 110 q 722 111 703 107 q 768 125 741 116 l 786 78 "},"Ḇ":{"x_min":-4.859375,"x_max":695,"ha":739,"o":"m 695 277 q 666 156 695 211 q 589 62 638 101 q 474 1 540 23 q 333 -21 408 -21 q 299 -20 320 -21 q 256 -17 279 -19 q 207 -14 233 -16 q 157 -10 181 -12 q 35 0 99 -6 l -4 0 l 0 50 q 65 70 42 59 q 90 91 88 81 l 187 792 q 136 784 159 788 q 91 775 113 780 l 91 832 q 236 862 154 849 q 412 875 317 875 q 621 829 551 875 q 691 705 691 784 q 647 576 691 633 q 520 489 603 520 q 591 465 559 484 q 646 418 623 446 q 682 354 669 390 q 695 277 695 318 m 372 430 q 326 427 342 430 q 293 421 309 424 l 247 91 q 257 76 245 84 q 306 61 279 65 q 361 57 333 57 q 432 72 401 57 q 484 114 463 88 q 517 177 506 141 q 528 254 528 213 q 520 319 528 288 q 494 375 512 351 q 445 415 475 400 q 372 430 416 430 m 384 804 l 364 804 q 346 803 355 804 l 304 501 l 326 501 q 397 510 362 501 q 461 539 433 519 q 506 591 489 559 q 524 669 524 623 q 510 733 524 707 q 477 774 497 758 q 432 797 456 790 q 384 804 407 804 m 562 -144 q 554 -163 560 -151 q 541 -187 548 -175 q 527 -211 534 -200 q 518 -228 521 -222 l 39 -228 l 23 -206 q 31 -188 25 -200 q 43 -164 36 -177 q 56 -140 50 -151 q 66 -122 62 -128 l 544 -122 l 562 -144 "},"Ż":{"x_min":10.859375,"x_max":733.15625,"ha":722,"o":"m 216 88 l 503 88 q 529 98 517 88 q 554 129 541 108 q 581 181 567 150 q 613 255 595 213 l 665 241 q 655 186 661 218 q 643 118 649 153 q 632 51 638 83 q 624 0 627 19 l 28 0 l 10 35 l 531 768 l 285 768 q 261 756 275 768 q 231 723 246 744 q 200 673 215 702 q 173 607 185 643 l 120 620 l 177 867 q 208 860 194 862 q 235 856 221 857 q 262 855 248 855 q 295 855 277 855 l 717 855 l 733 820 l 216 88 m 546 1052 q 538 1009 546 1032 q 517 968 531 987 q 483 937 503 949 q 438 926 463 926 q 390 946 405 926 q 375 993 375 967 q 382 1036 375 1014 q 404 1077 390 1058 q 437 1108 418 1096 q 482 1121 457 1121 q 510 1115 498 1121 q 530 1099 522 1109 q 542 1078 538 1090 q 546 1052 546 1066 "},"ḝ":{"x_min":33,"x_max":623.46875,"ha":587,"o":"m 364 -150 q 340 -216 364 -186 q 280 -263 317 -246 q 194 -279 242 -280 q 95 -255 146 -279 l 94 -208 q 146 -221 122 -219 q 186 -217 169 -223 q 212 -201 203 -212 q 222 -177 222 -191 q 208 -154 222 -163 q 174 -146 194 -145 q 193 -105 184 -124 q 207 -69 201 -86 q 218 -34 214 -51 q 220 -28 219 -31 q 165 -15 195 -27 q 102 23 132 -3 q 53 95 73 51 q 33 204 33 140 q 45 306 33 257 q 82 398 58 354 q 140 482 106 442 q 217 558 174 522 q 254 584 232 570 q 302 608 277 597 q 356 626 328 619 q 410 634 384 634 q 477 623 449 634 q 524 596 505 612 q 551 557 542 579 q 560 514 560 536 q 555 474 560 495 q 537 430 551 453 q 500 382 524 407 q 434 329 475 356 q 334 274 393 303 q 194 216 276 246 q 208 158 198 184 q 230 114 217 132 q 259 86 243 96 q 291 76 274 76 q 375 102 320 76 q 512 195 430 129 q 521 186 516 193 q 531 171 526 179 q 539 156 535 164 q 543 147 542 149 q 443 65 488 98 q 360 10 398 31 q 291 -19 322 -9 l 286 -38 q 279 -67 282 -57 q 343 -93 322 -68 q 364 -150 364 -117 m 623 905 q 566 812 598 850 q 502 751 535 774 q 436 717 468 728 q 376 707 403 707 q 316 717 346 707 q 259 751 286 728 q 212 813 233 775 q 180 905 192 851 q 192 918 185 911 q 206 932 198 925 q 220 945 213 940 q 232 955 227 951 q 260 898 242 920 q 299 861 278 875 q 342 841 320 847 q 384 835 365 835 q 431 841 405 835 q 484 861 457 847 q 535 898 510 875 q 578 955 559 920 q 589 946 583 951 q 602 933 595 940 q 614 918 608 926 q 623 905 620 911 m 270 499 q 215 410 237 460 q 191 295 194 360 q 297 349 258 324 q 357 395 337 373 q 383 437 377 417 q 390 480 390 457 q 376 527 390 511 q 343 543 362 543 q 329 540 337 543 q 310 531 320 537 q 289 518 299 526 q 270 499 279 510 "},"õ":{"x_min":26,"x_max":633.46875,"ha":617,"o":"m 433 326 q 424 418 433 377 q 400 485 415 458 q 366 526 386 512 q 325 541 346 541 q 259 517 285 541 q 215 456 232 493 q 192 374 199 419 q 185 285 185 329 q 194 199 185 239 q 220 129 204 159 q 256 81 236 99 q 298 64 277 64 q 343 75 323 64 q 378 107 363 87 q 403 153 393 127 q 420 208 414 179 q 429 268 426 237 q 433 326 433 298 m 591 379 q 579 287 591 333 q 546 196 568 240 q 494 113 524 153 q 426 42 463 73 q 386 15 408 28 q 341 -7 364 2 q 295 -22 318 -17 q 252 -28 273 -28 q 157 -7 199 -28 q 86 46 115 12 q 41 129 57 81 q 26 233 26 177 q 35 327 26 282 q 65 415 44 373 q 117 496 85 457 q 194 569 149 535 q 233 595 212 583 q 278 616 255 607 q 325 629 301 624 q 371 635 349 635 q 465 616 424 635 q 534 563 506 597 q 576 482 562 529 q 591 379 591 435 m 633 910 q 611 871 623 892 q 584 829 598 850 q 553 788 569 808 q 519 754 537 769 q 482 730 501 739 q 443 722 463 722 q 393 732 416 722 q 349 756 370 743 q 306 780 328 769 q 261 792 285 792 q 235 786 247 792 q 211 772 223 781 q 187 748 200 762 q 160 715 174 733 l 117 733 q 152 794 131 761 q 197 856 172 827 q 250 904 222 885 q 307 924 278 924 q 360 912 335 924 q 405 888 384 901 q 446 864 427 875 q 486 853 466 853 q 538 872 514 853 q 588 931 561 891 l 633 910 "},"ẘ":{"x_min":-7.921875,"x_max":943,"ha":941,"o":"m 943 583 q 938 543 943 565 q 922 491 933 521 q 892 420 911 461 q 844 324 873 379 q 776 196 816 269 q 685 29 737 124 q 664 18 679 26 q 630 0 648 10 q 597 -16 613 -8 q 574 -28 581 -25 l 546 -2 q 531 111 539 55 q 515 218 523 167 q 499 312 507 269 q 481 386 490 355 q 462 325 475 362 q 429 243 449 288 q 383 145 409 197 q 326 37 357 92 q 303 24 320 33 q 265 4 285 15 q 227 -15 245 -6 q 203 -28 209 -25 l 176 -2 q 167 81 172 36 q 157 173 162 127 q 148 265 152 220 q 138 349 143 311 q 129 416 133 387 q 122 459 125 445 q 112 489 118 478 q 100 506 106 499 q 87 513 93 512 q 74 515 80 515 q 57 513 68 515 q 34 507 46 510 q 6 499 21 504 l -7 544 q 54 575 21 559 q 117 605 87 592 q 171 626 147 618 q 205 635 194 635 q 234 612 224 635 q 255 542 244 590 q 263 499 258 527 q 271 436 267 471 q 280 362 276 400 q 289 287 285 323 q 296 221 293 251 q 300 174 299 191 q 351 282 327 227 q 393 387 375 337 q 423 481 411 438 q 435 555 434 525 q 468 582 449 568 q 506 607 487 596 q 542 627 525 619 q 569 635 559 635 q 577 623 572 635 q 586 594 581 612 q 598 551 592 575 q 609 502 603 527 q 619 452 614 477 q 628 406 624 427 q 638 342 632 375 q 649 279 644 309 q 658 219 654 248 q 665 166 662 190 q 773 377 736 293 q 810 501 810 460 q 800 523 810 515 q 772 531 790 531 q 746 529 763 531 q 715 521 730 526 l 698 567 q 751 595 723 582 q 803 616 778 607 q 850 630 828 625 q 886 635 871 635 q 907 633 897 635 q 925 626 917 631 q 938 610 933 620 q 943 583 943 600 m 611 856 q 601 890 611 877 q 577 903 592 903 q 553 896 564 903 q 534 878 542 890 q 522 853 526 867 q 518 822 518 838 q 528 788 518 801 q 554 775 538 774 q 576 781 565 775 q 594 799 586 788 q 606 825 602 810 q 611 856 611 840 m 701 882 q 687 819 701 852 q 651 759 674 786 q 596 713 628 731 q 529 695 565 695 q 487 703 505 695 q 457 725 469 711 q 439 757 445 739 q 433 793 433 774 q 445 859 433 825 q 481 921 458 893 q 534 967 504 949 q 601 985 565 985 q 642 976 624 985 q 674 954 661 968 q 694 921 687 940 q 701 882 701 903 "},"ẫ":{"x_min":26,"x_max":712.140625,"ha":669,"o":"m 396 256 q 405 317 400 284 q 415 381 410 349 q 425 442 420 413 q 433 492 429 470 q 392 524 414 510 q 349 539 370 539 q 297 524 321 538 q 255 488 273 511 q 222 437 236 466 q 198 377 207 408 q 184 314 189 345 q 180 256 180 283 q 185 190 180 218 q 200 142 190 161 q 221 114 209 124 q 245 105 232 105 q 307 143 267 105 q 396 256 346 182 m 665 71 q 608 33 636 51 q 556 1 580 15 q 512 -20 531 -12 q 480 -28 492 -28 q 454 -20 469 -28 q 426 5 439 -13 q 402 55 413 24 q 389 134 392 86 q 342 75 367 104 q 291 22 317 45 q 236 -14 264 0 q 181 -28 208 -28 q 129 -15 156 -28 q 79 25 102 -2 q 41 98 56 54 q 26 206 26 143 q 39 311 26 260 q 78 409 53 362 q 142 497 104 456 q 227 571 179 538 q 268 594 245 583 q 315 615 290 606 q 368 629 340 624 q 424 635 395 635 q 480 622 453 635 q 531 594 507 609 q 577 615 554 605 q 619 635 600 625 l 640 590 q 621 573 628 581 q 608 556 613 566 q 598 532 602 546 q 589 495 594 518 q 571 400 579 446 q 557 316 562 354 q 548 248 551 277 q 546 204 546 219 q 556 127 546 157 q 581 97 566 97 q 611 100 595 97 q 654 115 627 104 l 665 71 m 622 731 q 600 707 613 718 q 576 691 587 696 l 424 844 l 229 691 q 211 706 223 695 q 192 731 199 718 l 395 988 l 488 988 l 622 731 m 712 1242 q 690 1203 702 1224 q 662 1161 677 1182 q 632 1121 648 1140 q 597 1086 615 1101 q 560 1063 579 1071 q 522 1054 541 1054 q 472 1065 495 1054 q 428 1088 449 1075 q 385 1113 406 1102 q 340 1124 364 1124 q 314 1119 326 1124 q 290 1104 302 1114 q 266 1080 278 1094 q 239 1047 253 1066 l 196 1065 q 230 1126 210 1093 q 276 1188 251 1159 q 328 1236 301 1217 q 385 1256 356 1256 q 438 1245 414 1256 q 484 1220 463 1234 q 525 1196 505 1207 q 565 1185 545 1185 q 616 1204 593 1185 q 667 1263 640 1223 l 712 1242 "},"Ṡ":{"x_min":16.328125,"x_max":653.75,"ha":661,"o":"m 652 812 q 652 800 655 810 q 642 776 649 789 q 627 745 636 762 q 608 715 617 729 q 591 690 599 701 q 578 677 583 680 l 538 681 q 516 730 530 709 q 484 765 501 751 q 447 786 467 779 q 406 794 427 794 q 346 783 372 794 q 304 756 321 773 q 280 718 288 739 q 272 674 272 697 q 276 643 272 659 q 296 609 281 627 q 338 571 311 591 q 411 528 366 551 q 503 475 464 501 q 567 421 542 449 q 604 362 592 393 q 616 293 616 331 q 588 172 616 229 q 511 72 560 115 q 397 4 463 29 q 257 -21 332 -21 q 207 -16 234 -21 q 153 -5 180 -12 q 102 11 126 1 q 58 32 77 21 q 27 57 39 44 q 16 83 16 70 q 21 102 16 90 q 35 128 26 114 q 54 158 44 143 q 76 185 65 172 q 97 205 86 197 q 114 213 107 213 q 130 202 121 213 q 151 177 139 192 q 178 144 163 162 q 212 110 193 125 q 255 85 232 95 q 307 75 278 75 q 369 85 340 75 q 419 116 398 96 q 453 164 440 136 q 466 229 466 193 q 456 283 466 258 q 424 331 446 308 q 366 377 402 355 q 280 424 331 400 q 206 468 235 445 q 160 517 176 492 q 136 571 143 543 q 130 629 130 598 q 152 718 130 674 q 217 796 175 762 q 319 853 260 831 q 452 875 379 875 q 568 856 516 875 q 652 812 619 837 m 510 1052 q 502 1009 510 1032 q 481 968 495 987 q 447 937 467 949 q 402 926 427 926 q 354 946 369 926 q 339 993 339 967 q 346 1036 339 1014 q 368 1077 354 1058 q 401 1108 382 1096 q 446 1121 421 1121 q 474 1115 462 1121 q 494 1099 486 1109 q 506 1078 502 1090 q 510 1052 510 1066 "},"ǝ":{"x_min":33,"x_max":560,"ha":587,"o":"m 336 106 q 360 147 349 122 q 381 200 372 171 q 395 263 389 230 q 402 333 400 297 q 296 276 335 302 q 236 227 257 250 q 209 181 215 203 q 203 137 203 159 q 219 86 203 105 q 260 68 236 68 q 303 78 283 68 q 336 106 322 89 m 560 401 q 516 206 560 294 q 390 48 472 118 q 354 21 375 35 q 307 -2 333 7 q 253 -20 282 -13 q 194 -28 225 -28 q 123 -16 153 -28 q 72 14 93 -4 q 42 56 52 33 q 33 101 33 79 q 37 141 33 119 q 55 186 41 162 q 93 236 68 210 q 158 290 117 263 q 257 347 198 318 q 399 407 316 376 q 362 502 389 469 q 302 535 335 535 q 214 506 268 535 q 85 411 160 477 q 76 420 81 413 q 67 434 72 427 q 58 449 62 442 q 54 459 55 457 q 147 541 103 507 q 228 595 190 575 q 299 625 266 616 q 365 635 333 635 q 432 622 397 635 q 495 582 466 609 q 541 510 523 554 q 560 401 560 465 "},"˙":{"x_min":117,"x_max":288,"ha":246,"o":"m 288 861 q 280 817 288 840 q 259 777 273 795 q 225 746 245 758 q 180 735 205 735 q 132 755 147 735 q 117 802 117 775 q 124 845 117 822 q 145 886 131 867 q 179 917 159 904 q 224 930 199 930 q 252 924 240 930 q 272 908 264 918 q 283 886 279 899 q 288 861 288 874 "},"ê":{"x_min":33,"x_max":594.109375,"ha":587,"o":"m 270 499 q 215 410 237 460 q 191 295 194 360 q 297 349 258 324 q 357 395 337 373 q 383 437 377 417 q 390 480 390 457 q 376 527 390 511 q 343 543 362 543 q 329 540 337 543 q 310 531 320 537 q 289 518 299 526 q 270 499 279 510 m 560 515 q 555 475 560 496 q 537 431 551 454 q 500 382 524 408 q 434 330 475 357 q 334 275 393 303 q 194 217 276 246 q 208 158 198 184 q 230 114 217 132 q 259 86 244 96 q 292 77 275 77 q 376 103 321 77 q 513 195 431 129 q 522 186 517 193 q 531 172 527 180 q 539 157 536 164 q 544 147 543 150 q 443 65 489 99 q 360 11 398 32 q 290 -18 322 -9 q 227 -28 258 -28 q 166 -15 200 -28 q 102 24 132 -2 q 53 96 73 52 q 33 205 33 140 q 45 306 33 258 q 82 399 58 355 q 140 483 106 443 q 217 559 174 523 q 254 585 232 571 q 302 609 277 598 q 356 627 328 620 q 410 635 384 635 q 477 624 449 635 q 524 596 505 613 q 551 558 542 580 q 560 515 560 537 m 594 731 q 571 707 584 718 q 548 691 558 696 l 396 844 l 201 691 q 183 706 195 695 q 164 731 170 718 l 366 988 l 459 988 l 594 731 "},"„":{"x_min":15.1875,"x_max":554,"ha":657,"o":"m 252 72 q 234 -14 252 29 q 187 -96 216 -57 q 124 -169 159 -135 q 55 -226 89 -202 l 16 -192 q 47 -153 31 -175 q 74 -108 62 -131 q 94 -60 87 -84 q 102 -14 102 -36 q 78 36 102 19 q 21 52 55 52 l 15 103 q 33 115 19 108 q 66 131 47 123 q 105 147 84 139 q 145 161 126 155 q 180 171 164 167 q 203 174 195 174 q 236 137 220 161 q 252 72 252 112 m 554 72 q 536 -14 554 29 q 489 -96 518 -57 q 426 -169 461 -135 q 357 -226 391 -202 l 318 -192 q 349 -153 333 -175 q 376 -108 364 -131 q 396 -60 389 -84 q 404 -14 404 -36 q 380 36 403 20 q 323 52 357 52 l 317 103 q 336 115 322 108 q 368 131 350 123 q 408 147 387 139 q 448 161 429 155 q 483 171 467 167 q 506 174 498 174 q 538 137 523 161 q 554 72 554 112 "},"Â":{"x_min":-33.90625,"x_max":768.421875,"ha":810,"o":"m 251 291 l 165 95 q 176 65 156 74 q 246 49 196 56 l 240 0 l -33 0 l -27 49 q 40 66 16 57 q 73 95 64 75 l 390 817 q 426 842 407 830 q 466 863 446 854 q 506 880 486 873 q 543 893 526 887 l 697 95 q 702 78 699 86 q 714 65 706 71 q 735 56 722 60 q 768 49 748 52 l 762 0 l 449 0 l 456 49 q 524 63 505 52 q 539 95 543 73 l 503 291 l 251 291 m 487 373 l 426 693 l 287 373 l 487 373 m 704 948 q 684 924 694 935 q 663 908 674 913 l 504 1026 l 316 908 q 300 923 310 912 q 284 948 290 935 l 480 1158 l 563 1158 l 704 948 "},"´":{"x_min":109.875,"x_max":411.6875,"ha":411,"o":"m 411 927 l 155 691 q 131 703 144 693 q 109 724 119 713 l 268 995 l 294 990 q 333 982 313 986 q 372 974 354 978 q 396 967 389 969 l 411 927 "},"Ɛ":{"x_min":26,"x_max":693.171875,"ha":677,"o":"m 693 805 q 676 773 687 793 q 652 731 665 753 q 627 690 639 709 q 605 660 614 671 l 561 671 q 536 716 550 696 q 505 752 522 737 q 465 776 487 768 q 416 785 443 785 q 350 774 380 785 q 299 743 320 763 q 265 694 277 723 q 253 629 253 665 q 263 579 253 603 q 300 535 274 555 q 367 502 325 516 q 473 487 410 489 l 463 418 q 369 405 417 416 q 280 371 320 393 q 214 314 240 348 q 189 234 189 280 q 199 174 189 199 q 231 131 210 148 q 279 106 251 114 q 343 98 308 98 q 398 101 372 98 q 451 116 423 105 q 510 146 478 127 q 585 194 542 165 l 613 144 q 513 59 559 91 q 427 9 468 27 q 347 -14 386 -8 q 268 -21 309 -21 q 172 -7 216 -21 q 95 32 127 6 q 44 100 62 59 q 26 193 26 140 q 43 271 26 234 q 88 341 60 309 q 150 398 116 373 q 219 439 185 424 q 174 465 195 450 q 138 500 153 480 q 113 543 122 519 q 104 594 104 567 q 143 722 104 666 q 245 815 182 777 q 345 858 290 842 q 465 875 400 875 q 524 871 494 875 q 583 859 554 867 q 640 837 613 850 q 693 805 668 823 "},"ỏ":{"x_min":26,"x_max":591,"ha":617,"o":"m 433 326 q 424 418 433 377 q 400 485 415 458 q 366 526 386 512 q 325 541 346 541 q 259 517 285 541 q 215 456 232 493 q 192 374 199 419 q 185 285 185 329 q 194 199 185 239 q 220 129 204 159 q 256 81 236 99 q 298 64 277 64 q 343 75 323 64 q 378 107 363 87 q 403 153 393 127 q 420 208 414 179 q 429 268 426 237 q 433 326 433 298 m 591 379 q 579 287 591 333 q 546 196 568 240 q 494 113 524 153 q 426 42 463 73 q 386 15 408 28 q 341 -7 364 2 q 295 -22 318 -17 q 252 -28 273 -28 q 157 -7 199 -28 q 86 46 115 12 q 41 129 57 81 q 26 233 26 177 q 35 327 26 282 q 65 415 44 373 q 117 496 85 457 q 194 569 149 535 q 233 595 212 583 q 278 616 255 607 q 325 629 301 624 q 371 635 349 635 q 465 616 424 635 q 534 563 506 597 q 576 482 562 529 q 591 379 591 435 m 514 904 q 505 874 514 888 q 482 846 495 859 q 452 822 468 834 q 422 799 435 810 q 399 777 408 788 q 390 755 390 766 q 396 740 390 747 q 419 723 403 733 q 404 716 413 719 q 384 710 394 713 q 364 705 374 707 q 349 703 354 703 q 312 731 323 718 q 301 756 301 744 q 310 776 301 766 q 333 796 319 786 q 363 815 347 805 q 393 836 379 825 q 417 861 407 847 q 426 890 426 874 q 418 919 426 908 q 388 930 409 930 q 366 924 375 930 q 351 911 357 919 q 344 893 346 902 q 345 876 342 883 q 328 870 340 874 q 300 862 315 866 q 273 854 286 858 q 253 850 259 851 l 248 858 q 261 904 247 882 q 297 944 274 927 q 350 971 320 961 q 411 982 379 982 q 459 975 440 982 q 491 958 479 969 q 509 933 504 947 q 514 904 514 919 "},"ʃ":{"x_min":-230.59375,"x_max":673.46875,"ha":417,"o":"m 673 951 q 634 916 657 935 q 586 880 610 897 q 543 851 562 863 q 515 840 523 840 q 494 852 504 840 q 473 880 484 864 q 448 907 462 895 q 415 920 434 920 q 384 913 400 920 q 353 889 368 907 q 324 838 338 871 q 299 751 310 806 q 286 641 289 699 q 285 520 284 582 q 290 394 286 458 q 297 268 294 330 q 300 147 300 206 q 295 36 301 88 q 270 -68 289 -19 q 222 -159 250 -117 q 158 -234 193 -201 q 86 -290 123 -267 q 12 -326 48 -313 q -55 -339 -24 -339 q -118 -329 -87 -339 q -174 -306 -149 -320 q -215 -275 -200 -292 q -230 -244 -230 -259 q -224 -225 -230 -237 q -207 -200 -217 -213 q -186 -172 -198 -186 q -163 -147 -174 -158 q -143 -129 -151 -137 q -132 -122 -135 -122 q -115 -139 -125 -122 q -91 -175 -105 -155 q -55 -211 -76 -195 q -4 -228 -33 -228 q 42 -215 19 -228 q 83 -175 64 -202 q 115 -103 101 -147 q 134 3 128 -59 q 141 196 145 103 q 131 380 137 290 q 124 553 126 469 q 136 717 122 638 q 161 801 144 763 q 201 870 179 839 q 249 925 223 901 q 299 967 274 949 q 337 992 316 980 q 380 1012 358 1003 q 425 1026 402 1021 q 468 1031 447 1031 q 532 1020 501 1031 q 590 996 563 1010 q 637 970 616 983 q 673 951 659 956 "},"Ĉ":{"x_min":42,"x_max":730.28125,"ha":705,"o":"m 729 807 q 727 795 731 805 q 715 770 723 785 q 698 738 708 755 q 678 706 688 721 q 659 678 668 691 q 643 661 649 666 l 603 671 q 580 713 593 693 q 549 749 567 733 q 508 773 531 764 q 457 783 485 783 q 405 775 430 783 q 353 746 380 767 q 282 662 310 713 q 236 557 253 612 q 212 447 219 502 q 205 350 205 392 q 223 226 205 276 q 271 146 242 176 q 334 103 300 116 q 398 91 368 91 q 437 94 415 91 q 487 109 460 98 q 548 139 514 120 q 624 189 582 158 q 631 181 628 188 q 639 166 635 174 q 645 152 642 158 q 649 143 647 145 q 558 66 603 97 q 473 16 514 35 q 394 -9 432 -1 q 325 -18 357 -18 q 215 4 266 -18 q 125 68 163 26 q 64 171 86 110 q 42 311 42 232 q 55 441 42 375 q 96 570 69 507 q 165 689 123 632 q 264 791 207 746 q 319 826 289 810 q 381 852 349 841 q 447 869 413 863 q 512 875 481 875 q 578 869 546 875 q 640 855 611 864 q 691 833 668 845 q 729 807 715 821 m 696 948 q 676 924 687 935 q 655 908 666 913 l 497 1026 l 309 908 q 293 923 303 912 q 276 948 283 935 l 473 1158 l 556 1158 l 696 948 "},"Ɋ":{"x_min":44,"x_max":907.671875,"ha":810,"o":"m 603 709 q 573 732 589 720 q 540 753 558 744 q 500 768 521 762 q 455 775 479 775 q 388 756 420 775 q 329 705 356 737 q 279 630 301 673 q 240 540 256 587 q 215 441 224 492 q 207 343 207 391 q 217 251 207 291 q 247 182 228 210 q 288 141 265 155 q 337 127 312 127 q 381 148 355 127 q 437 208 407 169 q 497 300 466 246 q 557 419 529 354 q 580 566 569 496 q 603 709 592 637 m 757 710 q 748 652 754 690 q 733 563 741 614 q 716 453 725 513 q 697 329 706 393 q 678 201 687 265 q 663 80 670 138 q 653 -27 657 22 q 649 -110 649 -76 q 660 -203 649 -170 q 703 -237 672 -237 q 720 -233 711 -237 q 735 -223 728 -230 q 746 -205 742 -216 q 751 -178 751 -194 q 749 -169 751 -175 q 746 -155 748 -163 q 741 -141 744 -148 q 735 -129 738 -134 q 761 -115 743 -124 q 802 -98 780 -107 q 848 -80 824 -89 q 890 -66 871 -71 l 907 -105 q 899 -144 907 -125 q 879 -182 892 -163 q 852 -216 867 -200 q 822 -244 837 -232 q 777 -276 803 -260 q 722 -307 752 -293 q 661 -330 693 -321 q 599 -339 630 -339 q 560 -328 579 -339 q 527 -295 542 -317 q 503 -237 512 -272 q 494 -153 494 -202 q 496 -70 494 -110 q 503 11 498 -31 q 515 102 508 54 q 530 212 521 151 q 461 114 496 157 q 393 41 426 71 q 327 -5 359 10 q 264 -21 294 -21 q 182 0 222 -21 q 112 62 143 22 q 62 158 81 101 q 44 284 44 215 q 60 430 44 358 q 108 566 76 501 q 187 687 140 631 q 295 786 234 743 q 348 819 319 803 q 409 847 377 835 q 476 867 441 860 q 547 875 511 875 q 588 869 566 875 q 630 856 609 864 q 669 837 651 847 q 702 817 688 826 q 748 847 722 833 q 797 874 773 861 l 828 831 q 780 777 797 805 q 757 710 763 748 "},"Ờ":{"x_min":51,"x_max":910,"ha":849,"o":"m 622 512 q 611 619 622 569 q 579 706 600 669 q 526 763 558 742 q 454 785 495 785 q 379 765 413 785 q 318 712 345 745 q 272 636 292 679 q 240 546 252 593 q 221 451 227 499 q 215 360 215 403 q 225 244 215 297 q 258 153 236 191 q 309 94 279 115 q 380 73 340 73 q 458 93 423 73 q 519 148 493 114 q 566 227 546 182 q 597 321 585 273 q 616 420 610 370 q 622 512 622 469 m 910 961 q 862 845 910 899 q 727 750 814 792 q 769 646 755 704 q 784 524 784 589 q 774 427 784 476 q 748 329 765 377 q 707 236 731 281 q 651 152 682 191 q 587 84 623 115 q 512 29 552 52 q 428 -7 472 6 q 339 -21 385 -21 q 217 6 270 -21 q 126 82 163 34 q 70 194 89 130 q 51 328 51 257 q 59 428 51 379 q 83 522 67 476 q 121 611 99 569 q 170 690 143 653 q 233 762 198 728 q 309 820 268 795 q 397 860 350 845 q 498 875 445 875 q 606 855 558 875 q 687 801 653 836 q 739 840 721 818 q 757 890 757 862 q 755 905 757 896 q 749 922 753 913 q 738 938 745 930 q 721 951 731 946 l 876 1026 q 890 1012 884 1020 q 901 996 897 1004 q 907 978 905 987 q 910 961 910 969 m 602 954 q 581 927 592 941 q 560 908 571 914 l 272 1068 l 283 1110 q 312 1127 295 1117 q 348 1145 330 1136 q 384 1162 367 1155 q 410 1174 400 1169 l 602 954 "},"Ω":{"x_min":5.421875,"x_max":807.15625,"ha":850,"o":"m 25 0 l 5 23 q 13 66 8 40 q 25 122 18 92 q 39 180 31 151 q 54 231 47 209 l 101 231 q 110 144 103 173 q 143 116 118 116 l 268 116 q 181 218 216 168 q 125 315 145 267 q 98 408 104 362 q 98 501 91 454 q 120 590 104 545 q 163 677 137 635 q 225 754 189 719 q 305 817 261 790 q 404 859 350 844 q 519 875 457 875 q 655 849 596 875 q 749 778 713 824 q 799 665 786 731 q 802 516 813 599 q 772 417 794 466 q 713 320 750 369 q 625 221 676 272 q 510 116 574 170 l 648 116 q 669 122 660 116 q 687 142 678 128 q 707 179 696 156 q 732 234 717 201 l 777 221 q 766 170 773 201 q 752 108 759 140 q 737 47 744 76 q 725 0 730 17 l 413 0 l 429 116 q 498 207 468 167 q 550 280 528 247 q 589 340 573 312 q 615 395 604 368 q 633 450 626 422 q 644 511 639 478 q 646 625 653 573 q 619 714 639 676 q 565 772 598 751 q 488 794 532 794 q 425 780 454 794 q 371 745 396 767 q 326 694 346 723 q 292 635 307 665 q 269 574 278 604 q 257 519 260 544 q 250 454 252 483 q 250 397 248 425 q 260 341 252 369 q 280 280 267 313 q 314 207 294 247 q 362 116 334 167 l 346 0 l 25 0 "},"ȧ":{"x_min":26,"x_max":665.359375,"ha":669,"o":"m 396 256 q 405 317 400 284 q 415 381 410 349 q 425 442 420 413 q 433 492 429 470 q 392 524 414 510 q 349 539 370 539 q 297 524 321 538 q 255 488 273 511 q 222 437 236 466 q 198 377 207 408 q 184 314 189 345 q 180 256 180 283 q 185 190 180 218 q 200 142 190 161 q 221 114 209 124 q 245 105 232 105 q 307 143 267 105 q 396 256 346 182 m 665 71 q 608 33 636 51 q 556 1 580 15 q 512 -20 531 -12 q 480 -28 492 -28 q 454 -20 469 -28 q 426 5 439 -13 q 402 55 413 24 q 389 134 392 86 q 342 75 367 104 q 291 22 317 45 q 236 -14 264 0 q 181 -28 208 -28 q 129 -15 156 -28 q 79 25 102 -2 q 41 98 56 54 q 26 206 26 143 q 39 311 26 260 q 78 409 53 362 q 142 497 104 456 q 227 571 179 538 q 268 594 245 583 q 315 615 290 606 q 368 629 340 624 q 424 635 395 635 q 480 622 453 635 q 531 594 507 609 q 577 615 554 605 q 619 635 600 625 l 640 590 q 621 573 628 581 q 608 556 613 566 q 598 532 602 546 q 589 495 594 518 q 571 400 579 446 q 557 316 562 354 q 548 248 551 277 q 546 204 546 219 q 556 127 546 157 q 581 97 566 97 q 611 100 595 97 q 654 115 627 104 l 665 71 m 500 861 q 492 817 500 840 q 471 777 485 795 q 437 746 457 758 q 392 735 417 735 q 344 755 360 735 q 329 802 329 775 q 336 845 329 822 q 358 886 344 867 q 391 917 371 904 q 436 930 411 930 q 464 924 452 930 q 484 908 476 918 q 496 886 492 899 q 500 861 500 874 "},"Ö":{"x_min":51,"x_max":784,"ha":795,"o":"m 622 512 q 611 619 622 569 q 579 706 600 669 q 526 763 558 742 q 454 785 495 785 q 379 765 413 785 q 318 712 345 745 q 272 636 292 679 q 240 546 252 593 q 221 451 227 499 q 215 360 215 403 q 225 244 215 297 q 258 153 236 191 q 309 94 279 115 q 380 73 340 73 q 458 93 423 73 q 519 148 493 114 q 566 227 546 182 q 597 321 585 273 q 616 420 610 370 q 622 512 622 469 m 784 525 q 774 427 784 476 q 748 329 765 377 q 707 236 731 281 q 651 152 682 191 q 587 84 623 116 q 512 29 552 52 q 428 -7 472 6 q 339 -21 385 -21 q 217 6 270 -21 q 126 82 163 34 q 70 194 89 130 q 51 328 51 257 q 59 428 51 379 q 83 522 67 476 q 121 611 99 569 q 170 690 143 653 q 233 762 198 728 q 309 820 267 795 q 397 860 350 845 q 498 875 444 875 q 624 847 571 875 q 713 771 678 819 q 766 659 749 723 q 784 525 784 596 m 464 1052 q 457 1009 464 1032 q 435 968 449 987 q 401 937 421 949 q 355 926 381 926 q 307 946 323 926 q 292 993 292 967 q 300 1036 292 1014 q 321 1077 307 1058 q 355 1108 335 1096 q 400 1121 374 1121 q 448 1100 432 1121 q 464 1052 464 1079 m 726 1052 q 719 1009 726 1032 q 697 968 711 987 q 663 937 683 949 q 617 926 643 926 q 570 946 585 926 q 554 993 554 967 q 562 1036 554 1014 q 583 1077 569 1058 q 617 1108 597 1096 q 662 1121 636 1121 q 710 1100 694 1121 q 726 1052 726 1079 "},"ḏ":{"x_min":-14.234375,"x_max":670.71875,"ha":690,"o":"m 400 258 q 415 362 406 303 q 435 486 425 420 q 394 522 416 506 q 347 539 372 539 q 295 525 319 539 q 253 489 272 511 q 221 438 235 467 q 197 378 207 409 q 184 315 188 346 q 180 257 180 283 q 201 143 180 181 q 250 106 222 106 q 274 114 260 106 q 307 140 288 122 q 349 187 326 158 q 400 258 372 216 m 670 70 q 614 33 642 50 q 561 1 585 15 q 516 -19 537 -11 q 482 -28 496 -28 q 456 -19 471 -28 q 429 7 442 -11 q 406 58 416 26 q 393 136 396 90 q 283 14 338 56 q 182 -28 229 -28 q 128 -14 156 -28 q 77 29 100 0 q 40 104 55 58 q 26 213 26 150 q 39 317 26 267 q 77 414 52 368 q 140 499 103 459 q 225 571 177 539 q 267 594 244 583 q 315 614 290 605 q 366 629 340 624 q 417 635 393 635 q 436 631 426 635 q 456 621 446 627 q 468 699 463 661 q 478 769 474 736 q 484 828 482 801 q 487 872 487 854 q 484 897 487 887 q 477 910 482 906 q 467 916 473 915 q 456 917 462 917 q 438 914 450 917 q 416 908 427 911 q 388 899 403 904 l 377 946 q 448 978 411 962 q 517 1005 484 993 q 575 1023 550 1016 q 613 1031 601 1031 q 648 1018 636 1031 q 661 975 661 1006 q 656 907 661 948 q 643 814 651 865 q 625 704 635 763 q 605 587 616 646 q 585 471 594 528 q 567 363 575 413 q 554 275 559 314 q 550 212 550 236 q 560 127 550 155 q 585 99 570 99 q 619 102 603 99 q 659 116 635 106 l 670 70 m 524 -144 q 516 -163 522 -151 q 503 -187 510 -175 q 490 -211 497 -200 q 480 -228 484 -222 l 2 -228 l -14 -206 q -6 -188 -11 -200 q 6 -164 0 -177 q 18 -140 12 -151 q 29 -122 25 -128 l 507 -122 l 524 -144 "},"z":{"x_min":-12.203125,"x_max":531.734375,"ha":532,"o":"m 531 593 q 464 516 494 553 q 409 445 435 480 q 360 376 383 411 q 311 305 337 341 q 257 228 286 268 q 193 142 229 187 q 211 147 202 144 q 229 151 219 149 q 248 153 239 153 q 283 147 262 153 q 326 134 303 141 q 370 121 348 127 q 410 116 392 116 q 424 118 416 116 q 442 128 432 120 q 462 150 451 135 q 486 189 474 165 l 526 166 q 491 90 507 124 q 454 33 474 57 q 411 -1 435 10 q 354 -14 387 -14 q 295 -6 324 -14 q 239 9 266 0 q 189 24 212 17 q 149 32 166 32 q 95 18 127 32 q 12 -21 63 4 l -12 12 q 55 98 21 53 q 121 189 88 143 q 184 279 153 234 q 242 363 215 323 q 294 437 270 403 q 338 494 318 470 l 181 494 q 153 490 165 494 q 130 476 141 486 q 111 447 120 465 q 92 401 103 429 l 48 411 q 63 475 54 442 q 78 539 71 508 q 91 595 86 569 q 100 635 97 620 q 135 626 113 631 q 181 621 158 621 l 512 621 l 531 593 "},"Ḅ":{"x_min":-4.859375,"x_max":695,"ha":739,"o":"m 695 277 q 666 156 695 211 q 589 62 638 101 q 474 1 540 23 q 333 -21 408 -21 q 299 -20 320 -21 q 256 -17 279 -19 q 207 -14 233 -16 q 157 -10 181 -12 q 35 0 99 -6 l -4 0 l 0 50 q 65 70 42 59 q 90 91 88 81 l 187 792 q 136 784 159 788 q 91 775 113 780 l 91 832 q 236 862 154 849 q 412 875 317 875 q 621 829 551 875 q 691 705 691 784 q 647 576 691 633 q 520 489 603 520 q 591 465 559 484 q 646 418 623 446 q 682 354 669 390 q 695 277 695 318 m 372 430 q 326 427 342 430 q 293 421 309 424 l 247 91 q 257 76 245 84 q 306 61 279 65 q 361 57 333 57 q 432 72 401 57 q 484 114 463 88 q 517 177 506 141 q 528 254 528 213 q 520 319 528 288 q 494 375 512 351 q 445 415 475 400 q 372 430 416 430 m 384 804 l 364 804 q 346 803 355 804 l 304 501 l 326 501 q 397 510 362 501 q 461 539 433 519 q 506 591 489 559 q 524 669 524 623 q 510 733 524 707 q 477 774 497 758 q 432 797 456 790 q 384 804 407 804 m 374 -172 q 366 -216 374 -193 q 345 -256 359 -238 q 311 -287 331 -275 q 266 -299 291 -299 q 218 -278 234 -299 q 203 -231 203 -258 q 210 -188 203 -211 q 232 -147 218 -166 q 265 -116 246 -129 q 310 -104 285 -104 q 338 -109 326 -104 q 358 -125 350 -115 q 370 -147 366 -134 q 374 -172 374 -159 "},"™":{"x_min":105.796875,"x_max":808.4375,"ha":818,"o":"m 404 847 q 401 830 403 840 q 396 809 399 820 q 390 787 394 797 q 385 769 387 776 l 366 769 q 362 805 364 791 q 350 819 361 819 l 289 819 l 258 589 q 264 581 257 585 q 295 571 271 576 l 291 547 l 149 547 l 153 571 q 185 581 177 576 q 193 589 193 585 l 225 819 l 162 819 q 146 807 155 819 q 123 768 138 795 l 105 774 q 110 792 107 781 q 116 815 113 803 q 122 838 119 827 q 127 855 125 848 l 396 855 l 404 847 m 805 830 q 773 824 791 830 l 743 586 q 750 578 742 582 q 777 571 758 574 l 773 547 l 642 547 l 645 571 q 673 578 663 574 q 683 586 683 582 l 706 772 l 570 547 l 545 547 l 472 770 l 445 586 q 452 578 444 582 q 477 571 459 574 l 473 547 l 368 547 l 372 571 q 398 578 389 574 q 408 586 407 582 l 442 822 q 425 828 434 827 q 409 830 417 830 l 413 855 l 501 855 q 509 851 506 855 q 516 833 512 847 l 581 635 l 701 833 q 713 851 710 848 q 722 855 716 855 l 808 855 l 805 830 "},"ặ":{"x_min":26,"x_max":665.359375,"ha":669,"o":"m 396 256 q 405 317 400 284 q 415 381 410 349 q 425 442 420 413 q 433 492 429 470 q 392 524 414 510 q 349 539 370 539 q 297 524 321 538 q 255 488 273 511 q 222 437 236 466 q 198 377 207 408 q 184 314 189 345 q 180 256 180 283 q 185 190 180 218 q 200 142 190 161 q 221 114 209 124 q 245 105 232 105 q 307 143 267 105 q 396 256 346 182 m 665 71 q 608 33 636 51 q 556 1 580 15 q 512 -20 531 -12 q 480 -28 492 -28 q 454 -20 469 -28 q 426 5 439 -13 q 402 55 413 24 q 389 134 392 86 q 342 75 367 104 q 291 22 317 45 q 236 -14 264 0 q 181 -28 208 -28 q 129 -15 156 -28 q 79 25 102 -2 q 41 98 56 54 q 26 206 26 143 q 39 311 26 260 q 78 409 53 362 q 142 497 104 456 q 227 571 179 538 q 268 594 245 583 q 315 615 290 606 q 368 629 340 624 q 424 635 395 635 q 480 622 453 635 q 531 594 507 609 q 577 615 554 605 q 619 635 600 625 l 640 590 q 621 573 628 581 q 608 556 613 566 q 598 532 602 546 q 589 495 594 518 q 571 400 579 446 q 557 316 562 354 q 548 248 551 277 q 546 204 546 219 q 556 127 546 157 q 581 97 566 97 q 611 100 595 97 q 654 115 627 104 l 665 71 m 359 -172 q 351 -216 359 -193 q 330 -256 344 -238 q 296 -287 316 -275 q 251 -299 276 -299 q 204 -278 219 -299 q 188 -231 188 -258 q 195 -188 188 -211 q 217 -147 203 -166 q 250 -116 231 -129 q 295 -104 270 -104 q 323 -109 311 -104 q 343 -125 335 -115 q 355 -147 351 -134 q 359 -172 359 -159 m 651 905 q 595 812 626 850 q 530 751 563 774 q 464 717 497 728 q 404 707 432 707 q 344 717 375 707 q 288 751 314 728 q 241 813 261 775 q 208 905 220 851 q 220 918 213 911 q 234 932 227 925 q 248 945 242 940 q 261 955 255 951 q 288 898 271 920 q 327 861 306 875 q 370 841 348 847 q 413 835 393 835 q 460 841 434 835 q 512 861 486 847 q 563 898 539 875 q 607 955 588 920 q 617 946 611 951 q 630 933 623 940 q 642 918 636 926 q 651 905 648 911 "},"Ř":{"x_min":-5.59375,"x_max":786.5625,"ha":777,"o":"m 380 804 q 364 803 372 804 q 348 803 356 803 l 304 478 q 336 471 320 472 q 369 469 351 469 q 437 481 404 469 q 495 514 470 492 q 536 567 521 535 q 551 639 551 598 q 535 721 551 689 q 494 771 519 753 q 439 797 468 790 q 380 804 409 804 m 786 78 q 728 44 760 61 q 668 16 697 28 q 617 -2 640 4 q 585 -10 594 -10 q 563 -6 574 -10 q 540 6 551 -3 q 518 33 529 15 q 496 79 507 50 l 374 394 q 333 396 355 394 q 294 402 312 398 l 252 90 q 271 70 250 82 q 335 49 292 59 l 328 0 l -5 0 l 1 49 q 67 70 43 59 q 92 90 90 81 l 186 787 q 136 779 160 784 q 90 770 111 775 l 90 832 q 158 848 121 841 q 237 862 195 856 q 323 871 278 868 q 414 875 368 875 q 541 861 486 875 q 635 819 597 847 q 693 751 673 792 q 714 658 714 711 q 699 588 714 625 q 657 516 684 551 q 588 453 629 482 q 494 409 547 425 l 644 144 q 665 118 654 127 q 689 108 675 110 q 722 111 703 107 q 768 125 741 116 l 786 78 m 495 924 l 402 924 l 261 1138 q 284 1163 271 1151 q 307 1184 297 1175 l 466 1055 l 655 1184 q 674 1164 663 1176 q 692 1138 685 1151 l 495 924 "},"Ň":{"x_min":-1.359375,"x_max":915.59375,"ha":858,"o":"m 909 805 q 841 786 862 798 q 817 763 819 773 l 710 -20 q 616 4 651 -14 q 567 54 582 24 l 263 625 l 190 90 q 193 81 189 86 q 206 69 196 75 q 231 58 215 63 q 270 49 246 52 l 263 0 l -1 0 l 5 49 q 73 68 52 55 q 96 90 94 81 l 187 756 q 107 805 153 797 l 113 855 l 286 855 q 304 853 297 855 q 316 846 310 852 q 327 830 322 841 q 343 802 333 820 l 650 223 l 724 763 q 721 773 725 767 q 709 784 718 779 q 684 795 700 790 q 644 805 668 801 l 650 855 l 915 855 l 909 805 m 569 924 l 476 924 l 335 1138 q 358 1163 345 1151 q 381 1184 371 1175 l 540 1055 l 729 1184 q 748 1164 737 1176 q 766 1138 759 1151 l 569 924 "},"ừ":{"x_min":16.90625,"x_max":889,"ha":828,"o":"m 889 714 q 872 644 889 677 q 823 580 855 610 q 745 524 791 550 q 642 477 699 498 q 630 404 636 442 q 617 331 623 367 q 608 263 612 295 q 604 208 604 231 q 613 122 604 146 q 639 98 622 98 q 672 102 657 98 q 712 116 688 106 l 724 72 q 670 35 697 53 q 617 3 642 17 q 569 -19 591 -10 q 531 -28 547 -28 q 501 -17 516 -28 q 472 13 485 -7 q 451 66 460 34 q 441 140 443 98 q 385 73 415 104 q 322 20 355 42 q 258 -15 290 -2 q 194 -28 225 -28 q 154 -17 175 -28 q 115 14 133 -6 q 86 66 98 35 q 75 138 75 97 q 78 187 75 159 q 86 247 81 215 q 97 311 91 278 q 108 376 103 345 q 116 432 113 406 q 120 474 120 457 q 117 499 120 490 q 112 513 115 508 q 103 518 108 517 q 92 520 98 520 q 75 517 86 520 q 54 512 65 515 q 27 504 42 508 l 16 549 q 82 577 45 562 q 155 605 120 592 q 219 626 191 618 q 260 635 248 635 q 287 622 280 635 q 294 578 294 609 q 289 526 294 558 q 279 457 285 495 q 267 380 273 420 q 254 303 260 340 q 244 234 248 265 q 240 183 240 202 q 251 124 240 144 q 275 105 262 105 q 304 114 287 105 q 345 144 322 124 q 394 196 367 164 q 451 274 421 229 q 460 330 455 302 q 469 385 465 359 q 476 435 473 412 q 480 474 480 458 q 478 499 480 490 q 473 513 476 508 q 465 518 469 517 q 454 520 461 520 q 438 517 448 520 q 419 512 429 515 q 395 504 408 508 l 383 549 q 448 577 412 562 q 519 605 484 592 q 581 626 553 618 q 621 635 609 635 q 646 622 640 635 q 653 578 653 609 q 651 546 653 563 q 713 588 691 564 q 736 643 736 611 q 733 657 736 649 q 727 674 731 666 q 716 691 723 683 q 699 704 710 698 l 854 779 q 880 749 871 768 q 889 714 889 729 m 493 715 q 463 700 479 707 q 436 691 448 693 l 240 937 l 267 971 q 295 977 276 973 q 337 984 315 980 q 380 991 360 988 q 408 995 400 995 l 493 715 "},"Ợ":{"x_min":51,"x_max":910,"ha":849,"o":"m 622 512 q 611 619 622 569 q 579 706 600 669 q 526 763 558 742 q 454 785 495 785 q 379 765 413 785 q 318 712 345 745 q 272 636 292 679 q 240 546 252 593 q 221 451 227 499 q 215 360 215 403 q 225 244 215 297 q 258 153 236 191 q 309 94 279 115 q 380 73 340 73 q 458 93 423 73 q 519 148 493 114 q 566 227 546 182 q 597 321 585 273 q 616 420 610 370 q 622 512 622 469 m 910 961 q 862 845 910 899 q 727 750 814 792 q 769 646 755 704 q 784 524 784 589 q 774 427 784 476 q 748 329 765 377 q 707 236 731 281 q 651 152 682 191 q 587 84 623 115 q 512 29 552 52 q 428 -7 472 6 q 339 -21 385 -21 q 217 6 270 -21 q 126 82 163 34 q 70 194 89 130 q 51 328 51 257 q 59 428 51 379 q 83 522 67 476 q 121 611 99 569 q 170 690 143 653 q 233 762 198 728 q 309 820 268 795 q 397 860 350 845 q 498 875 445 875 q 606 855 558 875 q 687 801 653 836 q 739 840 721 818 q 757 890 757 862 q 755 905 757 896 q 749 922 753 913 q 738 938 745 930 q 721 951 731 946 l 876 1026 q 890 1012 884 1020 q 901 996 897 1004 q 907 978 905 987 q 910 961 910 969 m 430 -172 q 422 -216 430 -193 q 401 -256 415 -238 q 367 -287 387 -275 q 322 -299 347 -299 q 274 -278 290 -299 q 259 -231 259 -258 q 266 -188 259 -211 q 287 -147 273 -166 q 321 -116 301 -129 q 366 -104 341 -104 q 394 -109 382 -104 q 414 -125 406 -115 q 425 -147 421 -134 q 430 -172 430 -159 "},"ƴ":{"x_min":-132.9375,"x_max":1060.734375,"ha":686,"o":"m 1060 781 q 1045 765 1056 775 q 1022 743 1035 755 q 994 718 1009 730 q 967 695 980 705 q 944 677 954 684 q 929 671 933 671 q 911 681 921 671 q 889 706 902 692 q 863 730 877 719 q 831 741 848 741 q 759 710 794 741 q 690 628 724 680 q 621 507 655 576 q 552 360 588 438 q 480 200 517 282 q 404 40 444 118 q 321 -106 364 -37 q 230 -227 278 -175 q 128 -309 182 -279 q 14 -339 74 -339 q -39 -332 -13 -339 q -86 -316 -65 -326 q -120 -297 -107 -307 q -132 -279 -132 -287 q -127 -262 -132 -273 q -114 -238 -122 -252 q -95 -209 -105 -224 q -74 -182 -84 -195 q -54 -160 -63 -169 q -38 -148 -44 -151 q -12 -170 -27 -159 q 20 -189 3 -181 q 52 -202 37 -197 q 78 -208 68 -208 q 123 -197 101 -208 q 167 -166 145 -186 q 209 -118 188 -146 q 250 -55 229 -90 q 232 33 242 -15 q 209 133 221 82 q 184 234 197 184 q 158 329 170 285 q 133 409 145 373 q 111 464 121 444 q 85 509 96 499 q 63 520 74 520 q 45 518 56 520 q 23 512 34 515 q -3 504 10 508 l -16 549 q 44 579 11 564 q 107 607 77 594 q 161 627 137 619 q 194 635 184 635 q 227 615 213 635 q 258 548 242 595 q 283 471 270 514 q 310 379 297 428 q 336 276 323 329 q 361 167 349 222 q 431 325 395 244 q 504 482 466 405 q 583 626 542 558 q 671 745 625 694 q 767 825 716 795 q 875 855 817 855 q 939 844 908 855 q 993 820 969 833 q 1035 795 1018 807 q 1060 781 1052 783 "},"É":{"x_min":-5.421875,"x_max":687.71875,"ha":684,"o":"m 642 205 q 627 144 635 176 q 612 83 619 112 q 598 32 604 54 q 588 0 592 10 l -5 0 l 1 49 q 68 70 45 59 q 93 90 92 81 l 185 763 q 168 783 187 771 q 105 805 149 795 l 111 855 l 666 855 l 687 833 q 678 789 684 815 q 664 735 672 763 q 649 682 657 707 q 636 645 642 658 l 589 645 q 586 741 594 708 q 554 774 578 774 l 343 774 l 305 499 l 556 499 l 574 475 q 559 452 568 465 q 540 427 550 439 q 521 403 531 414 q 504 386 512 392 q 485 403 495 396 q 460 415 474 411 q 424 421 445 419 q 374 424 403 424 l 295 424 l 255 124 q 257 106 253 114 q 273 92 260 98 q 311 84 286 87 q 377 81 336 81 l 440 81 q 490 88 468 81 q 529 112 511 95 q 562 156 546 129 q 598 223 579 183 l 642 205 m 663 1068 l 344 908 q 326 927 335 914 q 311 954 318 941 l 552 1174 q 580 1158 564 1167 q 612 1141 596 1150 q 641 1124 628 1132 q 663 1110 655 1116 l 663 1068 "},"ṅ":{"x_min":21.203125,"x_max":715.96875,"ha":732,"o":"m 715 74 q 651 37 685 56 q 586 4 617 19 q 527 -18 554 -9 q 483 -28 500 -28 q 444 -6 460 -28 q 429 51 429 14 q 433 92 429 63 q 443 158 437 121 q 457 237 449 195 q 470 318 464 279 q 480 387 476 356 q 485 433 485 418 q 477 489 485 473 q 449 505 470 505 q 423 500 440 505 q 387 481 407 494 q 346 446 368 467 q 305 393 325 425 q 274 315 285 360 q 251 203 262 269 q 242 150 245 173 q 237 109 239 128 q 235 74 235 90 q 235 42 235 58 q 204 27 226 37 q 158 7 182 18 q 112 -13 133 -3 q 82 -28 90 -23 l 55 -2 q 73 91 64 43 q 90 188 82 140 q 105 281 98 236 q 116 364 112 326 q 124 431 121 402 q 127 476 127 460 q 125 501 127 492 q 120 514 123 510 q 112 520 116 519 q 101 522 107 522 q 84 519 95 522 q 61 513 73 516 q 34 504 49 509 l 21 551 q 87 578 49 563 q 160 605 124 593 q 223 626 195 618 q 262 635 251 635 q 277 631 271 635 q 287 620 283 628 q 292 597 291 612 q 294 558 294 582 q 292 525 294 544 q 289 490 291 507 q 435 599 363 564 q 568 635 507 635 q 606 630 589 635 q 634 613 623 626 q 651 580 645 601 q 658 527 658 559 q 653 470 658 503 q 642 401 649 438 q 629 325 636 364 q 615 250 621 286 q 604 186 608 215 q 600 137 600 156 q 606 106 600 114 q 624 97 612 97 q 655 102 640 97 q 698 119 670 108 l 715 74 m 524 861 q 517 817 524 840 q 495 777 509 795 q 461 746 481 758 q 416 735 441 735 q 369 755 384 735 q 353 802 353 775 q 361 845 353 822 q 382 886 368 867 q 416 917 396 904 q 460 930 435 930 q 488 924 477 930 q 508 908 500 918 q 520 886 516 899 q 524 861 524 874 "},"³":{"x_min":50.265625,"x_max":443,"ha":448,"o":"m 443 825 q 435 784 443 803 q 413 748 427 764 q 380 720 399 733 q 339 702 361 708 q 383 689 365 699 q 413 664 402 679 q 430 631 425 649 q 436 595 436 613 q 417 522 436 556 q 368 461 399 487 q 296 420 337 435 q 209 406 255 406 q 172 410 192 406 q 129 422 151 414 q 87 443 108 430 q 50 472 67 455 l 74 524 q 141 484 111 497 q 204 472 172 472 q 244 479 225 472 q 277 500 263 486 q 300 535 291 514 q 308 581 308 555 q 301 618 308 603 q 285 641 295 632 q 262 653 275 649 q 235 656 249 656 q 218 656 223 656 q 198 654 212 656 l 196 697 q 255 717 232 705 q 292 745 278 730 q 311 777 305 760 q 317 814 317 795 q 315 834 317 825 q 308 850 313 843 q 295 862 304 858 q 274 867 287 867 q 253 862 264 867 q 236 849 243 857 q 225 828 228 840 q 223 803 221 816 q 201 793 213 797 q 173 784 188 789 q 145 778 159 780 q 118 774 131 775 l 107 799 q 126 837 110 816 q 169 877 142 858 q 231 908 196 895 q 306 921 266 921 q 373 912 346 921 q 415 889 399 903 q 436 858 430 875 q 443 825 443 841 "},"Ṧ":{"x_min":16.328125,"x_max":659.90625,"ha":661,"o":"m 652 812 q 652 800 655 810 q 642 776 649 789 q 627 745 636 762 q 608 715 617 729 q 591 690 599 701 q 578 677 583 680 l 538 681 q 516 730 530 709 q 484 765 501 751 q 447 786 467 779 q 406 794 427 794 q 346 783 372 794 q 304 756 321 773 q 280 718 288 739 q 272 674 272 697 q 276 643 272 659 q 296 609 281 627 q 338 571 311 591 q 411 528 366 551 q 503 475 464 501 q 567 421 542 449 q 604 362 592 393 q 616 293 616 331 q 588 172 616 229 q 511 72 560 115 q 397 4 463 29 q 257 -21 332 -21 q 207 -16 234 -21 q 153 -5 180 -12 q 102 11 126 1 q 58 32 77 21 q 27 57 39 44 q 16 83 16 70 q 21 102 16 90 q 35 128 26 114 q 54 158 44 143 q 76 185 65 172 q 97 205 86 197 q 114 213 107 213 q 130 202 121 213 q 151 177 139 192 q 178 144 163 162 q 212 110 193 125 q 255 85 232 95 q 307 75 278 75 q 369 85 340 75 q 419 116 398 96 q 453 164 440 136 q 466 229 466 193 q 456 283 466 258 q 424 331 446 308 q 366 377 402 355 q 280 424 331 400 q 206 468 235 445 q 160 517 176 492 q 136 571 143 543 q 130 629 130 598 q 152 718 130 674 q 217 796 175 762 q 319 853 260 831 q 452 875 379 875 q 568 856 516 875 q 652 812 619 837 m 463 924 l 370 924 l 229 1138 q 251 1163 238 1151 q 275 1184 265 1175 l 434 1055 l 622 1184 q 641 1164 630 1176 q 659 1138 653 1151 l 463 924 m 545 1310 q 538 1267 545 1289 q 516 1226 530 1244 q 482 1195 502 1207 q 437 1183 462 1183 q 389 1204 405 1183 q 374 1251 374 1225 q 382 1294 374 1272 q 403 1335 389 1316 q 437 1366 417 1354 q 481 1378 456 1378 q 510 1372 498 1378 q 529 1357 521 1367 q 541 1335 537 1348 q 545 1310 545 1323 "},"ṗ":{"x_min":-14.34375,"x_max":651,"ha":695,"o":"m 423 515 q 392 503 412 515 q 348 471 372 492 q 300 419 325 449 q 254 348 276 388 q 242 277 248 315 q 228 196 235 240 q 257 163 240 179 q 295 135 275 147 q 335 115 314 122 q 372 108 355 108 q 424 124 401 108 q 459 168 446 141 q 483 255 476 205 q 491 355 491 305 q 485 421 491 391 q 469 471 479 450 q 448 503 460 491 q 423 515 436 515 m 286 590 q 276 494 286 562 q 345 565 313 538 q 404 608 377 592 q 456 629 431 624 q 502 635 480 635 q 559 621 532 635 q 606 581 586 607 q 639 515 627 554 q 651 425 651 476 q 643 343 651 385 q 624 260 636 301 q 595 181 612 219 q 560 112 579 143 q 524 61 544 86 q 482 16 505 36 q 433 -15 459 -2 q 379 -28 407 -28 q 341 -18 362 -28 q 299 7 320 -9 q 254 47 277 23 q 212 99 232 70 l 196 4 q 178 -115 185 -65 q 168 -197 171 -164 q 166 -249 165 -230 q 170 -277 166 -268 q 137 -288 159 -280 q 90 -306 115 -296 q 43 -325 65 -316 q 12 -339 21 -334 l -14 -314 q -4 -255 -11 -294 q 11 -163 1 -216 q 32 -49 20 -111 q 54 75 43 12 q 76 201 66 139 q 95 317 87 263 q 108 411 103 370 q 113 474 113 452 q 111 499 113 490 q 103 512 108 508 q 93 518 98 517 q 81 520 88 520 q 65 517 75 520 q 43 511 54 515 q 18 503 31 508 l 6 549 q 73 578 36 563 q 146 606 111 594 q 209 626 180 618 q 250 635 237 635 q 277 625 267 635 q 286 590 286 616 m 506 861 q 499 817 506 840 q 478 777 492 795 q 444 746 464 758 q 399 735 424 735 q 351 755 367 735 q 335 802 335 775 q 343 845 335 822 q 364 886 350 867 q 398 917 378 904 q 443 930 418 930 q 471 924 459 930 q 491 908 483 918 q 502 886 498 899 q 506 861 506 874 "},"[":{"x_min":33.90625,"x_max":558.859375,"ha":491,"o":"m 558 1061 q 552 1042 556 1053 q 541 1020 547 1031 q 531 1000 536 1009 q 524 988 526 992 l 346 988 l 192 -130 l 366 -130 l 390 -155 q 384 -171 388 -161 q 374 -192 379 -181 q 364 -212 369 -203 q 356 -228 360 -221 l 33 -228 l 218 1084 l 535 1084 l 558 1061 "},"Ǹ":{"x_min":-1.359375,"x_max":915.59375,"ha":858,"o":"m 909 805 q 841 786 862 798 q 817 763 819 773 l 710 -20 q 616 4 651 -14 q 567 54 582 24 l 263 625 l 190 90 q 193 81 189 86 q 206 69 196 75 q 231 58 215 63 q 270 49 246 52 l 263 0 l -1 0 l 5 49 q 73 68 52 55 q 96 90 94 81 l 187 756 q 107 805 153 797 l 113 855 l 286 855 q 304 853 297 855 q 316 846 310 852 q 327 830 322 841 q 343 802 333 820 l 650 223 l 724 763 q 721 773 725 767 q 709 784 718 779 q 684 795 700 790 q 644 805 668 801 l 650 855 l 915 855 l 909 805 m 626 954 q 605 927 616 941 q 583 908 594 914 l 296 1068 l 307 1110 q 336 1127 318 1117 q 372 1145 354 1136 q 407 1162 391 1155 q 434 1174 424 1169 l 626 954 "},"Ḗ":{"x_min":-5.421875,"x_max":720.28125,"ha":684,"o":"m 642 205 q 627 144 635 176 q 612 83 619 112 q 598 32 604 54 q 588 0 592 10 l -5 0 l 1 49 q 68 70 45 59 q 93 90 92 81 l 185 763 q 168 783 187 771 q 105 805 149 795 l 111 855 l 666 855 l 687 833 q 678 789 684 815 q 664 735 672 763 q 649 682 657 707 q 636 645 642 658 l 589 645 q 586 741 594 708 q 554 774 578 774 l 343 774 l 305 499 l 556 499 l 574 475 q 559 452 568 465 q 540 427 550 439 q 521 403 531 414 q 504 386 512 392 q 485 403 495 396 q 460 415 474 411 q 424 421 445 419 q 374 424 403 424 l 295 424 l 255 124 q 257 106 253 114 q 273 92 260 98 q 311 84 286 87 q 377 81 336 81 l 440 81 q 490 88 468 81 q 529 112 511 95 q 562 156 546 129 q 598 223 579 183 l 642 205 m 720 1063 q 712 1043 718 1055 q 699 1019 706 1032 q 686 995 692 1006 q 676 979 679 984 l 196 979 l 180 1000 q 188 1019 183 1007 q 200 1042 193 1030 q 213 1066 207 1055 q 223 1085 219 1078 l 701 1085 l 720 1063 m 693 1285 l 374 1125 q 356 1144 364 1131 q 341 1171 347 1158 l 581 1391 q 610 1375 594 1384 q 642 1358 626 1367 q 671 1341 657 1349 q 693 1327 685 1333 l 693 1285 "},"∏":{"x_min":-10.171875,"x_max":868.125,"ha":824,"o":"m -10 0 l -4 49 q 61 70 38 59 q 86 90 84 81 l 178 763 q 161 783 179 771 q 100 805 143 795 l 107 855 l 868 855 l 862 805 q 795 784 818 795 q 770 763 771 772 l 678 90 q 695 70 676 82 q 757 49 714 59 l 751 0 l 430 0 l 436 49 q 501 70 479 59 q 525 90 524 81 l 613 733 q 609 749 614 741 q 592 764 604 757 q 562 775 580 771 q 518 780 543 780 l 427 780 q 385 774 403 779 q 354 764 366 770 q 334 749 341 757 q 326 733 327 741 l 238 90 q 255 70 237 82 q 317 49 274 59 l 311 0 l -10 0 "},"Ḥ":{"x_min":-5.421875,"x_max":925.09375,"ha":886,"o":"m 435 805 q 367 784 391 795 q 342 763 343 772 l 305 488 l 630 488 l 668 763 q 651 783 670 771 q 588 805 632 795 l 594 855 l 925 855 l 918 805 q 850 784 874 795 q 826 763 827 772 l 733 90 q 751 70 732 82 q 814 49 770 59 l 808 0 l 478 0 l 484 49 q 552 70 529 59 q 576 90 575 81 l 619 407 l 293 407 l 250 90 q 268 70 249 82 q 331 49 286 59 l 324 0 l -5 0 l 1 49 q 68 70 45 59 q 93 90 92 81 l 185 763 q 168 783 187 771 q 105 805 149 795 l 111 855 l 442 855 l 435 805 m 463 -172 q 456 -216 463 -193 q 435 -256 448 -238 q 401 -287 421 -275 q 356 -299 381 -299 q 308 -278 324 -299 q 292 -231 292 -258 q 300 -188 292 -211 q 321 -147 307 -166 q 355 -116 335 -129 q 400 -104 375 -104 q 428 -109 416 -104 q 447 -125 440 -115 q 459 -147 455 -134 q 463 -172 463 -159 "},"ḥ":{"x_min":48.5,"x_max":710.65625,"ha":730,"o":"m 710 74 q 645 37 679 56 q 579 4 611 19 q 519 -18 547 -9 q 472 -28 492 -28 q 437 -6 453 -28 q 422 51 422 14 q 426 92 422 63 q 436 158 430 121 q 449 237 442 195 q 462 318 456 280 q 472 387 468 356 q 477 434 477 419 q 474 469 477 455 q 468 491 472 483 q 458 502 464 499 q 443 506 451 506 q 418 500 434 506 q 381 482 401 495 q 339 448 361 470 q 298 394 317 427 q 266 313 279 362 q 244 204 253 265 q 234 140 238 166 q 230 96 231 115 q 228 65 228 78 q 228 42 228 53 q 198 27 220 37 q 152 7 176 18 q 106 -13 127 -3 q 76 -28 84 -23 l 48 -2 q 63 86 54 34 q 82 200 72 138 q 103 329 92 261 q 124 464 114 397 q 144 596 135 532 q 160 714 153 659 q 171 809 167 768 q 176 872 176 850 q 173 897 176 887 q 167 910 171 906 q 158 916 163 914 q 148 917 153 917 q 129 914 141 917 q 105 908 117 911 q 74 899 91 904 l 64 946 q 129 973 92 959 q 200 1001 165 988 q 264 1022 235 1014 q 306 1031 293 1031 q 338 1018 325 1031 q 351 975 351 1006 q 347 923 351 959 q 337 842 343 888 q 323 745 330 796 q 307 645 315 693 q 293 555 300 596 q 283 490 287 514 q 432 602 362 569 q 563 635 503 635 q 601 630 584 635 q 628 613 617 625 q 645 579 639 601 q 651 525 651 558 q 646 469 651 502 q 636 399 642 436 q 622 324 629 362 q 608 250 615 286 q 598 186 602 215 q 594 137 594 156 q 600 106 594 114 q 618 97 606 97 q 652 103 637 97 q 693 119 667 109 l 710 74 m 375 -172 q 368 -216 375 -193 q 346 -256 360 -238 q 312 -287 332 -275 q 267 -299 292 -299 q 220 -278 235 -299 q 204 -231 204 -258 q 212 -188 204 -211 q 233 -147 219 -166 q 267 -116 247 -129 q 311 -104 286 -104 q 340 -109 328 -104 q 359 -125 351 -115 q 371 -147 367 -134 q 375 -172 375 -159 "},"ˋ":{"x_min":134.96875,"x_max":387.265625,"ha":252,"o":"m 387 715 q 358 700 373 707 q 330 691 342 693 l 134 937 l 162 971 q 189 977 170 973 q 231 984 209 980 q 274 991 254 988 q 303 995 294 995 l 387 715 "},"ğ":{"x_min":-13.78125,"x_max":640.03125,"ha":652,"o":"m 640 590 q 603 544 616 571 q 584 467 590 516 q 570 323 574 386 q 564 205 566 260 q 557 102 561 151 q 543 0 553 53 q 515 -89 535 -45 q 467 -170 495 -132 q 404 -239 438 -208 q 332 -292 370 -270 q 257 -326 295 -314 q 183 -339 218 -339 q 114 -331 149 -339 q 50 -312 79 -324 q 4 -287 22 -301 q -13 -262 -13 -274 q -7 -243 -13 -254 q 7 -219 -1 -231 q 28 -193 17 -206 q 50 -171 39 -180 q 68 -154 60 -161 q 79 -148 77 -148 q 99 -159 87 -148 q 130 -185 111 -171 q 177 -211 148 -199 q 245 -223 205 -223 q 291 -214 270 -223 q 330 -183 313 -205 q 361 -125 347 -162 q 385 -32 374 -88 q 398 71 394 24 q 404 162 401 117 q 348 87 376 121 q 291 26 320 52 q 233 -13 262 1 q 175 -28 204 -28 q 125 -15 153 -28 q 75 25 98 -2 q 35 98 51 54 q 19 206 19 143 q 70 409 19 314 q 222 571 121 504 q 311 615 260 596 q 423 635 361 635 q 477 620 449 635 q 532 589 506 605 q 576 615 555 604 l 616 635 l 640 590 m 244 106 q 267 115 252 106 q 303 146 282 124 q 351 203 324 167 q 409 290 377 238 q 415 367 411 327 q 427 456 419 408 q 435 485 429 471 q 390 522 413 505 q 345 539 367 539 q 293 525 317 539 q 250 489 269 511 q 217 438 231 467 q 193 378 203 409 q 179 315 184 346 q 175 257 175 283 q 194 143 175 181 q 244 106 214 106 m 623 905 q 566 812 598 850 q 501 751 535 774 q 436 717 468 728 q 376 707 403 707 q 316 717 346 707 q 259 751 286 728 q 212 813 233 775 q 180 905 191 851 q 191 918 185 911 q 206 932 198 925 q 220 945 213 940 q 232 955 227 951 q 260 898 242 920 q 299 861 278 875 q 342 841 320 847 q 384 835 364 835 q 431 841 405 835 q 484 861 457 847 q 535 898 510 875 q 578 955 559 920 q 589 946 583 951 q 601 933 595 940 q 614 918 608 926 q 623 905 619 911 "},"Ở":{"x_min":51,"x_max":910,"ha":849,"o":"m 622 512 q 611 619 622 569 q 579 706 600 669 q 526 763 558 742 q 454 785 495 785 q 379 765 413 785 q 318 712 345 745 q 272 636 292 679 q 240 546 252 593 q 221 451 227 499 q 215 360 215 403 q 225 244 215 297 q 258 153 236 191 q 309 94 279 115 q 380 73 340 73 q 458 93 423 73 q 519 148 493 114 q 566 227 546 182 q 597 321 585 273 q 616 420 610 370 q 622 512 622 469 m 910 961 q 862 845 910 899 q 727 750 814 792 q 769 646 755 704 q 784 524 784 589 q 774 427 784 476 q 748 329 765 377 q 707 236 731 281 q 651 152 682 191 q 587 84 623 115 q 512 29 552 52 q 428 -7 472 6 q 339 -21 385 -21 q 217 6 270 -21 q 126 82 163 34 q 70 194 89 130 q 51 328 51 257 q 59 428 51 379 q 83 522 67 476 q 121 611 99 569 q 170 690 143 653 q 233 762 198 728 q 309 820 268 795 q 397 860 350 845 q 498 875 445 875 q 606 855 558 875 q 687 801 653 836 q 739 840 721 818 q 757 890 757 862 q 755 905 757 896 q 749 922 753 913 q 738 938 745 930 q 721 951 731 946 l 876 1026 q 890 1012 884 1020 q 901 996 897 1004 q 907 978 905 987 q 910 961 910 969 m 645 1121 q 636 1091 645 1105 q 613 1063 627 1076 q 583 1039 600 1051 q 553 1016 567 1027 q 531 994 540 1005 q 521 972 521 983 q 528 957 521 964 q 550 940 534 950 q 535 933 545 937 q 516 927 526 930 q 495 922 505 924 q 481 920 486 920 q 443 948 454 935 q 432 973 432 961 q 442 993 432 983 q 465 1013 451 1003 q 495 1032 479 1022 q 525 1053 511 1042 q 548 1078 539 1064 q 557 1107 557 1091 q 549 1136 557 1125 q 519 1147 541 1147 q 498 1141 507 1147 q 483 1128 489 1136 q 475 1110 477 1119 q 477 1093 474 1100 q 459 1087 472 1091 q 432 1079 447 1083 q 404 1071 417 1075 q 385 1067 391 1068 l 379 1075 q 392 1121 379 1099 q 429 1161 406 1144 q 481 1188 452 1178 q 543 1199 511 1199 q 591 1192 571 1199 q 623 1175 611 1186 q 640 1150 635 1164 q 645 1121 645 1136 "},"Ṙ":{"x_min":-5.59375,"x_max":786.5625,"ha":777,"o":"m 380 804 q 364 803 372 804 q 348 803 356 803 l 304 478 q 336 471 320 472 q 369 469 351 469 q 437 481 404 469 q 495 514 470 492 q 536 567 521 535 q 551 639 551 598 q 535 721 551 689 q 494 771 519 753 q 439 797 468 790 q 380 804 409 804 m 786 78 q 728 44 760 61 q 668 16 697 28 q 617 -2 640 4 q 585 -10 594 -10 q 563 -6 574 -10 q 540 6 551 -3 q 518 33 529 15 q 496 79 507 50 l 374 394 q 333 396 355 394 q 294 402 312 398 l 252 90 q 271 70 250 82 q 335 49 292 59 l 328 0 l -5 0 l 1 49 q 67 70 43 59 q 92 90 90 81 l 186 787 q 136 779 160 784 q 90 770 111 775 l 90 832 q 158 848 121 841 q 237 862 195 856 q 323 871 278 868 q 414 875 368 875 q 541 861 486 875 q 635 819 597 847 q 693 751 673 792 q 714 658 714 711 q 699 588 714 625 q 657 516 684 551 q 588 453 629 482 q 494 409 547 425 l 644 144 q 665 118 654 127 q 689 108 675 110 q 722 111 703 107 q 768 125 741 116 l 786 78 m 542 1052 q 535 1009 542 1032 q 514 968 528 987 q 480 937 500 949 q 435 926 460 926 q 387 946 402 926 q 371 993 371 967 q 379 1036 371 1014 q 400 1077 386 1058 q 434 1108 414 1096 q 479 1121 454 1121 q 507 1115 495 1121 q 526 1099 519 1109 q 538 1078 534 1090 q 542 1052 542 1066 "},"ª":{"x_min":29.84375,"x_max":412.921875,"ha":418,"o":"m 402 435 q 392 415 399 424 q 382 397 385 406 l 46 397 l 29 416 q 40 436 33 427 q 50 457 46 446 l 385 457 l 402 435 m 266 646 q 272 686 269 665 q 278 725 275 706 q 284 758 281 743 q 288 780 287 772 l 288 781 q 266 794 278 789 q 244 800 255 800 q 201 784 219 800 q 172 744 183 768 q 155 694 160 721 q 150 646 150 667 q 159 584 150 606 q 183 563 169 563 q 218 584 198 563 q 266 646 238 605 m 412 541 q 353 507 381 521 q 310 494 325 494 q 296 498 304 494 q 280 511 288 502 q 267 536 273 521 q 261 572 262 550 q 209 516 235 538 q 160 494 184 494 q 128 500 145 494 q 97 522 111 507 q 74 561 83 537 q 65 618 65 584 q 95 728 65 677 q 178 814 126 778 q 223 838 197 828 q 282 849 249 849 q 313 841 298 849 q 343 825 329 834 q 390 849 368 839 l 402 825 q 391 816 396 820 q 382 807 386 812 q 376 794 379 802 q 370 775 373 787 q 360 722 364 748 q 354 674 356 696 q 350 634 351 652 q 349 609 349 617 q 353 570 349 585 q 366 556 357 556 q 380 557 373 556 q 402 565 387 559 l 412 541 "},"T":{"x_min":63.75,"x_max":809.125,"ha":752,"o":"m 514 0 l 160 0 l 166 49 q 216 62 196 55 q 248 75 236 69 q 265 87 260 82 q 271 98 271 93 l 364 774 l 205 774 q 186 766 196 774 q 166 742 177 759 q 141 698 155 725 q 107 632 126 671 l 63 650 q 74 697 67 669 q 88 754 80 725 q 103 810 96 784 q 117 855 111 837 l 789 855 l 809 833 q 800 791 806 816 q 787 739 794 766 q 773 685 780 711 q 759 638 765 658 l 712 638 q 709 695 710 670 q 705 738 708 721 q 695 764 702 755 q 675 774 689 774 l 521 774 l 429 98 q 432 88 428 94 q 446 76 436 82 q 474 62 456 69 q 520 49 493 55 l 514 0 "},"š":{"x_min":-13.359375,"x_max":580.546875,"ha":533,"o":"m 534 572 q 507 538 522 556 q 478 504 493 519 q 452 477 464 488 q 433 467 439 467 q 408 481 422 467 q 379 512 395 495 q 342 542 362 528 q 298 557 322 557 q 240 537 260 557 q 221 485 221 518 q 248 430 221 453 q 331 378 276 406 q 385 347 358 364 q 433 308 412 330 q 468 259 455 287 q 481 195 481 231 q 467 135 481 164 q 432 82 454 106 q 380 37 409 57 q 318 2 350 16 q 253 -20 286 -12 q 190 -28 219 -28 q 110 -17 147 -28 q 45 9 72 -6 q 2 43 17 25 q -13 76 -13 62 q -3 106 -13 85 q 19 148 6 127 q 45 186 32 170 q 66 202 58 202 q 78 191 72 202 q 94 164 85 180 q 116 129 103 148 q 145 94 129 110 q 184 67 162 78 q 234 57 206 57 q 305 81 279 57 q 331 145 331 106 q 319 188 331 169 q 288 225 307 208 q 245 257 269 243 q 195 285 220 272 q 135 322 159 303 q 98 360 112 340 q 78 400 84 379 q 73 442 73 421 q 98 520 73 485 q 161 581 123 556 q 245 621 199 607 q 334 635 291 635 q 398 626 370 635 q 449 607 426 617 q 493 586 473 596 q 534 572 513 576 m 379 707 l 286 707 l 149 960 q 172 983 160 972 q 196 1001 184 993 l 347 851 l 543 1001 q 562 983 551 993 q 580 960 573 972 l 379 707 "},"":{"x_min":25.765625,"x_max":430,"ha":452,"o":"m 430 415 q 421 397 427 407 q 410 375 416 386 q 399 354 404 364 q 391 339 394 345 l 68 339 l 52 360 q 59 378 54 368 q 70 399 64 389 q 81 420 75 410 q 91 437 87 430 l 413 437 l 430 415 m 403 240 q 395 222 400 232 q 384 200 389 211 q 372 179 378 189 q 364 164 366 169 l 41 164 l 25 185 q 32 202 27 192 q 43 224 37 213 q 54 245 49 234 q 64 262 60 255 l 385 262 l 403 240 "},"Þ":{"x_min":-4.4375,"x_max":711,"ha":724,"o":"m 454 805 q 401 794 422 799 q 367 783 380 788 q 348 773 354 778 q 342 763 342 768 l 331 690 q 377 695 353 693 q 426 698 401 698 q 544 681 492 698 q 634 634 597 664 q 691 561 671 604 q 711 468 711 519 q 687 356 711 409 q 623 262 664 302 q 523 198 581 222 q 396 175 465 175 q 343 180 367 175 q 300 197 319 185 l 293 267 q 340 251 317 254 q 385 248 363 248 q 449 261 420 248 q 501 300 479 275 q 536 362 523 326 q 549 442 549 398 q 535 523 549 488 q 500 579 522 557 q 448 611 477 600 q 385 622 418 622 q 353 619 369 622 q 321 614 337 617 l 251 90 q 253 82 249 86 q 269 71 258 77 q 300 61 281 66 q 350 49 320 55 l 344 0 l -4 0 l 2 49 q 67 70 45 59 q 91 90 90 81 l 184 763 q 167 783 185 771 q 106 805 148 795 l 112 855 l 461 855 l 454 805 "},"j":{"x_min":-268.578125,"x_max":362.84375,"ha":383,"o":"m 307 590 q 306 564 307 582 q 301 520 304 545 q 296 466 299 495 q 289 410 293 437 q 284 359 286 382 q 280 320 281 335 q 267 209 274 274 q 248 60 261 145 q 215 -60 237 -7 q 165 -154 193 -113 q 107 -225 138 -195 q 49 -277 77 -255 q -33 -322 12 -306 q -118 -339 -78 -339 q -173 -331 -146 -339 q -221 -312 -200 -323 q -255 -290 -242 -301 q -268 -272 -268 -279 q -256 -244 -268 -263 q -227 -206 -244 -225 q -196 -172 -211 -187 q -173 -158 -180 -158 q -153 -168 -166 -158 q -125 -191 -141 -178 q -88 -213 -109 -203 q -44 -224 -68 -224 q 1 -211 -16 -224 q 32 -171 19 -198 q 56 -99 46 -144 q 76 7 66 -55 q 91 103 84 58 q 102 187 97 148 q 111 256 107 226 q 116 306 114 286 q 121 346 118 322 q 125 396 123 371 q 128 442 127 420 q 130 475 130 464 q 128 499 130 490 q 122 513 126 508 q 113 519 118 517 q 102 520 108 520 q 85 518 96 520 q 65 512 75 515 q 40 504 52 508 l 27 549 q 91 577 55 562 q 162 605 128 592 q 224 626 196 618 q 264 635 252 635 q 295 626 283 635 q 307 590 307 618 m 362 855 q 355 816 362 836 q 331 779 347 796 q 294 751 316 762 q 243 740 272 740 q 190 757 207 740 q 174 797 174 774 q 182 836 174 815 q 205 873 189 856 q 242 902 220 890 q 293 914 265 914 q 346 896 329 914 q 362 855 362 878 "},"1":{"x_min":46.796875,"x_max":530.375,"ha":632,"o":"m 522 0 l 46 0 l 54 56 q 138 70 104 62 q 192 86 171 77 q 222 102 212 94 q 232 117 231 109 l 300 616 q 304 658 303 644 q 298 683 304 673 q 285 690 295 687 q 257 692 276 692 q 209 687 238 691 q 137 673 180 683 l 127 728 q 172 740 145 732 q 230 759 199 749 q 294 781 261 769 q 357 804 326 793 q 412 826 387 816 q 454 844 438 836 l 478 815 l 383 117 q 387 102 381 110 q 409 86 393 94 q 455 70 425 78 q 530 56 484 62 l 522 0 "},"ɣ":{"x_min":-7.203125,"x_max":676,"ha":688,"o":"m 364 -166 q 356 -100 364 -138 q 336 -20 349 -63 q 295 -92 310 -64 q 272 -138 280 -119 q 263 -169 265 -157 q 261 -195 261 -182 q 274 -232 261 -218 q 306 -246 288 -246 q 348 -225 332 -246 q 364 -166 364 -205 m 676 583 q 672 552 676 568 q 659 514 669 536 q 633 463 650 493 q 592 390 617 432 q 530 289 566 347 q 444 153 493 231 q 490 6 473 75 q 508 -115 508 -62 q 485 -197 508 -157 q 428 -269 463 -237 q 352 -320 394 -301 q 274 -339 311 -339 q 209 -328 234 -339 q 168 -302 183 -318 q 147 -266 153 -286 q 142 -226 142 -246 q 147 -187 142 -208 q 168 -132 152 -166 q 216 -45 185 -98 q 300 85 248 6 q 259 188 281 136 q 215 289 238 240 q 170 383 192 338 q 129 464 148 428 q 94 509 112 497 q 66 520 76 520 q 50 518 59 520 q 31 512 40 515 q 9 504 20 508 l -7 549 q 55 577 21 562 q 119 605 89 592 q 173 626 150 618 q 205 635 197 635 q 225 629 216 635 q 242 614 234 624 q 258 587 250 603 q 276 548 266 571 q 341 404 307 480 q 406 253 374 329 q 452 333 431 295 q 487 402 472 371 q 510 457 502 434 q 519 495 519 481 q 483 531 519 529 q 460 529 470 533 q 432 516 451 525 l 409 561 q 466 591 436 578 q 524 614 495 604 q 577 629 552 624 q 620 635 601 635 q 642 633 631 635 q 659 626 652 631 q 671 610 667 620 q 676 583 676 600 "},"ɩ":{"x_min":28.484375,"x_max":382.515625,"ha":368,"o":"m 382 148 q 336 82 361 114 q 282 25 310 49 q 222 -13 253 1 q 159 -28 191 -28 q 75 10 101 -28 q 63 128 50 49 l 110 394 q 116 450 116 429 q 107 482 116 470 q 79 500 98 495 q 28 508 60 505 l 34 555 q 90 567 59 559 q 152 587 121 576 q 213 611 184 599 q 265 635 243 623 l 307 635 l 240 241 q 230 178 233 201 q 230 141 228 154 q 238 125 232 129 q 252 121 244 121 q 268 123 259 121 q 289 134 277 126 q 317 159 301 143 q 355 201 333 175 l 382 148 "},"Ǜ":{"x_min":110,"x_max":905.34375,"ha":860,"o":"m 898 805 q 834 784 855 795 q 812 763 813 772 l 753 347 q 708 189 741 258 q 628 73 676 120 q 522 3 581 27 q 395 -21 462 -21 q 289 -4 339 -21 q 201 45 239 12 q 141 125 163 78 q 119 236 119 173 q 125 314 119 272 l 188 763 q 171 783 190 771 q 110 805 153 795 l 116 855 l 442 855 l 435 805 q 368 784 392 795 q 343 763 345 772 l 284 346 q 279 306 281 326 q 278 269 278 287 q 319 126 278 174 q 445 79 360 79 q 522 97 489 79 q 579 147 556 115 q 618 223 603 180 q 639 318 632 267 l 701 763 q 698 772 702 767 q 686 783 695 778 q 662 794 677 789 q 625 805 647 800 l 632 855 l 905 855 l 898 805 m 497 1052 q 489 1009 497 1032 q 468 968 482 987 q 433 937 454 949 q 388 926 413 926 q 340 946 355 926 q 325 993 325 967 q 332 1036 325 1014 q 354 1077 340 1058 q 387 1108 368 1096 q 432 1121 407 1121 q 481 1100 465 1121 q 497 1052 497 1079 m 759 1052 q 751 1009 759 1032 q 730 968 744 987 q 695 937 716 949 q 650 926 675 926 q 602 946 618 926 q 587 993 587 967 q 594 1036 587 1014 q 616 1077 602 1058 q 649 1108 630 1096 q 694 1121 669 1121 q 743 1100 727 1121 q 759 1052 759 1079 m 670 1187 q 649 1160 660 1173 q 628 1140 638 1146 l 340 1300 l 351 1342 q 380 1359 362 1350 q 416 1378 398 1369 q 452 1395 435 1387 q 478 1406 468 1402 l 670 1187 "},"ǒ":{"x_min":26,"x_max":616.5,"ha":617,"o":"m 433 326 q 424 418 433 377 q 400 485 415 458 q 366 526 386 512 q 325 541 346 541 q 259 517 285 541 q 215 456 232 493 q 192 374 199 419 q 185 285 185 329 q 194 199 185 239 q 220 129 204 159 q 256 81 236 99 q 298 64 277 64 q 343 75 323 64 q 378 107 363 87 q 403 153 393 127 q 420 208 414 179 q 429 268 426 237 q 433 326 433 298 m 591 379 q 579 287 591 333 q 546 196 568 240 q 494 113 524 153 q 426 42 463 73 q 386 15 408 28 q 341 -7 364 2 q 295 -22 318 -17 q 252 -28 273 -28 q 157 -7 199 -28 q 86 46 115 12 q 41 129 57 81 q 26 233 26 177 q 35 327 26 282 q 65 415 44 373 q 117 496 85 457 q 194 569 149 535 q 233 595 212 583 q 278 616 255 607 q 325 629 301 624 q 371 635 349 635 q 465 616 424 635 q 534 563 506 597 q 576 482 562 529 q 591 379 591 435 m 415 707 l 322 707 l 185 960 q 208 983 196 972 q 231 1001 220 993 l 383 851 l 579 1001 q 598 983 587 993 q 616 960 609 972 l 415 707 "},"ĉ":{"x_min":48,"x_max":625.3125,"ha":592,"o":"m 614 558 q 580 526 600 544 q 540 492 560 508 q 501 464 519 475 q 472 454 483 454 q 450 467 461 454 q 426 496 439 480 q 396 525 412 512 q 361 539 380 539 q 295 513 324 539 q 247 448 267 488 q 218 359 228 409 q 208 263 208 310 q 215 184 208 219 q 235 126 222 150 q 266 89 248 102 q 305 77 283 77 q 393 103 342 77 q 517 190 444 130 q 525 179 520 186 q 535 165 530 172 q 545 151 541 157 q 551 142 549 144 q 454 61 498 93 q 372 8 410 28 q 302 -19 334 -11 q 239 -28 269 -28 q 177 -16 210 -28 q 114 23 143 -4 q 66 99 85 52 q 48 218 48 147 q 57 310 48 263 q 88 401 66 357 q 143 487 109 446 q 228 561 178 527 q 272 586 247 573 q 326 610 297 599 q 384 628 354 621 q 442 635 414 635 q 496 625 472 635 q 539 602 519 615 q 577 577 560 589 q 614 558 595 564 m 625 731 q 602 707 615 718 q 579 691 590 696 l 427 844 l 232 691 q 214 706 226 695 q 195 731 202 718 l 398 988 l 491 988 l 625 731 "},"Ɔ":{"x_min":37,"x_max":721,"ha":732,"o":"m 721 531 q 707 409 721 472 q 669 283 694 345 q 606 166 643 221 q 519 69 568 111 q 409 3 470 27 q 278 -21 349 -21 q 171 -5 216 -21 q 95 36 125 9 q 51 100 66 64 q 37 178 37 136 q 45 247 37 211 q 78 315 54 284 q 120 333 93 322 q 175 355 146 344 q 227 376 203 366 q 264 390 252 386 l 277 336 q 236 306 252 323 q 209 270 219 289 q 195 232 199 251 q 191 197 191 212 q 201 147 191 169 q 228 108 211 124 q 268 83 245 92 q 315 75 291 75 q 394 95 359 75 q 456 150 429 116 q 503 230 483 185 q 534 323 522 274 q 553 418 547 371 q 559 507 559 466 q 542 627 559 577 q 496 709 525 677 q 432 756 468 741 q 357 771 396 771 q 319 767 341 771 q 271 755 298 764 q 209 728 243 745 q 135 682 175 710 q 127 690 131 683 q 118 704 122 697 q 111 719 114 712 q 106 728 107 726 q 203 802 157 773 q 290 847 249 830 q 367 869 331 863 q 432 875 403 875 q 548 851 495 875 q 640 784 601 828 q 699 676 678 740 q 721 531 721 613 "},"ī":{"x_min":37.578125,"x_max":505.265625,"ha":385,"o":"m 364 74 q 299 36 333 55 q 235 4 266 18 q 177 -19 204 -10 q 132 -28 151 -28 q 92 -6 108 -28 q 77 51 77 14 q 81 106 77 71 q 93 182 86 140 q 108 268 100 223 q 123 353 116 313 q 135 425 130 394 q 140 474 140 457 q 137 499 140 490 q 132 513 135 508 q 123 518 129 517 q 112 520 118 520 q 96 517 106 520 q 75 512 85 515 q 49 504 63 508 l 37 549 q 102 577 66 562 q 172 605 137 592 q 234 626 206 618 q 274 635 262 635 q 304 622 293 635 q 315 577 315 609 q 310 523 315 558 q 297 445 305 488 q 282 357 290 403 q 266 269 273 311 q 253 191 258 226 q 249 137 249 156 q 253 106 249 116 q 269 97 257 97 q 288 98 279 97 q 307 102 297 99 q 327 109 316 105 q 352 119 337 113 l 364 74 m 505 869 q 497 849 503 861 q 484 825 491 838 q 471 801 477 812 q 461 785 464 790 l 103 785 l 88 806 q 96 825 90 813 q 108 848 101 836 q 121 872 115 861 q 131 891 127 884 l 486 891 l 505 869 "},"Ď":{"x_min":-5.078125,"x_max":802,"ha":819,"o":"m 388 804 q 367 802 378 804 q 347 801 357 801 l 253 110 q 269 81 251 90 q 339 73 287 73 q 425 90 386 73 q 498 139 465 108 q 555 211 530 170 q 597 299 580 252 q 622 396 614 346 q 631 493 631 446 q 617 623 631 566 q 574 721 603 681 q 498 782 544 761 q 388 804 452 804 m 802 510 q 787 390 802 451 q 746 272 773 328 q 679 165 719 215 q 590 79 640 115 q 478 21 539 42 q 346 0 417 0 l -5 0 l 1 49 q 67 70 44 59 q 91 90 90 81 l 188 786 l 92 772 l 92 835 q 173 852 131 845 q 259 864 216 859 q 342 872 302 869 q 418 875 383 875 q 589 849 516 875 q 708 776 661 824 q 778 662 755 729 q 802 510 802 594 m 531 924 l 438 924 l 297 1138 q 319 1163 306 1151 q 343 1184 333 1175 l 501 1055 l 690 1184 q 709 1164 698 1176 q 727 1138 720 1151 l 531 924 "},"&":{"x_min":42.484375,"x_max":928.484375,"ha":877,"o":"m 390 766 q 388 693 385 731 q 403 615 392 655 q 458 657 436 635 q 496 702 481 679 q 520 748 512 725 q 531 792 528 771 q 522 868 539 841 q 475 896 505 896 q 443 885 457 896 q 418 858 429 875 q 401 816 408 840 q 390 766 394 792 m 343 77 q 414 88 379 77 q 480 119 448 99 q 429 185 455 149 q 380 260 404 221 q 334 342 356 300 q 294 428 311 384 q 235 343 254 385 q 210 254 217 301 q 213 173 204 207 q 242 118 223 139 q 289 86 262 96 q 343 77 316 77 m 928 507 q 908 484 919 496 q 886 459 897 471 q 865 437 875 447 q 846 421 854 427 q 798 442 824 432 q 752 454 773 452 q 763 412 762 434 q 760 364 764 390 q 729 269 754 319 q 663 171 704 219 q 684 147 674 158 q 705 125 695 135 q 767 88 733 96 q 833 89 800 81 l 836 40 q 777 15 808 27 q 718 -3 746 4 q 670 -16 691 -11 q 643 -21 650 -21 q 599 0 628 -21 q 535 57 571 20 q 419 0 480 21 q 293 -21 358 -21 q 177 -4 227 -21 q 94 45 126 12 q 49 127 62 78 q 46 240 37 176 q 107 383 55 312 q 261 526 160 454 q 242 628 247 578 q 244 727 237 678 q 277 829 251 782 q 341 910 303 875 q 427 963 379 944 q 525 983 474 983 q 605 969 573 983 q 656 931 637 955 q 681 878 675 908 q 683 814 688 848 q 657 743 678 779 q 602 672 635 707 q 531 606 570 637 q 451 549 491 574 l 430 536 q 508 382 461 458 q 605 241 555 306 q 643 336 636 289 q 642 389 647 366 q 626 429 637 412 q 599 454 615 445 q 564 463 583 463 l 549 486 q 561 498 553 490 q 578 513 569 505 q 596 527 587 521 q 611 537 604 534 l 913 537 l 928 507 "},"ṻ":{"x_min":16.90625,"x_max":724.71875,"ha":747,"o":"m 724 71 q 670 35 697 53 q 617 3 642 17 q 569 -19 591 -10 q 531 -28 547 -28 q 501 -17 516 -28 q 472 13 485 -7 q 451 66 460 34 q 441 140 443 98 q 385 73 415 104 q 322 20 355 42 q 258 -15 290 -2 q 194 -28 225 -28 q 154 -17 175 -28 q 115 14 133 -6 q 86 66 98 35 q 75 138 75 97 q 78 187 75 159 q 86 247 81 215 q 97 311 91 278 q 108 376 103 345 q 116 432 113 406 q 120 474 120 457 q 117 499 120 490 q 112 513 115 508 q 103 518 108 517 q 92 520 98 520 q 75 517 86 520 q 54 512 65 515 q 27 504 42 508 l 16 549 q 82 577 45 562 q 155 605 120 592 q 219 626 191 618 q 260 635 248 635 q 287 622 280 635 q 294 577 294 609 q 289 526 294 558 q 279 457 285 494 q 267 380 273 420 q 254 302 260 339 q 244 233 248 265 q 240 182 240 201 q 251 123 240 143 q 275 104 262 104 q 304 113 287 104 q 345 143 322 123 q 394 196 367 163 q 451 273 421 228 q 460 330 455 301 q 469 385 465 358 q 476 435 473 412 q 480 474 480 458 q 478 499 480 490 q 473 512 476 508 q 465 518 469 517 q 454 520 461 520 q 438 517 448 520 q 419 511 429 515 q 395 503 408 508 l 383 549 q 448 577 412 562 q 519 605 484 592 q 581 626 553 618 q 621 635 609 635 q 646 622 640 635 q 653 577 653 609 q 649 529 653 558 q 640 466 645 499 q 628 396 634 432 q 616 325 622 359 q 607 260 611 291 q 604 207 604 230 q 613 121 604 145 q 639 97 622 97 q 672 101 657 97 q 712 115 688 105 l 724 71 m 722 869 q 714 849 720 861 q 701 825 708 838 q 688 801 695 812 q 678 785 682 790 l 199 785 l 183 806 q 191 825 186 813 q 204 848 197 836 q 217 872 210 861 q 227 891 223 884 l 705 891 l 722 869 m 436 1112 q 428 1068 436 1091 q 407 1028 421 1046 q 373 997 393 1009 q 328 985 353 985 q 279 1006 295 985 q 264 1053 264 1026 q 271 1096 264 1073 q 293 1137 279 1118 q 327 1168 306 1155 q 372 1180 347 1180 q 400 1175 388 1180 q 420 1159 412 1169 q 432 1137 427 1150 q 436 1112 436 1125 m 698 1112 q 690 1068 698 1091 q 669 1028 683 1046 q 634 997 655 1009 q 589 985 614 985 q 541 1006 557 985 q 526 1053 526 1026 q 533 1096 526 1073 q 555 1137 541 1118 q 588 1168 568 1155 q 633 1180 608 1180 q 662 1175 649 1180 q 682 1159 674 1169 q 694 1137 689 1150 q 698 1112 698 1125 "},"G":{"x_min":41,"x_max":762.53125,"ha":760,"o":"m 758 371 q 705 345 721 360 q 687 315 689 331 q 680 268 684 297 q 673 210 677 240 q 666 153 670 179 q 662 114 663 127 q 566 47 610 73 q 484 5 522 21 q 414 -15 447 -9 q 355 -21 382 -21 q 236 3 293 -21 q 136 73 179 27 q 66 184 92 118 q 41 331 41 249 q 55 458 41 395 q 96 577 70 520 q 160 683 123 634 q 243 770 198 732 q 303 814 271 794 q 372 847 335 833 q 451 867 409 860 q 542 875 493 875 q 596 870 566 875 q 655 856 626 865 q 711 835 685 848 q 755 806 738 822 q 754 793 758 803 q 743 768 751 783 q 725 738 736 754 q 704 706 715 721 q 684 679 694 690 q 668 661 674 667 l 628 670 q 601 717 616 695 q 565 755 586 739 q 519 780 545 771 q 458 790 492 790 q 395 773 428 790 q 327 724 361 757 q 278 657 301 699 q 238 564 255 614 q 212 461 221 514 q 203 360 203 407 q 221 235 203 287 q 270 151 240 184 q 336 102 299 118 q 408 87 372 87 q 458 92 431 87 q 508 116 485 98 l 537 315 q 535 329 538 322 q 518 342 532 335 q 474 356 504 349 q 394 371 445 363 l 399 420 l 762 420 l 758 371 "},"`":{"x_min":139.03125,"x_max":391.328125,"ha":411,"o":"m 391 715 q 362 700 377 707 q 334 691 346 693 l 139 937 l 166 971 q 193 977 174 973 q 236 984 213 980 q 278 991 258 988 q 307 995 298 995 l 391 715 "},"ỗ":{"x_min":26,"x_max":675.515625,"ha":617,"o":"m 433 326 q 424 418 433 377 q 400 485 415 458 q 366 526 386 512 q 325 541 346 541 q 259 517 285 541 q 215 456 232 493 q 192 374 199 419 q 185 285 185 329 q 194 199 185 239 q 220 129 204 159 q 256 81 236 99 q 298 64 277 64 q 343 75 323 64 q 378 107 363 87 q 403 153 393 127 q 420 208 414 179 q 429 268 426 237 q 433 326 433 298 m 591 379 q 579 287 591 333 q 546 196 568 240 q 494 113 524 153 q 426 42 463 73 q 386 15 408 28 q 341 -7 364 2 q 295 -22 318 -17 q 252 -28 273 -28 q 157 -7 199 -28 q 86 46 115 12 q 41 129 57 81 q 26 233 26 177 q 35 327 26 282 q 65 415 44 373 q 117 496 85 457 q 194 569 149 535 q 233 595 212 583 q 278 616 255 607 q 325 629 301 624 q 371 635 349 635 q 465 616 424 635 q 534 563 506 597 q 576 482 562 529 q 591 379 591 435 m 585 731 q 563 707 576 718 q 539 691 550 696 l 387 844 l 193 691 q 174 706 187 695 q 156 731 162 718 l 358 988 l 451 988 l 585 731 m 675 1242 q 653 1203 666 1224 q 626 1161 640 1182 q 595 1121 611 1140 q 561 1086 579 1101 q 524 1063 543 1071 q 485 1054 505 1054 q 435 1065 458 1054 q 391 1088 413 1075 q 348 1113 370 1102 q 303 1124 327 1124 q 277 1119 289 1124 q 253 1104 265 1114 q 229 1080 242 1094 q 202 1047 217 1066 l 159 1065 q 194 1126 173 1093 q 239 1188 215 1159 q 292 1236 264 1217 q 349 1256 320 1256 q 402 1245 377 1256 q 447 1220 426 1234 q 489 1196 469 1207 q 529 1185 508 1185 q 580 1204 556 1185 q 630 1263 603 1223 l 675 1242 "},"Ễ":{"x_min":-5.421875,"x_max":733.828125,"ha":684,"o":"m 642 205 q 627 144 635 176 q 612 83 619 112 q 598 32 604 54 q 588 0 592 10 l -5 0 l 1 49 q 68 70 45 59 q 93 90 92 81 l 185 763 q 168 783 187 771 q 105 805 149 795 l 111 855 l 666 855 l 687 833 q 678 789 684 815 q 664 735 672 763 q 649 682 657 707 q 636 645 642 658 l 589 645 q 586 741 594 708 q 554 774 578 774 l 343 774 l 305 499 l 556 499 l 574 475 q 559 452 568 465 q 540 427 550 439 q 521 403 531 414 q 504 386 512 392 q 485 403 495 396 q 460 415 474 411 q 424 421 445 419 q 374 424 403 424 l 295 424 l 255 124 q 257 106 253 114 q 273 92 260 98 q 311 84 286 87 q 377 81 336 81 l 440 81 q 490 88 468 81 q 529 112 511 95 q 562 156 546 129 q 598 223 579 183 l 642 205 m 640 948 q 621 924 631 935 q 600 908 611 913 l 441 1026 l 253 908 q 237 923 247 912 q 221 948 227 935 l 417 1158 l 500 1158 l 640 948 m 733 1388 q 711 1348 724 1369 q 684 1306 699 1327 q 653 1266 670 1285 q 619 1232 637 1247 q 582 1208 601 1217 q 543 1199 563 1199 q 494 1210 516 1199 q 449 1234 471 1221 q 407 1258 428 1247 q 362 1269 385 1269 q 336 1264 347 1269 q 312 1249 324 1259 q 287 1225 300 1239 q 261 1192 275 1211 l 217 1211 q 252 1271 231 1238 q 297 1333 273 1305 q 349 1382 322 1362 q 406 1401 377 1401 q 460 1390 436 1401 q 505 1366 484 1379 q 546 1341 526 1352 q 586 1330 566 1330 q 638 1349 615 1330 q 688 1408 661 1369 l 733 1388 "},"ằ":{"x_min":26,"x_max":665.359375,"ha":669,"o":"m 396 256 q 405 317 400 284 q 415 381 410 349 q 425 442 420 413 q 433 492 429 470 q 392 524 414 510 q 349 539 370 539 q 297 524 321 538 q 255 488 273 511 q 222 437 236 466 q 198 377 207 408 q 184 314 189 345 q 180 256 180 283 q 185 190 180 218 q 200 142 190 161 q 221 114 209 124 q 245 105 232 105 q 307 143 267 105 q 396 256 346 182 m 665 71 q 608 33 636 51 q 556 1 580 15 q 512 -20 531 -12 q 480 -28 492 -28 q 454 -20 469 -28 q 426 5 439 -13 q 402 55 413 24 q 389 134 392 86 q 342 75 367 104 q 291 22 317 45 q 236 -14 264 0 q 181 -28 208 -28 q 129 -15 156 -28 q 79 25 102 -2 q 41 98 56 54 q 26 206 26 143 q 39 311 26 260 q 78 409 53 362 q 142 497 104 456 q 227 571 179 538 q 268 594 245 583 q 315 615 290 606 q 368 629 340 624 q 424 635 395 635 q 480 622 453 635 q 531 594 507 609 q 577 615 554 605 q 619 635 600 625 l 640 590 q 621 573 628 581 q 608 556 613 566 q 598 532 602 546 q 589 495 594 518 q 571 400 579 446 q 557 316 562 354 q 548 248 551 277 q 546 204 546 219 q 556 127 546 157 q 581 97 566 97 q 611 100 595 97 q 654 115 627 104 l 665 71 m 651 905 q 595 812 626 850 q 530 751 563 774 q 464 717 497 728 q 404 707 432 707 q 344 717 375 707 q 288 751 314 728 q 241 813 261 775 q 208 905 220 851 q 220 918 213 911 q 234 932 227 925 q 248 945 242 940 q 261 955 255 951 q 288 898 271 920 q 327 861 306 875 q 370 841 348 847 q 413 835 393 835 q 460 841 434 835 q 512 861 486 847 q 563 898 539 875 q 607 955 588 920 q 617 946 611 951 q 630 933 623 940 q 642 918 636 926 q 651 905 648 911 m 498 948 q 469 932 484 939 q 441 923 453 925 l 246 1169 l 273 1204 q 301 1209 281 1205 q 343 1217 320 1213 q 385 1224 365 1221 q 414 1227 405 1227 l 498 948 "},"ŏ":{"x_min":26,"x_max":615.15625,"ha":617,"o":"m 433 326 q 424 418 433 377 q 400 485 415 458 q 366 526 386 512 q 325 541 346 541 q 259 517 285 541 q 215 456 232 493 q 192 374 199 419 q 185 285 185 329 q 194 199 185 239 q 220 129 204 159 q 256 81 236 99 q 298 64 277 64 q 343 75 323 64 q 378 107 363 87 q 403 153 393 127 q 420 208 414 179 q 429 268 426 237 q 433 326 433 298 m 591 379 q 579 287 591 333 q 546 196 568 240 q 494 113 524 153 q 426 42 463 73 q 386 15 408 28 q 341 -7 364 2 q 295 -22 318 -17 q 252 -28 273 -28 q 157 -7 199 -28 q 86 46 115 12 q 41 129 57 81 q 26 233 26 177 q 35 327 26 282 q 65 415 44 373 q 117 496 85 457 q 194 569 149 535 q 233 595 212 583 q 278 616 255 607 q 325 629 301 624 q 371 635 349 635 q 465 616 424 635 q 534 563 506 597 q 576 482 562 529 q 591 379 591 435 m 615 905 q 558 812 590 850 q 493 751 526 774 q 427 717 460 728 q 368 707 395 707 q 308 717 338 707 q 251 751 278 728 q 204 813 225 775 q 172 905 183 851 q 183 918 177 911 q 198 932 190 925 q 212 945 205 940 q 224 955 219 951 q 252 898 234 920 q 290 861 269 875 q 334 841 311 847 q 376 835 356 835 q 423 841 397 835 q 476 861 449 847 q 526 898 502 875 q 570 955 551 920 q 581 946 575 951 q 593 933 587 940 q 606 918 600 926 q 615 905 611 911 "},"Ả":{"x_min":-33.90625,"x_max":768.421875,"ha":810,"o":"m 251 291 l 165 95 q 176 65 156 74 q 246 49 196 56 l 240 0 l -33 0 l -27 49 q 40 66 16 57 q 73 95 64 75 l 390 817 q 426 842 407 830 q 466 863 446 854 q 506 880 486 873 q 543 893 526 887 l 697 95 q 702 78 699 86 q 714 65 706 71 q 735 56 722 60 q 768 49 748 52 l 762 0 l 449 0 l 456 49 q 524 63 505 52 q 539 95 543 73 l 503 291 l 251 291 m 487 373 l 426 693 l 287 373 l 487 373 m 639 1121 q 629 1091 639 1105 q 607 1063 620 1076 q 577 1039 593 1051 q 547 1016 560 1027 q 524 994 533 1005 q 515 972 515 983 q 521 957 515 964 q 544 940 528 950 q 529 933 538 937 q 509 927 519 930 q 489 922 499 924 q 474 920 479 920 q 436 948 447 935 q 426 973 426 961 q 435 993 426 983 q 458 1013 444 1003 q 488 1032 472 1022 q 518 1053 504 1042 q 541 1078 532 1064 q 551 1107 551 1091 q 542 1136 551 1125 q 513 1147 534 1147 q 491 1141 500 1147 q 476 1128 482 1136 q 469 1110 470 1119 q 470 1093 467 1100 q 452 1087 465 1091 q 425 1079 440 1083 q 397 1071 411 1075 q 378 1067 384 1068 l 373 1075 q 385 1121 372 1099 q 422 1161 399 1144 q 475 1188 445 1178 q 536 1199 504 1199 q 584 1192 565 1199 q 616 1175 604 1186 q 633 1150 628 1164 q 639 1121 639 1136 "},"ý":{"x_min":-133.140625,"x_max":655.171875,"ha":664,"o":"m 651 583 q 633 512 651 560 q 583 396 615 464 q 506 241 551 327 q 409 55 462 155 q 316 -104 362 -31 q 223 -229 271 -176 q 123 -310 175 -281 q 11 -339 71 -339 q -40 -332 -15 -339 q -87 -316 -66 -326 q -120 -296 -107 -307 q -133 -279 -133 -286 q -121 -249 -133 -269 q -95 -208 -110 -229 q -64 -170 -80 -187 q -38 -148 -48 -153 q 26 -193 -6 -178 q 83 -208 58 -208 q 163 -167 122 -208 q 250 -53 203 -127 q 232 35 242 -13 q 210 134 222 83 q 184 234 197 184 q 158 329 171 285 q 133 408 145 373 q 111 464 121 443 q 85 509 96 499 q 62 520 74 520 q 45 518 56 520 q 23 512 34 515 q -3 504 10 508 l -17 549 q 45 579 13 564 q 107 607 78 594 q 159 627 136 619 q 194 635 182 635 q 227 615 213 635 q 258 548 241 595 q 283 470 270 514 q 311 374 297 426 q 338 268 325 323 q 364 156 352 212 q 417 265 392 211 q 460 365 442 319 q 490 445 479 411 q 501 495 501 479 q 465 531 501 529 q 440 529 453 533 q 408 516 428 525 l 391 561 q 443 589 415 575 q 498 612 471 602 q 549 628 525 622 q 590 635 573 635 q 612 633 601 635 q 632 626 623 631 q 645 610 640 620 q 651 583 651 600 m 655 927 l 398 691 q 375 703 387 693 q 353 724 362 713 l 512 995 l 538 990 q 577 982 556 986 q 615 974 597 978 q 639 967 633 969 l 655 927 "},"º":{"x_min":14.921875,"x_max":372,"ha":345,"o":"m 278 688 q 259 765 278 738 q 216 793 240 793 q 182 780 195 793 q 160 749 168 768 q 150 706 153 730 q 147 658 147 681 q 152 617 147 636 q 166 582 157 597 q 186 558 175 567 q 211 550 198 550 q 243 563 230 550 q 264 596 256 576 q 274 641 271 617 q 278 688 278 665 m 345 435 q 337 415 342 424 q 328 397 331 406 l 31 397 l 14 416 q 23 436 18 427 q 32 457 28 446 l 328 457 l 345 435 m 372 711 q 348 616 372 662 q 283 536 324 569 q 235 506 260 518 q 181 494 211 494 q 129 504 152 494 q 89 533 105 515 q 63 578 72 552 q 55 634 55 603 q 76 728 55 685 q 146 809 97 771 q 194 838 168 827 q 246 849 220 849 q 302 838 279 849 q 341 810 326 828 q 364 767 357 792 q 372 711 372 741 "},"∞":{"x_min":44.390625,"x_max":818.71875,"ha":842,"o":"m 221 299 q 248 301 236 299 q 277 311 261 304 q 311 333 292 319 q 356 368 330 347 q 331 406 345 387 q 302 442 318 426 q 268 467 286 457 q 233 478 251 478 q 198 470 212 478 q 173 450 183 462 q 158 423 163 438 q 150 395 152 408 q 151 363 148 380 q 163 332 154 346 q 187 308 172 317 q 221 299 201 299 m 641 484 q 613 480 628 484 q 583 468 599 476 q 547 445 567 459 q 503 412 528 431 q 529 374 514 393 q 559 339 543 355 q 593 314 575 324 q 628 305 611 305 q 663 312 649 305 q 689 332 678 320 q 704 359 699 345 q 712 386 710 373 q 710 418 714 401 q 698 450 707 435 q 675 474 689 465 q 641 484 661 484 m 297 592 q 353 581 327 592 q 401 553 379 570 q 439 514 422 535 q 470 471 456 492 q 539 527 507 504 q 596 564 570 550 q 647 585 623 579 q 694 592 670 592 q 749 580 725 592 q 791 545 774 568 q 814 491 807 523 q 815 419 822 459 q 786 336 810 377 q 728 262 763 295 q 650 210 693 230 q 564 190 608 190 q 507 200 534 190 q 459 228 481 211 q 420 267 438 245 q 388 310 402 289 q 315 250 346 274 q 260 213 284 227 q 213 195 235 200 q 167 190 191 190 q 112 202 137 190 q 71 236 87 214 q 48 291 54 259 q 46 363 41 323 q 75 446 52 405 q 134 519 99 487 q 211 571 168 551 q 297 592 253 592 "},"ź":{"x_min":-12.203125,"x_max":590.0625,"ha":532,"o":"m 531 593 q 464 516 494 553 q 409 445 435 480 q 360 376 383 411 q 311 305 337 341 q 257 228 286 268 q 193 142 229 187 q 211 147 202 144 q 229 151 219 149 q 248 153 239 153 q 283 147 262 153 q 326 134 303 141 q 370 121 348 127 q 410 116 392 116 q 424 118 416 116 q 442 128 432 120 q 462 150 451 135 q 486 189 474 165 l 526 166 q 491 90 507 124 q 454 33 474 57 q 411 -1 435 10 q 354 -14 387 -14 q 295 -6 324 -14 q 239 9 266 0 q 189 24 212 17 q 149 32 166 32 q 95 18 127 32 q 12 -21 63 4 l -12 12 q 55 98 21 53 q 121 189 88 143 q 184 279 153 234 q 242 363 215 323 q 294 437 270 403 q 338 494 318 470 l 181 494 q 153 490 165 494 q 130 476 141 486 q 111 447 120 465 q 92 401 103 429 l 48 411 q 63 475 54 442 q 78 539 71 508 q 91 595 86 569 q 100 635 97 620 q 135 626 113 631 q 181 621 158 621 l 512 621 l 531 593 m 590 927 l 333 691 q 310 703 322 693 q 288 724 297 713 l 446 995 l 473 990 q 512 982 491 986 q 550 974 532 978 q 574 967 568 969 l 590 927 "},"Ư":{"x_min":110,"x_max":1044.390625,"ha":983,"o":"m 1044 961 q 1028 892 1044 925 q 981 830 1011 859 q 906 774 950 800 q 807 727 862 748 l 753 347 q 708 189 741 258 q 628 73 676 120 q 522 3 581 27 q 395 -21 462 -21 q 289 -4 339 -21 q 201 45 239 12 q 141 125 163 78 q 119 236 119 173 q 125 314 119 272 l 188 763 q 171 783 190 771 q 110 805 153 795 l 116 855 l 442 855 l 435 805 q 368 784 392 795 q 343 763 345 772 l 284 346 q 279 306 281 326 q 278 269 278 287 q 319 126 278 174 q 445 79 360 79 q 522 97 489 79 q 579 147 556 115 q 618 223 603 180 q 639 318 632 267 l 701 763 q 698 772 702 767 q 686 783 695 778 q 662 794 677 789 q 625 805 647 800 l 632 855 l 882 855 q 891 890 891 872 q 889 905 891 896 q 882 922 887 913 q 872 938 878 930 q 855 951 865 946 l 1009 1026 q 1035 996 1026 1015 q 1044 961 1044 976 "},"͟":{"x_min":-523.59375,"x_max":389.296875,"ha":0,"o":"m 389 -412 q 381 -432 387 -420 q 368 -456 375 -444 q 355 -480 361 -469 q 345 -497 348 -491 l -507 -497 l -523 -475 q -515 -456 -520 -468 q -503 -433 -510 -445 q -490 -409 -496 -420 q -480 -391 -484 -397 l 370 -391 l 389 -412 "},"ń":{"x_min":21.203125,"x_max":715.96875,"ha":732,"o":"m 715 74 q 651 37 685 56 q 586 4 617 19 q 527 -18 554 -9 q 483 -28 500 -28 q 444 -6 460 -28 q 429 51 429 14 q 433 92 429 63 q 443 158 437 121 q 457 237 449 195 q 470 318 464 279 q 480 387 476 356 q 485 433 485 418 q 477 489 485 473 q 449 505 470 505 q 423 500 440 505 q 387 481 407 494 q 346 446 368 467 q 305 393 325 425 q 274 315 285 360 q 251 203 262 269 q 242 150 245 173 q 237 109 239 128 q 235 74 235 90 q 235 42 235 58 q 204 27 226 37 q 158 7 182 18 q 112 -13 133 -3 q 82 -28 90 -23 l 55 -2 q 73 91 64 43 q 90 188 82 140 q 105 281 98 236 q 116 364 112 326 q 124 431 121 402 q 127 476 127 460 q 125 501 127 492 q 120 514 123 510 q 112 520 116 519 q 101 522 107 522 q 84 519 95 522 q 61 513 73 516 q 34 504 49 509 l 21 551 q 87 578 49 563 q 160 605 124 593 q 223 626 195 618 q 262 635 251 635 q 277 631 271 635 q 287 620 283 628 q 292 597 291 612 q 294 558 294 582 q 292 525 294 544 q 289 490 291 507 q 435 599 363 564 q 568 635 507 635 q 606 630 589 635 q 634 613 623 626 q 651 580 645 601 q 658 527 658 559 q 653 470 658 503 q 642 401 649 438 q 629 325 636 364 q 615 250 621 286 q 604 186 608 215 q 600 137 600 156 q 606 106 600 114 q 624 97 612 97 q 655 102 640 97 q 698 119 670 108 l 715 74 m 673 927 l 417 691 q 393 703 406 693 q 371 724 381 713 l 530 995 l 556 990 q 595 982 575 986 q 633 974 615 978 q 657 967 651 969 l 673 927 "},"Ḵ":{"x_min":-5.421875,"x_max":842.359375,"ha":817,"o":"m 435 805 q 367 784 391 795 q 342 763 343 772 l 299 447 l 577 745 q 601 774 594 763 q 606 791 609 785 q 590 800 603 797 q 553 805 577 803 l 559 855 l 842 855 l 835 805 q 799 800 814 802 q 774 792 785 797 q 753 781 763 788 q 732 763 743 774 l 419 458 l 658 137 q 681 120 667 125 q 712 115 695 115 q 748 120 729 115 q 786 133 767 125 l 805 85 q 754 50 784 67 q 694 19 724 33 q 638 -1 664 6 q 596 -10 611 -10 q 563 -3 577 -10 q 538 23 550 3 l 296 423 l 250 90 q 268 70 249 82 q 331 49 286 59 l 324 0 l -5 0 l 1 49 q 68 70 45 59 q 93 90 92 81 l 185 763 q 168 783 187 771 q 105 805 149 795 l 111 855 l 442 855 l 435 805 m 629 -144 q 621 -163 627 -151 q 608 -187 615 -175 q 595 -211 601 -200 q 585 -228 588 -222 l 106 -228 l 90 -206 q 98 -188 92 -200 q 110 -164 103 -177 q 123 -140 117 -151 q 133 -122 129 -128 l 611 -122 l 629 -144 "},"":{"x_min":-21.703125,"x_max":811.15625,"ha":855,"o":"m -14 49 q 54 66 29 58 q 88 94 79 75 l 421 799 q 443 826 427 814 q 479 848 459 839 q 518 864 498 858 q 554 875 539 870 l 733 94 q 753 65 736 76 q 811 49 771 54 l 804 0 l 484 0 l 490 49 q 558 63 540 53 q 571 93 575 73 l 446 662 l 181 94 q 188 65 172 74 q 255 49 205 56 l 248 0 l -21 0 l -14 49 "},"ḹ":{"x_min":25.015625,"x_max":596.15625,"ha":371,"o":"m 350 74 q 283 34 317 53 q 217 2 249 16 q 157 -19 185 -11 q 108 -28 130 -28 q 74 -7 89 -28 q 60 52 60 12 q 64 108 60 69 q 77 200 69 147 q 95 317 85 254 q 116 448 105 381 q 136 580 126 515 q 154 703 146 646 q 167 804 162 760 q 172 872 172 848 q 168 897 172 887 q 161 910 165 906 q 149 916 156 914 q 137 917 143 917 q 120 914 131 917 q 98 908 109 911 q 71 899 85 904 l 59 946 q 125 973 87 959 q 198 1001 162 988 q 262 1022 233 1014 q 304 1031 291 1031 q 334 1018 323 1031 q 346 975 346 1006 q 341 904 346 948 q 328 802 336 859 q 310 681 320 746 q 290 550 300 616 q 269 420 279 484 q 251 301 259 355 q 238 203 243 246 q 234 137 234 160 q 240 105 234 114 q 257 97 246 97 q 291 102 273 97 q 339 119 309 108 l 350 74 m 196 -172 q 188 -216 196 -193 q 167 -256 181 -238 q 133 -287 153 -275 q 88 -299 113 -299 q 40 -278 56 -299 q 25 -231 25 -258 q 32 -188 25 -211 q 53 -147 39 -166 q 87 -116 67 -129 q 132 -104 107 -104 q 160 -109 148 -104 q 180 -125 172 -115 q 191 -147 187 -134 q 196 -172 196 -159 m 596 1280 q 588 1260 594 1272 q 575 1236 581 1249 q 561 1212 568 1223 q 552 1196 555 1201 l 72 1196 l 56 1217 q 64 1236 59 1224 q 76 1259 69 1247 q 89 1283 83 1272 q 99 1302 95 1295 l 577 1302 l 596 1280 "},"¤":{"x_min":33.234375,"x_max":604.296875,"ha":632,"o":"m 341 556 q 285 543 311 556 q 238 510 259 531 q 204 463 218 490 q 187 407 191 436 q 189 354 183 380 q 210 307 196 327 q 247 273 225 286 q 300 260 270 260 q 355 272 329 260 q 402 305 381 284 q 435 352 422 325 q 453 408 448 379 q 451 461 457 435 q 430 508 444 487 q 393 541 415 528 q 341 556 370 554 m 484 124 l 413 216 q 355 186 386 197 q 289 176 324 176 q 225 187 254 176 q 174 218 196 198 l 75 124 l 50 126 q 41 152 46 137 q 33 180 36 166 l 131 275 q 112 337 118 304 q 111 405 107 370 q 131 476 116 442 q 168 540 146 510 l 94 636 l 101 666 q 127 679 112 673 q 155 692 141 685 l 226 597 q 286 629 255 617 q 353 641 318 641 q 415 629 387 641 q 465 597 443 617 l 562 691 l 588 691 l 604 634 l 507 539 q 528 474 522 509 q 529 406 533 440 q 509 336 523 370 q 472 273 495 303 l 545 179 l 541 149 l 484 124 "},"Ǣ":{"x_min":-26.453125,"x_max":1052.609375,"ha":1041,"o":"m 552 758 q 549 768 552 765 q 538 771 545 772 q 524 764 531 770 q 510 746 516 758 l 383 499 l 516 499 l 552 758 m 1008 205 q 993 144 1001 176 q 978 83 986 112 q 965 32 971 54 q 954 0 959 10 l 364 0 l 370 49 q 436 70 413 59 q 461 90 459 81 l 506 424 l 347 424 l 179 95 q 182 65 168 75 q 240 49 196 55 l 233 0 l -26 0 l -19 49 q 42 65 18 55 q 77 95 66 76 l 409 748 q 413 767 415 760 q 401 782 411 775 q 371 793 391 788 q 322 805 352 799 l 328 855 l 1032 855 l 1052 833 q 1043 789 1049 815 q 1030 735 1037 762 q 1015 682 1023 707 q 1002 644 1008 657 l 954 644 q 952 740 960 707 q 921 773 945 773 l 711 773 l 673 499 l 922 499 l 940 475 q 924 452 933 465 q 906 427 915 439 q 887 403 896 414 q 870 386 877 392 q 830 415 855 406 q 773 424 806 424 l 663 424 l 622 124 q 624 106 621 114 q 641 92 628 98 q 679 84 654 87 q 745 81 704 81 l 804 81 q 855 88 833 81 q 894 112 876 95 q 929 156 912 129 q 965 223 946 183 l 1008 205 m 996 1063 q 988 1043 994 1055 q 975 1019 982 1032 q 962 995 968 1006 q 952 979 955 984 l 472 979 l 456 1000 q 464 1019 459 1007 q 476 1042 470 1030 q 489 1066 483 1055 q 499 1085 495 1078 l 978 1085 l 996 1063 "},"Ɨ":{"x_min":8.8125,"x_max":455.09375,"ha":429,"o":"m 402 407 l 307 407 l 263 90 q 281 70 262 82 q 344 49 299 59 l 337 0 l 8 0 l 15 49 q 82 70 58 59 q 107 90 105 81 l 149 407 l 48 407 l 32 428 q 38 441 34 433 q 47 457 42 449 q 56 474 52 466 q 63 488 61 482 l 161 488 l 198 763 q 181 783 200 771 q 118 805 162 795 l 125 855 l 455 855 l 448 805 q 381 784 404 795 q 356 763 357 772 l 318 488 l 417 488 l 435 466 l 402 407 "},"Ĝ":{"x_min":41,"x_max":762.53125,"ha":760,"o":"m 758 371 q 705 345 721 360 q 687 315 689 331 q 680 268 684 297 q 673 210 677 240 q 666 153 670 179 q 662 114 663 127 q 566 47 610 73 q 484 5 522 21 q 414 -15 447 -9 q 355 -21 382 -21 q 236 3 293 -21 q 136 73 179 27 q 66 184 92 118 q 41 331 41 249 q 55 458 41 395 q 96 577 70 520 q 160 683 123 634 q 243 770 198 732 q 303 814 271 794 q 372 847 335 833 q 451 867 409 860 q 542 875 493 875 q 596 870 566 875 q 655 856 626 865 q 711 835 685 848 q 755 806 738 822 q 754 793 758 803 q 743 768 751 783 q 725 738 736 754 q 704 706 715 721 q 684 679 694 690 q 668 661 674 667 l 628 670 q 601 717 616 695 q 565 755 586 739 q 519 780 545 771 q 458 790 492 790 q 395 773 428 790 q 327 724 361 757 q 278 657 301 699 q 238 564 255 614 q 212 461 221 514 q 203 360 203 407 q 221 235 203 287 q 270 151 240 184 q 336 102 299 118 q 408 87 372 87 q 458 92 431 87 q 508 116 485 98 l 537 315 q 535 329 538 322 q 518 342 532 335 q 474 356 504 349 q 394 371 445 363 l 399 420 l 762 420 l 758 371 m 720 948 q 701 924 711 935 q 680 908 691 913 l 521 1026 l 333 908 q 317 923 327 912 q 301 948 307 935 l 497 1158 l 580 1158 l 720 948 "},"p":{"x_min":-14.34375,"x_max":651,"ha":695,"o":"m 423 515 q 392 503 412 515 q 348 471 372 492 q 300 419 325 449 q 254 348 276 388 q 242 277 248 315 q 228 196 235 240 q 257 163 240 179 q 295 135 275 147 q 335 115 314 122 q 372 108 355 108 q 424 124 401 108 q 459 168 446 141 q 483 255 476 205 q 491 355 491 305 q 485 421 491 391 q 469 471 479 450 q 448 503 460 491 q 423 515 436 515 m 286 590 q 276 494 286 562 q 345 565 313 538 q 404 608 377 592 q 456 629 431 624 q 502 635 480 635 q 559 621 532 635 q 606 581 586 607 q 639 515 627 554 q 651 425 651 476 q 643 343 651 385 q 624 260 636 301 q 595 181 612 219 q 560 112 579 143 q 524 61 544 86 q 482 16 505 36 q 433 -15 459 -2 q 379 -28 407 -28 q 341 -18 362 -28 q 299 7 320 -9 q 254 47 277 23 q 212 99 232 70 l 196 4 q 178 -115 185 -65 q 168 -197 171 -164 q 166 -249 165 -230 q 170 -277 166 -268 q 137 -288 159 -280 q 90 -306 115 -296 q 43 -325 65 -316 q 12 -339 21 -334 l -14 -314 q -4 -255 -11 -294 q 11 -163 1 -216 q 32 -49 20 -111 q 54 75 43 12 q 76 201 66 139 q 95 317 87 263 q 108 411 103 370 q 113 474 113 452 q 111 499 113 490 q 103 512 108 508 q 93 518 98 517 q 81 520 88 520 q 65 517 75 520 q 43 511 54 515 q 18 503 31 508 l 6 549 q 73 578 36 563 q 146 606 111 594 q 209 626 180 618 q 250 635 237 635 q 277 625 267 635 q 286 590 286 616 "},"S":{"x_min":16.328125,"x_max":653.75,"ha":661,"o":"m 652 812 q 652 800 655 810 q 642 776 649 789 q 627 745 636 762 q 608 715 617 729 q 591 690 599 701 q 578 677 583 680 l 538 681 q 516 730 530 709 q 484 765 501 751 q 447 786 467 779 q 406 794 427 794 q 346 783 372 794 q 304 756 321 773 q 280 718 288 739 q 272 674 272 697 q 276 643 272 659 q 296 609 281 627 q 338 571 311 591 q 411 528 366 551 q 503 475 464 501 q 567 421 542 449 q 604 362 592 393 q 616 293 616 331 q 588 172 616 229 q 511 72 560 115 q 397 4 463 29 q 257 -21 332 -21 q 207 -16 234 -21 q 153 -5 180 -12 q 102 11 126 1 q 58 32 77 21 q 27 57 39 44 q 16 83 16 70 q 21 102 16 90 q 35 128 26 114 q 54 158 44 143 q 76 185 65 172 q 97 205 86 197 q 114 213 107 213 q 130 202 121 213 q 151 177 139 192 q 178 144 163 162 q 212 110 193 125 q 255 85 232 95 q 307 75 278 75 q 369 85 340 75 q 419 116 398 96 q 453 164 440 136 q 466 229 466 193 q 456 283 466 258 q 424 331 446 308 q 366 377 402 355 q 280 424 331 400 q 206 468 235 445 q 160 517 176 492 q 136 571 143 543 q 130 629 130 598 q 152 718 130 674 q 217 796 175 762 q 319 853 260 831 q 452 875 379 875 q 568 856 516 875 q 652 812 619 837 "},"ễ":{"x_min":33,"x_max":683.65625,"ha":587,"o":"m 270 499 q 215 410 237 460 q 191 295 194 360 q 297 349 258 324 q 357 395 337 373 q 383 437 377 417 q 390 480 390 457 q 376 527 390 511 q 343 543 362 543 q 329 540 337 543 q 310 531 320 537 q 289 518 299 526 q 270 499 279 510 m 560 515 q 555 475 560 496 q 537 431 551 454 q 500 382 524 408 q 434 330 475 357 q 334 275 393 303 q 194 217 276 246 q 208 158 198 184 q 230 114 217 132 q 259 86 244 96 q 292 77 275 77 q 376 103 321 77 q 513 195 431 129 q 522 186 517 193 q 531 172 527 180 q 539 157 536 164 q 544 147 543 150 q 443 65 489 99 q 360 11 398 32 q 290 -18 322 -9 q 227 -28 258 -28 q 166 -15 200 -28 q 102 24 132 -2 q 53 96 73 52 q 33 205 33 140 q 45 306 33 258 q 82 399 58 355 q 140 483 106 443 q 217 559 174 523 q 254 585 232 571 q 302 609 277 598 q 356 627 328 620 q 410 635 384 635 q 477 624 449 635 q 524 596 505 613 q 551 558 542 580 q 560 515 560 537 m 594 731 q 571 707 584 718 q 548 691 558 696 l 396 844 l 201 691 q 183 706 195 695 q 164 731 170 718 l 366 988 l 459 988 l 594 731 m 683 1242 q 661 1203 674 1224 q 634 1161 649 1182 q 603 1121 619 1140 q 569 1086 587 1101 q 532 1063 551 1071 q 493 1054 513 1054 q 443 1065 466 1054 q 399 1088 421 1075 q 357 1113 378 1102 q 311 1124 335 1124 q 285 1119 297 1124 q 262 1104 274 1114 q 237 1080 250 1094 q 210 1047 225 1066 l 167 1065 q 202 1126 181 1093 q 247 1188 223 1159 q 300 1236 272 1217 q 357 1256 328 1256 q 410 1245 385 1256 q 456 1220 434 1234 q 497 1196 477 1207 q 537 1185 516 1185 q 588 1204 564 1185 q 638 1263 611 1223 l 683 1242 "},"/":{"x_min":-75.28125,"x_max":676.1875,"ha":602,"o":"m 69 -183 q 45 -194 62 -188 q 10 -207 29 -200 q -25 -219 -8 -214 q -50 -228 -42 -225 l -75 -206 l 533 1040 q 558 1053 542 1046 q 590 1065 573 1059 q 623 1076 607 1071 q 649 1084 639 1081 l 676 1064 l 69 -183 "},"ⱡ":{"x_min":3.078125,"x_max":483.734375,"ha":467,"o":"m 427 399 l 301 399 q 288 314 294 354 q 278 240 282 274 q 271 180 273 206 q 269 137 269 153 q 275 106 269 114 q 292 97 281 97 q 326 103 308 97 q 375 119 345 108 l 386 74 q 319 34 353 53 q 253 2 285 16 q 193 -19 221 -11 q 144 -28 165 -28 q 110 -7 125 -28 q 96 52 96 12 q 99 101 96 67 q 110 181 103 134 q 125 283 116 227 q 143 399 133 339 l 20 399 l 3 419 q 9 432 5 424 l 17 449 q 26 466 22 458 q 34 480 30 474 l 156 480 q 162 522 159 501 q 169 565 165 543 l 45 565 l 27 585 q 33 598 29 590 q 42 615 38 606 q 51 632 47 624 q 59 646 55 640 l 181 646 q 199 782 192 722 q 207 872 207 842 q 203 896 207 887 q 196 910 200 906 q 184 916 191 914 q 172 917 178 917 q 156 914 166 917 q 134 908 145 911 q 107 899 122 904 l 94 946 q 160 973 122 959 q 233 1001 197 988 q 298 1022 269 1014 q 340 1031 327 1031 q 370 1018 359 1031 q 382 975 382 1006 q 378 919 382 953 q 369 841 375 885 q 356 748 364 798 q 340 646 348 698 l 466 646 l 483 624 l 451 565 l 327 565 q 321 522 324 543 l 314 480 l 441 480 l 459 458 l 427 399 "},"Ọ":{"x_min":51,"x_max":784,"ha":795,"o":"m 622 512 q 611 619 622 569 q 579 706 600 669 q 526 763 558 742 q 454 785 495 785 q 379 765 413 785 q 318 712 345 745 q 272 636 292 679 q 240 546 252 593 q 221 451 227 499 q 215 360 215 403 q 225 244 215 297 q 258 153 236 191 q 309 94 279 115 q 380 73 340 73 q 458 93 423 73 q 519 148 493 114 q 566 227 546 182 q 597 321 585 273 q 616 420 610 370 q 622 512 622 469 m 784 525 q 774 427 784 476 q 748 329 765 377 q 707 236 731 281 q 651 152 682 191 q 587 84 623 116 q 512 29 552 52 q 428 -7 472 6 q 339 -21 385 -21 q 217 6 270 -21 q 126 82 163 34 q 70 194 89 130 q 51 328 51 257 q 59 428 51 379 q 83 522 67 476 q 121 611 99 569 q 170 690 143 653 q 233 762 198 728 q 309 820 267 795 q 397 860 350 845 q 498 875 444 875 q 624 847 571 875 q 713 771 678 819 q 766 659 749 723 q 784 525 784 596 m 429 -172 q 421 -216 429 -193 q 400 -256 414 -238 q 366 -287 386 -275 q 321 -299 346 -299 q 273 -278 289 -299 q 258 -231 258 -258 q 265 -188 258 -211 q 287 -147 273 -166 q 320 -116 301 -129 q 365 -104 340 -104 q 393 -109 381 -104 q 413 -125 405 -115 q 425 -147 421 -134 q 429 -172 429 -159 "},"̨":{"x_min":-514,"x_max":-215.078125,"ha":0,"o":"m -215 -199 q -253 -236 -230 -217 q -300 -269 -275 -254 q -353 -293 -326 -284 q -407 -303 -381 -303 q -441 -299 -423 -303 q -476 -286 -460 -296 q -503 -259 -492 -276 q -514 -215 -514 -242 q -495 -146 -514 -180 q -445 -83 -476 -113 q -377 -28 -415 -53 q -302 17 -339 -2 l -233 12 q -285 -26 -261 -5 q -328 -70 -310 -48 q -356 -115 -345 -93 q -367 -156 -367 -137 q -354 -190 -367 -178 q -321 -203 -341 -203 q -281 -192 -306 -203 q -227 -155 -256 -181 l -215 -199 "},"̋":{"x_min":-369.625,"x_max":70.53125,"ha":0,"o":"m -322 691 q -346 700 -333 692 q -369 716 -360 707 l -241 995 q -220 991 -234 994 q -190 987 -206 989 q -160 982 -174 984 q -141 978 -147 979 l -128 940 l -322 691 m -124 691 q -147 700 -134 692 q -170 716 -161 707 l -42 995 q -21 991 -35 994 q 8 987 -7 989 q 37 982 24 984 q 56 978 51 979 l 70 940 l -124 691 "},"y":{"x_min":-133.140625,"x_max":651,"ha":664,"o":"m 651 583 q 633 512 651 560 q 583 396 615 464 q 506 241 551 327 q 409 55 462 155 q 316 -104 362 -31 q 223 -229 271 -176 q 123 -310 175 -281 q 11 -339 71 -339 q -40 -332 -15 -339 q -87 -316 -66 -326 q -120 -296 -107 -307 q -133 -279 -133 -286 q -121 -249 -133 -269 q -95 -208 -110 -229 q -64 -170 -80 -187 q -38 -148 -48 -153 q 26 -193 -6 -178 q 83 -208 58 -208 q 163 -167 122 -208 q 250 -53 203 -127 q 232 35 242 -13 q 210 134 222 83 q 184 234 197 184 q 158 329 171 285 q 133 408 145 373 q 111 464 121 443 q 85 509 96 499 q 62 520 74 520 q 45 518 56 520 q 23 512 34 515 q -3 504 10 508 l -17 549 q 45 579 13 564 q 107 607 78 594 q 159 627 136 619 q 194 635 182 635 q 227 615 213 635 q 258 548 241 595 q 283 470 270 514 q 311 374 297 426 q 338 268 325 323 q 364 156 352 212 q 417 265 392 211 q 460 365 442 319 q 490 445 479 411 q 501 495 501 479 q 465 531 501 529 q 440 529 453 533 q 408 516 428 525 l 391 561 q 443 589 415 575 q 498 612 471 602 q 549 628 525 622 q 590 635 573 635 q 612 633 601 635 q 632 626 623 631 q 645 610 640 620 q 651 583 651 600 "},"Π":{"x_min":-10.171875,"x_max":868.125,"ha":824,"o":"m -10 0 l -4 49 q 61 70 38 59 q 86 90 84 81 l 178 763 q 161 783 179 771 q 100 805 143 795 l 107 855 l 868 855 l 862 805 q 795 784 818 795 q 770 763 771 772 l 678 90 q 695 70 676 82 q 757 49 714 59 l 751 0 l 430 0 l 436 49 q 501 70 479 59 q 525 90 524 81 l 613 733 q 609 749 614 741 q 592 764 604 757 q 562 775 580 771 q 518 780 543 780 l 427 780 q 385 774 403 779 q 354 764 366 770 q 334 749 341 757 q 326 733 327 741 l 238 90 q 255 70 237 82 q 317 49 274 59 l 311 0 l -10 0 "},"ˊ":{"x_min":135.640625,"x_max":437.453125,"ha":302,"o":"m 437 927 l 181 691 q 157 703 170 693 q 135 724 145 713 l 294 995 l 320 990 q 359 982 339 986 q 397 974 379 978 q 421 967 415 969 l 437 927 "},"Ḧ":{"x_min":-5.421875,"x_max":925.09375,"ha":886,"o":"m 435 805 q 367 784 391 795 q 342 763 343 772 l 305 488 l 630 488 l 668 763 q 651 783 670 771 q 588 805 632 795 l 594 855 l 925 855 l 918 805 q 850 784 874 795 q 826 763 827 772 l 733 90 q 751 70 732 82 q 814 49 770 59 l 808 0 l 478 0 l 484 49 q 552 70 529 59 q 576 90 575 81 l 619 407 l 293 407 l 250 90 q 268 70 249 82 q 331 49 286 59 l 324 0 l -5 0 l 1 49 q 68 70 45 59 q 93 90 92 81 l 185 763 q 168 783 187 771 q 105 805 149 795 l 111 855 l 442 855 l 435 805 m 501 1052 q 494 1009 501 1032 q 473 968 486 987 q 438 937 459 949 q 393 926 418 926 q 345 946 360 926 q 329 993 329 967 q 337 1036 329 1014 q 358 1077 344 1058 q 392 1108 372 1096 q 437 1121 412 1121 q 485 1100 469 1121 q 501 1052 501 1079 m 763 1052 q 756 1009 763 1032 q 735 968 748 987 q 700 937 721 949 q 655 926 680 926 q 607 946 623 926 q 591 993 591 967 q 599 1036 591 1014 q 620 1077 606 1058 q 654 1108 634 1096 q 699 1121 674 1121 q 747 1100 731 1121 q 763 1052 763 1079 "},"–":{"x_min":18.984375,"x_max":581.234375,"ha":612,"o":"m 581 371 q 573 354 578 364 q 562 333 568 344 q 551 312 556 322 q 543 298 545 303 l 36 298 l 18 319 q 26 337 21 327 q 36 357 31 346 q 48 376 42 367 q 58 393 54 386 l 562 393 l 581 371 "},"ë":{"x_min":33,"x_max":608.609375,"ha":587,"o":"m 270 499 q 215 410 237 460 q 191 295 194 360 q 297 349 258 324 q 357 395 337 373 q 383 437 377 417 q 390 480 390 457 q 376 527 390 511 q 343 543 362 543 q 329 540 337 543 q 310 531 320 537 q 289 518 299 526 q 270 499 279 510 m 560 515 q 555 475 560 496 q 537 431 551 454 q 500 382 524 408 q 434 330 475 357 q 334 275 393 303 q 194 217 276 246 q 208 158 198 184 q 230 114 217 132 q 259 86 244 96 q 292 77 275 77 q 376 103 321 77 q 513 195 431 129 q 522 186 517 193 q 531 172 527 180 q 539 157 536 164 q 544 147 543 150 q 443 65 489 99 q 360 11 398 32 q 290 -18 322 -9 q 227 -28 258 -28 q 166 -15 200 -28 q 102 24 132 -2 q 53 96 73 52 q 33 205 33 140 q 45 306 33 258 q 82 399 58 355 q 140 483 106 443 q 217 559 174 523 q 254 585 232 571 q 302 609 277 598 q 356 627 328 620 q 410 635 384 635 q 477 624 449 635 q 524 596 505 613 q 551 558 542 580 q 560 515 560 537 m 346 861 q 339 817 346 840 q 317 777 331 795 q 283 746 303 758 q 238 735 263 735 q 190 755 205 735 q 174 802 174 775 q 182 845 174 822 q 203 886 189 867 q 237 917 217 904 q 282 930 257 930 q 310 924 299 930 q 330 908 322 918 q 342 886 338 899 q 346 861 346 874 m 608 861 q 601 817 608 840 q 579 777 593 795 q 545 746 565 758 q 499 735 524 735 q 452 755 467 735 q 436 802 436 775 q 444 845 436 822 q 465 886 451 867 q 499 917 479 904 q 544 930 518 930 q 572 924 560 930 q 592 908 584 918 q 604 886 600 899 q 608 861 608 874 "},"ƒ":{"x_min":-264.5,"x_max":689.078125,"ha":446,"o":"m 689 946 q 652 918 674 936 q 606 882 629 900 q 563 852 583 865 q 535 840 543 840 q 514 852 524 840 q 492 880 503 864 q 466 907 480 895 q 434 920 452 920 q 386 893 406 920 q 353 825 366 866 q 333 737 340 785 q 320 645 325 689 l 316 614 l 485 614 l 503 590 q 483 567 497 580 q 456 540 470 553 q 427 516 441 527 q 407 502 414 505 q 378 527 400 521 q 314 533 357 533 l 307 533 q 298 444 303 490 q 288 351 293 398 q 278 259 283 304 q 268 173 273 213 q 258 100 263 133 q 250 45 254 67 q 223 -53 241 -7 q 180 -138 205 -98 q 122 -211 154 -177 q 52 -277 90 -246 q 12 -304 33 -292 q -31 -323 -8 -315 q -75 -334 -53 -330 q -119 -339 -98 -339 q -170 -331 -144 -339 q -217 -312 -196 -323 q -251 -290 -238 -301 q -264 -272 -264 -279 q -252 -244 -264 -263 q -225 -206 -240 -225 q -194 -172 -209 -187 q -172 -158 -179 -158 q -151 -168 -164 -158 q -121 -191 -138 -178 q -85 -213 -105 -203 q -42 -224 -65 -224 q 4 -211 -14 -224 q 37 -170 23 -198 q 63 -98 51 -142 q 87 8 74 -54 q 99 79 93 39 q 110 164 105 119 q 120 257 115 209 q 129 354 125 306 q 138 448 134 402 q 146 533 142 493 l 51 533 l 35 559 l 124 614 l 155 614 q 176 718 164 668 q 208 813 188 768 q 259 897 229 858 q 331 967 288 936 q 406 1012 368 994 q 487 1031 445 1031 q 552 1019 520 1031 q 611 992 584 1007 q 658 963 638 977 q 689 946 678 949 "},"ȟ":{"x_min":48.5,"x_max":720.265625,"ha":730,"o":"m 710 74 q 645 37 679 56 q 579 4 611 19 q 519 -18 547 -9 q 472 -28 492 -28 q 437 -6 453 -28 q 422 51 422 14 q 426 92 422 63 q 436 158 430 121 q 449 237 442 195 q 462 318 456 280 q 472 387 468 356 q 477 434 477 419 q 474 469 477 455 q 468 491 472 483 q 458 502 464 499 q 443 506 451 506 q 418 500 434 506 q 381 482 401 495 q 339 448 361 470 q 298 394 317 427 q 266 313 279 362 q 244 204 253 265 q 234 140 238 166 q 230 96 231 115 q 228 65 228 78 q 228 42 228 53 q 198 27 220 37 q 152 7 176 18 q 106 -13 127 -3 q 76 -28 84 -23 l 48 -2 q 63 86 54 34 q 82 200 72 138 q 103 329 92 261 q 124 464 114 397 q 144 596 135 532 q 160 714 153 659 q 171 809 167 768 q 176 872 176 850 q 173 897 176 887 q 167 910 171 906 q 158 916 163 914 q 148 917 153 917 q 129 914 141 917 q 105 908 117 911 q 74 899 91 904 l 64 946 q 129 973 92 959 q 200 1001 165 988 q 264 1022 235 1014 q 306 1031 293 1031 q 338 1018 325 1031 q 351 975 351 1006 q 347 923 351 959 q 337 842 343 888 q 323 745 330 796 q 307 645 315 693 q 293 555 300 596 q 283 490 287 514 q 432 602 362 569 q 563 635 503 635 q 601 630 584 635 q 628 613 617 625 q 645 579 639 601 q 651 525 651 558 q 646 469 651 502 q 636 399 642 436 q 622 324 629 362 q 608 250 615 286 q 598 186 602 215 q 594 137 594 156 q 600 106 594 114 q 618 97 606 97 q 652 103 637 97 q 693 119 667 109 l 710 74 m 523 1100 l 430 1100 l 289 1314 q 312 1340 299 1327 q 335 1360 325 1352 l 494 1232 l 682 1360 q 702 1340 691 1352 q 720 1314 713 1327 l 523 1100 "},"Ẏ":{"x_min":80.703125,"x_max":855.921875,"ha":794,"o":"m 543 0 l 189 0 l 196 49 q 244 62 225 55 q 276 75 264 69 q 294 87 288 82 q 300 98 299 93 l 336 361 q 302 471 322 414 q 260 581 282 527 q 216 682 238 635 q 175 761 194 728 q 165 775 170 769 q 149 784 159 780 q 122 789 139 788 q 80 790 106 791 l 82 839 q 126 847 101 843 q 175 854 151 851 q 221 860 200 858 q 256 863 243 863 q 288 854 271 863 q 313 831 304 846 q 353 752 332 797 q 394 657 374 706 q 432 556 414 607 q 463 460 449 504 l 651 760 q 648 788 662 778 q 586 805 634 798 l 593 855 l 855 855 l 849 805 q 811 796 827 801 q 783 787 794 792 q 763 775 771 782 q 750 760 755 769 l 493 354 l 457 98 q 460 88 457 94 q 475 76 464 82 q 503 62 485 69 q 550 49 522 55 l 543 0 m 589 1052 q 581 1009 589 1032 q 560 968 574 987 q 526 937 546 949 q 481 926 506 926 q 433 946 448 926 q 418 993 418 967 q 425 1036 418 1014 q 446 1077 432 1058 q 480 1108 460 1096 q 525 1121 500 1121 q 553 1115 541 1121 q 573 1099 565 1109 q 584 1078 580 1090 q 589 1052 589 1066 "},"J":{"x_min":-229.921875,"x_max":472.71875,"ha":433,"o":"m 464 805 q 397 784 421 795 q 372 763 373 772 l 288 138 q 256 9 278 62 q 208 -82 235 -44 q 151 -147 181 -121 q 93 -196 121 -174 q 51 -223 75 -210 q 2 -247 27 -237 q -49 -263 -23 -257 q -94 -269 -74 -269 q -144 -261 -120 -269 q -187 -244 -168 -254 q -218 -223 -206 -234 q -229 -204 -229 -212 q -222 -189 -229 -199 q -204 -167 -215 -180 q -179 -143 -193 -155 q -152 -120 -166 -130 q -128 -102 -139 -109 q -112 -95 -118 -95 q -95 -105 -105 -95 q -71 -125 -85 -114 q -40 -145 -57 -136 q -2 -155 -23 -155 q 31 -146 14 -155 q 66 -112 49 -138 q 97 -37 82 -86 q 123 90 112 10 l 215 763 q 212 772 216 767 q 196 782 208 776 q 161 793 183 787 q 103 805 139 799 l 109 855 l 472 855 l 464 805 "},"ŷ":{"x_min":-133.140625,"x_max":651,"ha":664,"o":"m 651 583 q 633 512 651 560 q 583 396 615 464 q 506 241 551 327 q 409 55 462 155 q 316 -104 362 -31 q 223 -229 271 -176 q 123 -310 175 -281 q 11 -339 71 -339 q -40 -332 -15 -339 q -87 -316 -66 -326 q -120 -296 -107 -307 q -133 -279 -133 -286 q -121 -249 -133 -269 q -95 -208 -110 -229 q -64 -170 -80 -187 q -38 -148 -48 -153 q 26 -193 -6 -178 q 83 -208 58 -208 q 163 -167 122 -208 q 250 -53 203 -127 q 232 35 242 -13 q 210 134 222 83 q 184 234 197 184 q 158 329 171 285 q 133 408 145 373 q 111 464 121 443 q 85 509 96 499 q 62 520 74 520 q 45 518 56 520 q 23 512 34 515 q -3 504 10 508 l -17 549 q 45 579 13 564 q 107 607 78 594 q 159 627 136 619 q 194 635 182 635 q 227 615 213 635 q 258 548 241 595 q 283 470 270 514 q 311 374 297 426 q 338 268 325 323 q 364 156 352 212 q 417 265 392 211 q 460 365 442 319 q 490 445 479 411 q 501 495 501 479 q 465 531 501 529 q 440 529 453 533 q 408 516 428 525 l 391 561 q 443 589 415 575 q 498 612 471 602 q 549 628 525 622 q 590 635 573 635 q 612 633 601 635 q 632 626 623 631 q 645 610 640 620 q 651 583 651 600 m 628 731 q 606 707 619 718 q 582 691 593 696 l 430 844 l 236 691 q 217 706 229 695 q 198 731 205 718 l 401 988 l 494 988 l 628 731 "},"ŕ":{"x_min":17.5625,"x_max":605.328125,"ha":567,"o":"m 605 576 q 591 555 599 569 q 574 526 583 542 q 554 494 564 510 q 535 464 544 478 q 519 442 526 450 q 507 434 511 434 q 483 442 494 434 q 461 460 471 450 q 440 477 450 469 q 420 486 430 486 q 380 469 402 486 q 337 421 359 452 q 296 349 315 391 q 262 259 276 308 q 238 152 247 208 q 231 42 229 96 q 198 27 220 37 q 151 7 175 18 q 107 -13 128 -3 q 77 -28 86 -23 l 50 -2 q 78 142 65 70 q 101 278 91 214 q 116 393 111 341 q 122 474 122 444 q 119 499 122 490 q 113 513 117 508 q 104 518 109 517 q 94 520 99 520 q 76 517 87 520 q 55 512 66 515 q 29 504 43 508 l 17 549 q 82 577 46 562 q 154 605 119 592 q 217 626 189 618 q 258 635 245 635 q 273 631 267 635 q 283 621 279 628 q 288 600 287 613 q 290 567 290 587 q 288 547 290 559 q 285 519 287 534 q 281 488 283 503 q 277 459 279 472 q 338 547 310 513 q 392 601 367 582 q 440 627 417 620 q 484 635 462 635 q 511 628 496 635 q 541 611 525 621 q 574 592 557 602 q 605 576 590 582 m 603 927 l 347 691 q 323 703 336 693 q 301 724 311 713 l 460 995 l 486 990 q 525 982 505 986 q 563 974 545 978 q 588 967 581 969 l 603 927 "},"ṝ":{"x_min":17.5625,"x_max":651.78125,"ha":567,"o":"m 605 576 q 591 555 599 569 q 574 526 583 542 q 554 494 564 510 q 535 464 544 478 q 519 442 526 450 q 507 434 511 434 q 483 442 494 434 q 461 460 471 450 q 440 477 450 469 q 420 486 430 486 q 380 469 402 486 q 337 421 359 452 q 296 349 315 391 q 262 259 276 308 q 238 152 247 208 q 231 42 229 96 q 198 27 220 37 q 151 7 175 18 q 107 -13 128 -3 q 77 -28 86 -23 l 50 -2 q 78 142 65 70 q 101 278 91 214 q 116 393 111 341 q 122 474 122 444 q 119 499 122 490 q 113 513 117 508 q 104 518 109 517 q 94 520 99 520 q 76 517 87 520 q 55 512 66 515 q 29 504 43 508 l 17 549 q 82 577 46 562 q 154 605 119 592 q 217 626 189 618 q 258 635 245 635 q 273 631 267 635 q 283 621 279 628 q 288 600 287 613 q 290 567 290 587 q 288 547 290 559 q 285 519 287 534 q 281 488 283 503 q 277 459 279 472 q 338 547 310 513 q 392 601 367 582 q 440 627 417 620 q 484 635 462 635 q 511 628 496 635 q 541 611 525 621 q 574 592 557 602 q 605 576 590 582 m 215 -172 q 207 -216 215 -193 q 186 -256 200 -238 q 152 -287 172 -275 q 107 -299 132 -299 q 59 -278 75 -299 q 44 -231 44 -258 q 51 -188 44 -211 q 72 -147 58 -166 q 106 -116 86 -129 q 151 -104 126 -104 q 179 -109 167 -104 q 199 -125 191 -115 q 210 -147 206 -134 q 215 -172 215 -159 m 651 869 q 643 849 649 861 q 630 825 637 838 q 617 801 623 812 q 607 785 611 790 l 128 785 l 112 806 q 120 825 115 813 q 132 848 126 836 q 145 872 139 861 q 156 891 151 884 l 634 891 l 651 869 "},"˘":{"x_min":64.4375,"x_max":507.3125,"ha":423,"o":"m 507 905 q 450 812 482 850 q 385 751 419 774 q 320 717 352 728 q 260 707 287 707 q 200 717 230 707 q 143 751 170 728 q 96 813 117 775 q 64 905 75 851 q 75 918 69 911 q 90 932 82 925 q 104 945 97 940 q 116 955 111 951 q 144 898 126 920 q 183 861 162 875 q 226 841 204 847 q 268 835 248 835 q 315 841 289 835 q 368 861 341 847 q 419 898 394 875 q 462 955 444 920 q 473 946 467 951 q 485 933 479 940 q 498 918 492 926 q 507 905 503 911 "},"ẋ":{"x_min":-29.84375,"x_max":646.34375,"ha":642,"o":"m 630 68 q 573 30 601 48 q 520 0 545 13 q 474 -20 495 -13 q 435 -28 452 -28 q 397 -10 416 -28 q 359 36 378 6 q 323 104 341 65 q 287 186 305 143 q 228 103 260 149 q 159 3 196 58 q 123 -1 147 1 q 74 -10 100 -5 q 26 -19 49 -15 q -9 -28 3 -24 l -29 1 q 35 60 0 26 q 109 129 71 93 q 183 203 147 165 q 251 276 220 241 q 215 367 233 324 q 180 445 197 411 q 146 499 162 479 q 115 520 130 520 q 94 517 109 520 q 65 511 80 514 q 27 502 48 507 l 13 549 q 73 578 42 563 q 132 606 104 594 q 183 627 160 619 q 216 635 205 635 q 252 614 233 635 q 289 560 270 594 q 327 482 307 526 q 365 390 346 438 q 406 444 387 418 q 439 490 425 470 q 460 525 453 510 q 468 543 468 539 q 452 563 468 557 q 392 565 436 569 l 389 613 q 437 621 411 618 q 489 628 463 625 q 536 633 514 631 q 573 635 558 635 q 629 624 613 635 q 646 599 646 613 q 583 501 646 573 q 399 305 520 430 q 433 224 416 263 q 466 156 450 185 q 497 109 482 126 q 526 92 512 92 q 565 96 542 92 q 613 114 588 101 l 630 68 m 494 861 q 486 817 494 840 q 465 777 479 795 q 431 746 451 758 q 386 735 411 735 q 338 755 354 735 q 323 802 323 775 q 330 845 323 822 q 351 886 337 867 q 385 917 365 904 q 430 930 405 930 q 458 924 446 930 q 478 908 470 918 q 489 886 485 899 q 494 861 494 874 "},"D":{"x_min":-5.078125,"x_max":802,"ha":820,"o":"m 388 804 q 367 802 378 804 q 347 801 357 801 l 253 110 q 269 81 251 90 q 339 73 287 73 q 425 90 386 73 q 498 139 465 108 q 555 211 530 170 q 597 299 580 252 q 622 396 614 346 q 631 493 631 446 q 617 623 631 566 q 574 721 603 681 q 498 782 544 761 q 388 804 452 804 m 802 510 q 787 390 802 451 q 746 272 773 328 q 679 165 719 215 q 590 79 640 115 q 478 21 539 42 q 346 0 417 0 l -5 0 l 1 49 q 67 70 44 59 q 91 90 90 81 l 188 786 l 92 772 l 92 835 q 173 852 131 845 q 259 864 216 859 q 342 872 302 869 q 418 875 383 875 q 589 849 516 875 q 708 776 661 824 q 778 662 755 729 q 802 510 802 594 "},"ĺ":{"x_min":59.421875,"x_max":539.875,"ha":371,"o":"m 350 74 q 283 34 317 53 q 217 2 249 16 q 157 -19 185 -11 q 108 -28 130 -28 q 74 -7 89 -28 q 60 52 60 12 q 64 108 60 69 q 77 200 69 147 q 95 317 85 254 q 116 448 105 381 q 136 580 126 515 q 154 703 146 646 q 167 804 162 760 q 172 872 172 848 q 168 897 172 887 q 161 910 165 906 q 149 916 156 914 q 137 917 143 917 q 120 914 131 917 q 98 908 109 911 q 71 899 85 904 l 59 946 q 125 973 87 959 q 198 1001 162 988 q 262 1022 233 1014 q 304 1031 291 1031 q 334 1018 323 1031 q 346 975 346 1006 q 341 904 346 948 q 328 802 336 859 q 310 681 320 746 q 290 550 300 616 q 269 420 279 484 q 251 301 259 355 q 238 203 243 246 q 234 137 234 160 q 240 105 234 114 q 257 97 246 97 q 291 102 273 97 q 339 119 309 108 l 350 74 m 539 1285 l 220 1125 q 202 1144 210 1131 q 187 1171 193 1158 l 427 1391 q 456 1375 440 1384 q 488 1358 472 1367 q 517 1341 503 1349 q 539 1327 531 1333 l 539 1285 "}}}
